<svg xmlns="http://www.w3.org/2000/svg" xml:space="preserve" id="Layer_1" x="0" y="0" version="1.1" viewBox="0 0 900 497.3"><style>.st1{fill:#2d4942}.st4{fill:#fff}.st16{fill:#424ae9}.st18{fill:none;stroke:#2d4942;stroke-miterlimit:10}.st29{fill:#e1f434}.st30{fill:#22d776}</style><path d="M9.6 20.7h9.7v1.6h-8v3.6H16v1.6h-4.6v6H9.6zM21.7 20.2h1.6v13.2h-1.6zM30.4 33.7c-.6 0-1.2-.1-1.7-.3s-.9-.4-1.2-.8c-.3-.3-.6-.7-.7-1.2-.2-.5-.2-1-.2-1.5v-5.4h1.7v5.3c0 .7.2 1.2.5 1.6.4.4.9.6 1.6.6s1.2-.2 1.6-.6.6-1 .6-1.6v-5.3h1.6V30c0 .5-.1 1-.2 1.4-.2.5-.4.8-.7 1.2s-.7.6-1.2.8-1.1.3-1.7.3M43.5 33.5h-1.9c-2 0-3-1-3-2.9v-4.5h-2.3v-1.5h2.3v-3.9h1.6v3.9h3.2v1.5h-3.2v4.2c0 .6.1 1.1.4 1.3.2.3.7.4 1.4.4h1.5zM51.8 33.5h-1.9c-2 0-3-1-3-2.9v-4.5h-2.3v-1.5H47v-3.9h1.6v3.9h3.2v1.5h-3.2v4.2c0 .6.1 1.1.4 1.3.2.3.7.4 1.4.4h1.5v1.5zM57.8 24.4c.6 0 1.1.1 1.6.3s.9.5 1.3.9.6.9.8 1.5.3 1.2.3 1.9v.3h-6.4c0 .4.1.8.2 1.1.1.4.3.7.5.9.2.3.5.5.8.6s.7.2 1.1.2.7 0 1-.1.5-.2.7-.3.3-.2.4-.4.2-.2.2-.3h1.6c0 .2-.1.4-.3.7-.1.3-.4.6-.6.9-.3.3-.7.5-1.1.7-.5.2-1.1.3-1.7.3s-1.2-.1-1.8-.4-1-.6-1.3-1c-.4-.4-.6-.9-.8-1.5q-.3-.9-.3-1.8c0-.7.1-1.3.3-1.9s.5-1.1.8-1.5.8-.7 1.3-1 .8-.1 1.4-.1m0 1.4c-.7 0-1.2.2-1.6.6s-.6.9-.8 1.6H60c-.1-.7-.4-1.3-.8-1.6-.2-.4-.7-.6-1.4-.6M66.2 33.5h-1.6v-8.9h1.6v1.6c.1-.2.2-.3.3-.5s.3-.4.6-.5c.2-.2.5-.3.9-.4s.8-.2 1.3-.2H71v1.6h-1.9c-1 0-1.8.2-2.2.6s-.7 1-.7 1.7zM82.2 22.1c-.9 0-1.6.2-2.1.5s-.7.8-.7 1.4c0 .3.1.6.2.8s.3.4.5.5.5.3.8.4.6.2 1 .2l1.7.3c.5.1 1 .2 1.5.4s.9.4 1.3.6c.4.3.7.6.9 1.1s.4 1 .4 1.6q0 .75-.3 1.5t-.9 1.2c-.4.4-.9.6-1.5.8s-1.3.3-2 .3q-1.35 0-2.4-.3c-.7-.2-1.2-.5-1.7-.9s-.8-.8-1.1-1.2-.5-.9-.6-1.3h1.9c.1.2.2.4.4.7s.4.5.7.7.7.4 1.1.5c.5.1 1 .2 1.6.2.9 0 1.6-.2 2.2-.6.5-.4.8-.9.8-1.6 0-.4-.1-.7-.2-.9s-.3-.4-.5-.6-.5-.3-.8-.4-.6-.2-1-.2l-1.7-.3c-.6-.1-1.1-.2-1.6-.4s-.9-.4-1.3-.7-.6-.6-.8-1-.3-.9-.3-1.5q0-.75.3-1.5c.2-.4.5-.8.9-1.1s.9-.5 1.4-.7c.6-.2 1.2-.2 1.8-.2.8 0 1.5.1 2.2.3.6.2 1.1.5 1.5.8s.8.7 1 1.1.4.8.5 1.2h-1.8c-.1-.2-.2-.4-.4-.6s-.4-.4-.7-.5c-.3-.2-.6-.3-1-.4-.2-.1-.7-.2-1.2-.2M93.1 37.3h-1.6l1.6-4-3.6-8.7h1.8l2.6 6.6 2.6-6.6h1.7zM102.8 29.7c-.9-.1-1.6-.4-2.1-.8-.6-.4-.8-1.1-.8-1.9 0-.4.1-.8.3-1.1s.4-.6.7-.8.7-.4 1.1-.5.9-.2 1.4-.2q1.05 0 1.8.3c.5.2.9.4 1.2.7s.5.5.6.8.2.5.3.7h-1.6l-.2-.2c-.1-.1-.2-.2-.4-.3s-.4-.2-.7-.3-.6-.1-1-.1c-.6 0-1.1.1-1.4.3s-.5.5-.5.8c0 .7.5 1.1 1.6 1.2l1.2.1c1.1.1 1.8.4 2.3.9s.7 1.1.7 1.9c0 .4-.1.7-.2 1.1-.2.3-.4.6-.7.9-.3.2-.7.4-1.1.6-.4.1-.9.2-1.5.2-.8 0-1.4-.1-1.9-.3s-.9-.4-1.3-.7c-.3-.3-.6-.6-.7-.9-.2-.3-.3-.6-.3-.8h1.7c0 .1.1.2.2.3s.2.3.4.4.5.2.8.4c.3.1.7.2 1.1.2.6 0 1.1-.1 1.4-.3s.5-.5.5-.9-.1-.7-.4-.9c-.2-.2-.6-.3-1.2-.4zM116 33.5h-1.9c-2 0-3-1-3-2.9v-4.5h-2.3v-1.5h2.3v-3.9h1.6v3.9h3.2v1.5h-3.2v4.2c0 .6.1 1.1.4 1.3.2.3.7.4 1.4.4h1.5zM122 24.4c.6 0 1.1.1 1.6.3s.9.5 1.3.9.6.9.8 1.5.3 1.2.3 1.9v.3h-6.4c0 .4.1.8.2 1.1.1.4.3.7.5.9.2.3.5.5.8.6s.7.2 1.1.2.7 0 1-.1.5-.2.7-.3.3-.2.4-.4.2-.2.2-.3h1.6c0 .2-.1.4-.3.7-.1.3-.4.6-.6.9-.3.3-.7.5-1.1.7-.5.2-1.1.3-1.7.3s-1.2-.1-1.8-.4-1-.6-1.3-1c-.4-.4-.6-.9-.8-1.5q-.3-.9-.3-1.8c0-.7.1-1.3.3-1.9s.5-1.1.8-1.5.8-.7 1.3-1 .8-.1 1.4-.1m0 1.4c-.7 0-1.2.2-1.6.6s-.6.9-.8 1.6h4.6c-.1-.7-.4-1.3-.8-1.6-.3-.4-.8-.6-1.4-.6M130.3 33.5h-1.6v-8.9h1.6V26c.1-.2.2-.3.3-.5s.3-.4.5-.5.5-.3.7-.4c.3-.1.6-.2 1-.2.7 0 1.4.2 1.9.5s.9.8 1.2 1.4c.1-.2.2-.4.4-.6q.15-.3.6-.6c.2-.2.5-.4.8-.5s.7-.2 1.1-.2c.6 0 1 .1 1.5.3.4.2.8.4 1.1.8.3.3.5.7.7 1.2.2.4.2.9.2 1.5v5.4h-1.7v-5.1c0-.7-.2-1.3-.5-1.8-.4-.5-.9-.7-1.6-.7s-1.2.2-1.6.7q-.6.75-.6 1.8v5.1h-1.7v-5.1c0-.7-.2-1.3-.5-1.8-.4-.5-.9-.7-1.6-.7s-1.2.2-1.6.7-.5 1.1-.5 1.8v5zM155.7 33.7c-.9 0-1.7-.2-2.4-.5s-1.3-.8-1.8-1.4-.9-1.3-1.1-2.1-.4-1.7-.4-2.6.1-1.8.4-2.6q.45-1.2 1.2-2.1c.5-.6 1.1-1 1.8-1.4.7-.3 1.5-.5 2.4-.5s1.7.2 2.4.5 1.3.8 1.8 1.4q.75.9 1.2 2.1c.3.8.4 1.7.4 2.6s-.1 1.8-.4 2.6-.7 1.5-1.2 2.1-1.1 1-1.8 1.4-1.6.5-2.5.5m0-1.6c.6 0 1.2-.1 1.7-.4s.9-.6 1.2-1.1.6-1 .8-1.6.3-1.3.3-1.9c0-.7-.1-1.3-.3-1.9s-.4-1.1-.8-1.6-.7-.8-1.2-1.1-1.1-.4-1.7-.4-1.2.1-1.7.4-.9.6-1.2 1.1-.6 1-.8 1.6-.3 1.3-.3 1.9c0 .7.1 1.4.3 2s.4 1.1.8 1.6.7.8 1.2 1 1.1.4 1.7.4M168.3 33.7h-1.5l-3.7-9.1h1.8l2.6 6.7 2.6-6.7h1.7zM177.4 24.4c.6 0 1.1.1 1.6.3s.9.5 1.3.9.6.9.8 1.5.3 1.2.3 1.9v.3H175c0 .4.1.8.2 1.1.1.4.3.7.5.9.2.3.5.5.8.6s.7.2 1.1.2.7 0 1-.1.5-.2.7-.3.3-.2.4-.4.2-.2.2-.3h1.6c0 .2-.1.4-.3.7-.1.3-.4.6-.6.9-.3.3-.7.5-1.1.7-.5.2-1.1.3-1.7.3s-1.2-.1-1.8-.4-1-.6-1.3-1c-.4-.4-.6-.9-.8-1.5q-.3-.9-.3-1.8c0-.7.1-1.3.3-1.9s.5-1.1.8-1.5.8-.7 1.3-1 .8-.1 1.4-.1m0 1.4c-.7 0-1.2.2-1.6.6s-.6.9-.8 1.6h4.6c-.1-.7-.4-1.3-.8-1.6-.3-.4-.8-.6-1.4-.6M185.7 33.5h-1.6v-8.9h1.6v1.6c.1-.2.2-.3.3-.5s.3-.4.6-.5c.2-.2.5-.3.9-.4s.8-.2 1.3-.2h1.7v1.6h-1.9c-1 0-1.8.2-2.2.6s-.7 1-.7 1.7zM196.6 33.7h-1.5l-3.7-9.1h1.8l2.6 6.7 2.6-6.7h1.7zM202.3 20.4h1.7v2.5h-1.7zm0 4.2h1.6v8.9h-1.6zM210.8 24.4c.6 0 1.1.1 1.6.3s.9.5 1.3.9.6.9.8 1.5.3 1.2.3 1.9v.3h-6.4c0 .4.1.8.2 1.1.1.4.3.7.5.9.2.3.5.5.8.6s.7.2 1.1.2.7 0 1-.1.5-.2.7-.3.3-.2.4-.4.2-.2.2-.3h1.6c0 .2-.1.4-.3.7-.1.3-.4.6-.6.9-.3.3-.7.5-1.1.7-.5.2-1.1.3-1.7.3s-1.2-.1-1.8-.4-1-.6-1.3-1c-.4-.4-.6-.9-.8-1.5q-.3-.9-.3-1.8c0-.7.1-1.3.3-1.9s.5-1.1.8-1.5.8-.7 1.3-1 .8-.1 1.4-.1m0 1.4c-.7 0-1.2.2-1.6.6s-.6.9-.8 1.6h4.6c-.1-.7-.4-1.3-.8-1.6-.3-.4-.8-.6-1.4-.6M223.1 26.8l-2.3 6.8h-1.5l-3.1-9h1.8l2.1 6.6 2.2-6.6h1.5l2.2 6.6 2.1-6.5h1.6l-3 9h-1.4zM18.8 63.5h9.7v1.6h-8v3.6h4.6v1.6h-4.6v6h-1.7zM31.5 76.3h-1.6v-8.9h1.6V69c.1-.2.2-.3.3-.5s.3-.4.6-.5.5-.3.9-.4.8-.2 1.3-.2h1.7V69h-1.9c-1 0-1.8.2-2.2.6s-.7 1-.7 1.7zM44.3 74.8c-.1.1-.1.3-.3.5-.1.2-.3.4-.5.5s-.5.3-.8.4-.7.2-1.1.2q-.75 0-1.5-.3t-1.2-.9c-.3-.4-.6-.9-.8-1.5s-.3-1.2-.3-2c0-.7.1-1.4.3-2s.5-1.1.8-1.5q.45-.6 1.2-.9t1.5-.3c.4 0 .8.1 1.1.2s.6.3.8.5.4.4.5.6.2.3.3.5v-1.5h1.6v8.9h-1.6zm0-3c0-.4-.1-.9-.2-1.2s-.3-.7-.5-1-.4-.5-.7-.7-.6-.2-1-.2-.7.1-1 .2c-.3.2-.5.4-.7.7s-.3.6-.5 1-.2.8-.2 1.2.1.9.2 1.2c.1.4.3.7.5 1s.4.5.7.7.6.2 1 .2.7-.1 1-.2c.3-.2.5-.4.7-.7s.4-.6.5-1c.2-.3.2-.7.2-1.2M50.9 76.3h-1.6v-8.9h1.6v1.4c.1-.2.2-.3.3-.5s.3-.4.5-.5.5-.3.7-.4c.3-.1.6-.2 1-.2.7 0 1.4.2 1.9.5s.9.8 1.2 1.4c.1-.2.2-.4.4-.6q.15-.3.6-.6c.2-.2.5-.4.8-.5s.7-.2 1.1-.2c.6 0 1 .1 1.5.3.4.2.8.4 1.1.8.3.3.5.7.7 1.2.2.4.2.9.2 1.5v5.4h-1.7v-5.1c0-.7-.2-1.3-.5-1.8-.4-.5-.9-.7-1.6-.7s-1.2.2-1.6.7q-.6.75-.6 1.8v5.1h-1.7v-5.1c0-.7-.2-1.3-.5-1.8-.4-.5-.9-.7-1.6-.7s-1.2.2-1.6.7-.5 1.1-.5 1.8v5zM69.5 67.1c.6 0 1.1.1 1.6.3s.9.5 1.3.9.6.9.8 1.5.3 1.2.3 1.9v.3h-6.4c0 .4.1.8.2 1.1.1.4.3.7.5.9s.5.5.8.6.7.2 1.1.2.7 0 1-.1.5-.2.7-.3.3-.2.4-.4.2-.2.2-.3h1.6c0 .2-.1.4-.3.7l-.6.9c-.3.3-.7.5-1.1.7-.5.2-1.1.3-1.7.3s-1.2-.1-1.8-.4c-.5-.2-1-.6-1.3-1-.4-.4-.6-.9-.8-1.5q-.3-.9-.3-1.8c0-.7.1-1.3.3-1.9s.5-1.1.8-1.5.8-.7 1.3-1c.3.1.8-.1 1.4-.1m0 1.4c-.7 0-1.2.2-1.6.6s-.6.9-.8 1.6h4.6c-.1-.7-.4-1.3-.8-1.6-.2-.4-.7-.6-1.4-.6M81.8 69.6l-2.3 6.8H78l-3.1-9h1.8l2.1 6.6 2.2-6.6h1.5l2.2 6.6 2.1-6.5h1.6l-3 9H84zM94.2 67.2c.6 0 1.2.1 1.7.4s1 .6 1.3 1c.4.4.6.9.8 1.5q.3.9.3 1.8c0 .9-.1 1.3-.3 1.8-.2.6-.5 1.1-.8 1.5-.4.4-.8.7-1.3 1-.5.2-1.1.4-1.7.4s-1.2-.1-1.7-.4c-.5-.2-.9-.6-1.3-1s-.6-.9-.8-1.5q-.3-.9-.3-1.8c0-.9.1-1.3.3-1.8.2-.6.5-1.1.8-1.5.4-.4.8-.7 1.3-1s1.1-.4 1.7-.4m0 7.8c.4 0 .8-.1 1.1-.2.3-.2.6-.4.8-.7s.4-.6.5-1 .2-.8.2-1.2-.1-.8-.2-1.2-.3-.7-.5-1-.5-.5-.8-.7-.7-.2-1.1-.2-.8.1-1.1.2-.6.4-.8.7-.4.6-.5 1-.2.8-.2 1.2.1.8.2 1.2.3.7.5 1 .5.5.8.7.7.2 1.1.2M102.8 76.3h-1.6v-8.9h1.6V69c.1-.2.2-.3.3-.5s.3-.4.6-.5.5-.3.9-.4.8-.2 1.3-.2h1.7V69h-1.9c-1 0-1.8.2-2.2.6s-.7 1-.7 1.7zM111.3 72.1v4.2h-1.6V63h1.6v8.2l4.2-3.8h2.2l-4.7 4.2 4.9 4.7h-2.2zM18.4 86.8h3.3c.8 0 1.5.1 2.1.4.6.2 1.2.6 1.6 1s.8 1 1 1.6.4 1.3.4 2.1c0 .7-.1 1.4-.3 2s-.6 1.1-1 1.6c-.4.4-1 .8-1.6 1s-1.3.4-2.1.4h-3.3V86.8zm1.3 1.2v7.4h2q.9 0 1.5-.3c.5-.2.8-.4 1.2-.7.3-.3.6-.7.7-1.2q.3-.75.3-1.5c0-1.2-.3-2.1-1-2.7-.7-.7-1.5-1-2.7-1zM33.6 95.6c0 .1-.1.2-.2.4s-.2.3-.4.4-.4.3-.6.3c-.2.1-.5.1-.9.1s-.8-.1-1.2-.2c-.4-.2-.7-.4-.9-.7s-.5-.7-.6-1.1-.2-1-.2-1.5.1-1.1.2-1.5.4-.8.6-1.1.6-.6.9-.7c.4-.2.7-.2 1.2-.2.3 0 .6.1.9.2.2.1.4.2.6.4.2.1.3.3.4.4s.2.3.2.3V90h1.3v6.9h-1.3zm0-2.3c0-.3 0-.7-.1-1s-.2-.6-.4-.8-.3-.4-.6-.5c-.2-.1-.5-.2-.8-.2s-.6.1-.8.2-.4.3-.6.5-.3.5-.3.8c-.1.3-.1.6-.1 1s0 .7.1 1 .2.6.3.8c.2.2.3.4.6.5.2.1.5.2.8.2s.6-.1.8-.2.4-.3.6-.5.3-.5.4-.8c.1-.4.1-.7.1-1M38.7 96.7h-1.3v-6.9h1.3V91c0-.1.1-.3.2-.4l.4-.4c.2-.1.4-.2.7-.3s.6-.1 1-.1h1.3V91H41c-.8 0-1.4.1-1.7.4s-.5.7-.5 1.4v3.9zM48.9 96.7h-1.5c-1.5 0-2.3-.8-2.3-2.3v-3.5h-1.8v-1.1h1.8v-3h1.3v3h2.5v1.1h-2.5v3.3c0 .5.1.8.3 1s.5.3 1.1.3H49v1.2zM18.8 258.6H28v1.6h-7.5v3.6h4.4v1.6h-4.4v4.4h8.1v1.6h-9.8zM32.7 271.4h-1.6v-8.9h1.6v1.5c.1-.2.2-.4.4-.6.1-.2.3-.4.5-.5.2-.2.5-.3.8-.4s.6-.2 1-.2c1 0 1.9.3 2.5 1s.9 1.6.9 2.8v5.3h-1.7v-5c0-.9-.2-1.5-.6-1.9s-.9-.6-1.6-.6-1.3.2-1.7.7c-.4.4-.6 1.1-.6 1.9v4.9zM48 270c0 .1-.1.2-.3.4-.1.2-.3.4-.5.5-.2.2-.5.3-.8.5-.3.1-.7.2-1.1.2q-.75 0-1.5-.3c-.75-.3-.9-.5-1.2-.9s-.6-.9-.8-1.5-.3-1.2-.3-2c0-.7.1-1.4.3-2s.5-1.1.8-1.5.8-.7 1.2-.9 1-.3 1.5-.3c.4 0 .8.1 1.1.2s.6.3.8.5.4.4.5.6.2.3.3.5v-1.5h1.6v8.7c0 .6-.1 1.2-.3 1.7s-.4 1-.8 1.4c-.3.4-.8.7-1.3.9q-.75.3-1.8.3t-1.8-.3c-.5-.2-.9-.4-1.2-.7s-.5-.5-.7-.8c-.1-.3-.2-.5-.2-.7h1.7l.2.2c.1.1.2.2.4.3s.4.2.7.3.6.1 1 .1c.8 0 1.5-.2 1.9-.7q.6-.75.6-2.1zm.1-3.1c0-.4-.1-.9-.2-1.3s-.3-.7-.5-1-.5-.5-.8-.7-.6-.2-1-.2-.7.1-1 .2c-.3.2-.6.4-.8.7s-.4.6-.5 1-.2.8-.2 1.3c0 .4.1.9.2 1.2.1.4.3.7.5 1s.5.5.8.7.6.2 1 .2.7-.1 1-.2c.3-.2.6-.4.8-.7s.4-.6.5-1c.1-.3.2-.7.2-1.2M53 258.2h1.7v2.5H53zm0 4.3h1.6v8.9H53zM59.6 271.4H58v-8.9h1.6v1.5c.1-.2.2-.4.4-.6.1-.2.3-.4.5-.5.2-.2.5-.3.8-.4s.6-.2 1-.2c1 0 1.9.3 2.5 1s.9 1.6.9 2.8v5.3H64v-5c0-.9-.2-1.5-.6-1.9s-.9-.6-1.6-.6-1.3.2-1.7.7c-.4.4-.6 1.1-.6 1.9v4.9zM72.4 262.2c.6 0 1.1.1 1.6.3s.9.5 1.3.9.6.9.8 1.5.3 1.2.3 1.9v.3H70c0 .4.1.8.2 1.1.1.4.3.7.5.9.2.3.5.5.8.6s.7.2 1.1.2.7 0 1-.1.5-.2.7-.3.3-.2.4-.4.2-.2.2-.3h1.6c0 .2-.1.4-.3.7-.1.3-.4.6-.6.9s-.7.5-1.1.7c-.5.2-1.1.3-1.7.3s-1.2-.1-1.8-.4c-.5-.2-1-.6-1.3-1-.4-.4-.6-.9-.8-1.5q-.3-.9-.3-1.8c0-.7.1-1.3.3-1.9s.5-1.1.8-1.5.8-.7 1.3-1c.2 0 .8-.1 1.4-.1m0 1.4c-.7 0-1.2.2-1.6.6s-.6.9-.8 1.6h4.6c-.1-.7-.4-1.3-.8-1.6-.2-.4-.8-.6-1.4-.6M22.2 292c-.7 0-1.3-.1-1.8-.4s-1-.6-1.4-1.1-.7-1-.9-1.6-.3-1.3-.3-2 .1-1.4.3-2 .5-1.2.9-1.6c.4-.5.8-.8 1.4-1.1.5-.3 1.1-.4 1.8-.4s1.3.1 1.7.3.9.5 1.2.8.6.6.7 1c.2.4.3.7.3 1h-1.3c-.1-.1-.1-.3-.3-.5-.1-.2-.3-.4-.5-.6s-.5-.3-.8-.5c-.3-.1-.7-.2-1.1-.2-.5 0-.9.1-1.3.3s-.7.5-.9.8-.4.8-.5 1.2c-.1.5-.2 1-.2 1.5s.1 1 .2 1.5.3.9.5 1.2.5.6.9.8.8.3 1.3.3c.4 0 .8-.1 1.1-.2s.6-.3.8-.5.4-.4.5-.6.2-.4.3-.5h1.3c0 .3-.1.6-.3 1a3.6 3.6 0 0 1-1.9 1.8c-.5.2-1 .3-1.7.3M31.1 281.2h1.1l-3.6 11.6h-1.1zM38.2 292c-.7 0-1.3-.1-1.8-.4s-1-.6-1.4-1.1-.7-1-.9-1.6-.3-1.3-.3-2 .1-1.4.3-2 .5-1.2.9-1.6c.4-.5.8-.8 1.4-1.1.5-.3 1.1-.4 1.8-.4s1.3.1 1.7.3.9.5 1.2.8.6.6.7 1c.2.4.3.7.3 1h-1.3c-.1-.1-.1-.3-.3-.5-.1-.2-.3-.4-.5-.6s-.5-.3-.8-.5c-.3-.1-.7-.2-1.1-.2-.5 0-.9.1-1.3.3s-.7.5-.9.8-.4.8-.5 1.2c-.1.5-.2 1-.2 1.5s.1 1 .2 1.5.3.9.5 1.2.5.6.9.8.8.3 1.3.3c.4 0 .8-.1 1.1-.2s.6-.3.8-.5.4-.4.5-.6.2-.4.3-.5h1.3c0 .3-.1.6-.3 1a3.6 3.6 0 0 1-1.9 1.8c-.5.2-1 .3-1.7.3M48.5 287.9v3.2h-1.1v-3.2h-3.1v-1.1h3.1v-3.2h1.1v3.2h3.1v1.1zM18.8 422.7H28v1.6h-7.5v3.6h4.4v1.6h-4.4v4.4h8.1v1.6h-9.8zM32.7 435.5h-1.6v-8.9h1.6v1.4c.1-.2.2-.3.3-.5s.3-.4.5-.5.5-.3.7-.4c.3-.1.6-.2 1-.2.7 0 1.4.2 1.9.5s.9.8 1.2 1.4c.1-.2.2-.4.4-.6q.15-.3.6-.6c.2-.2.5-.4.8-.5s.7-.2 1.1-.2c.6 0 1 .1 1.5.3.4.2.8.4 1.1.8.3.3.5.7.7 1.2.2.4.2.9.2 1.5v5.4H43v-5.1c0-.7-.2-1.3-.5-1.8-.4-.5-.9-.7-1.6-.7s-1.2.2-1.6.7q-.6.75-.6 1.8v5.1H37v-5.1c0-.7-.2-1.3-.5-1.8-.4-.5-.9-.7-1.6-.7s-1.2.2-1.6.7-.5 1.1-.5 1.8v5zM49.6 435.5H48v-13.2h1.6v5.8c0-.1.1-.3.3-.4.1-.2.3-.4.5-.6s.5-.3.8-.5c.3-.1.7-.2 1.2-.2q.75 0 1.5.3t1.2.9c.3.4.6.9.8 1.5s.3 1.2.3 2c0 .7-.1 1.4-.3 2s-.5 1.1-.8 1.5-.8.7-1.2.9q-.75.3-1.5.3c-.4 0-.8-.1-1.2-.2s-.6-.3-.8-.5l-.5-.5c-.1-.2-.2-.3-.3-.4zm-.1-4.4c0 .4.1.9.2 1.2.1.4.3.7.5 1s.5.5.8.7.7.2 1.1.2.7-.1 1-.2c.3-.2.6-.4.8-.7s.4-.6.5-1 .2-.8.2-1.2-.1-.9-.2-1.2c-.1-.4-.3-.7-.5-1s-.5-.5-.8-.7-.7-.2-1-.2c-.4 0-.7.1-1.1.2-.3.2-.6.4-.8.7s-.4.6-.5 1c-.1.3-.2.7-.2 1.2M62.4 426.4c.6 0 1.1.1 1.6.3s.9.5 1.3.9.6.9.8 1.5.3 1.2.3 1.9v.3H60c0 .4.1.8.2 1.1.1.4.3.7.5.9s.5.5.8.6.7.2 1.1.2.7 0 1-.1.5-.2.7-.3.3-.2.4-.4.2-.2.2-.3h1.6c0 .2-.1.4-.3.7l-.6.9c-.3.3-.7.5-1.1.7-.5.2-1.1.3-1.7.3s-1.2-.1-1.8-.4c-.5-.2-1-.6-1.3-1-.4-.4-.6-.9-.8-1.5q-.3-.9-.3-1.8c0-.7.1-1.3.3-1.9s.5-1.1.8-1.5.8-.7 1.3-1c.2 0 .8-.1 1.4-.1m0 1.4c-.7 0-1.2.2-1.6.6s-.6.9-.8 1.6h4.6c-.1-.7-.4-1.3-.8-1.6-.3-.4-.8-.6-1.4-.6M75.2 434c-.1.1-.2.3-.3.5s-.3.4-.5.6-.5.3-.8.5-.7.2-1.1.2q-.75 0-1.5-.3t-1.2-.9c-.3-.4-.6-.9-.8-1.5s-.3-1.2-.3-2c0-.7.1-1.4.3-2s.5-1.1.8-1.5.8-.7 1.2-.9q.75-.3 1.5-.3c.4 0 .8.1 1.1.2s.6.3.8.5.4.4.5.6.2.3.3.4v-5.8h1.6v13.2h-1.6zm0-2.9c0-.4-.1-.9-.2-1.2-.1-.4-.3-.7-.5-1s-.5-.5-.8-.7-.7-.2-1-.2c-.4 0-.7.1-1 .2-.3.2-.6.4-.8.7s-.4.6-.5 1-.2.8-.2 1.2.1.9.2 1.2c.1.4.3.7.5 1s.5.5.8.7.7.2 1 .2c.4 0 .7-.1 1-.2.3-.2.6-.4.8-.7s.4-.6.5-1c.2-.4.2-.8.2-1.2M86.2 434c-.1.1-.2.3-.3.5s-.3.4-.5.6-.5.3-.8.5-.7.2-1.1.2q-.75 0-1.5-.3t-1.2-.9c-.3-.4-.6-.9-.8-1.5s-.3-1.2-.3-2c0-.7.1-1.4.3-2s.5-1.1.8-1.5.8-.7 1.2-.9q.75-.3 1.5-.3c.4 0 .8.1 1.1.2s.6.3.8.5.4.4.5.6.2.3.3.4v-5.8h1.6v13.2h-1.6zm.1-2.9c0-.4-.1-.9-.2-1.2-.1-.4-.3-.7-.5-1s-.5-.5-.8-.7-.7-.2-1-.2c-.4 0-.7.1-1 .2-.3.2-.6.4-.8.7s-.4.6-.5 1-.2.8-.2 1.2.1.9.2 1.2c.1.4.3.7.5 1s.5.5.8.7.7.2 1 .2c.4 0 .7-.1 1-.2.3-.2.6-.4.8-.7s.4-.6.5-1 .2-.8.2-1.2M94.7 426.4c.6 0 1.1.1 1.6.3s.9.5 1.3.9.6.9.8 1.5.3 1.2.3 1.9v.3h-6.4c0 .4.1.8.2 1.1.1.4.3.7.5.9s.5.5.8.6.7.2 1.1.2.7 0 1-.1.5-.2.7-.3.3-.2.4-.4.2-.2.2-.3h1.6c0 .2-.1.4-.3.7l-.6.9c-.3.3-.7.5-1.1.7-.5.2-1.1.3-1.7.3s-1.2-.1-1.8-.4c-.5-.2-1-.6-1.3-1-.4-.4-.6-.9-.8-1.5q-.3-.9-.3-1.8c0-.7.1-1.3.3-1.9s.5-1.1.8-1.5.8-.7 1.3-1c.2 0 .7-.1 1.4-.1m0 1.4c-.7 0-1.2.2-1.6.6s-.6.9-.8 1.6H97c-.1-.7-.4-1.3-.8-1.6q-.6-.6-1.5-.6M103 435.5h-1.6v-8.9h1.6v1.6c.1-.2.2-.3.3-.5s.3-.4.6-.5.5-.3.9-.4.8-.2 1.3-.2h1.7v1.6h-1.9c-1 0-1.8.2-2.2.6s-.7 1-.7 1.7zM18.4 446h4.4c1.1 0 1.9.2 2.5.7s.8 1.2.8 2.1c0 .4-.1.8-.2 1.2q-.15.6-.6.9c-.3.3-.6.4-1 .6s-.9.2-1.4.2h-3.1v4.3h-1.4zm1.3 1.3v3.1h3.1c.6 0 1.1-.1 1.4-.4s.5-.7.5-1.1c0-.5-.2-.9-.5-1.1s-.8-.4-1.4-.4h-3.1zM28.3 445.7h1.3V456h-1.3zM36.7 454.8c0 .1-.1.2-.2.4s-.2.3-.4.4-.4.3-.6.4-.5.1-.9.1-.8-.1-1.2-.2c-.4-.2-.7-.4-.9-.7-.3-.3-.5-.7-.6-1.1s-.2-1-.2-1.5.1-1.1.2-1.5.4-.8.6-1.1c.3-.3.6-.6.9-.7.4-.2.7-.2 1.2-.2.3 0 .6.1.9.2.2.1.4.2.6.4.2.1.3.3.4.4s.2.3.2.4V449H38v6.9h-1.3zm.1-2.3c0-.3 0-.7-.1-1s-.2-.6-.4-.8-.3-.4-.6-.5c-.2-.1-.5-.2-.8-.2s-.6.1-.8.2-.4.3-.6.5-.3.5-.3.8c-.1.3-.1.6-.1 1 0 .3 0 .7.1 1s.2.6.3.8c.2.2.3.4.6.5.2.1.5.2.8.2s.6-.1.8-.2.4-.3.6-.5.3-.5.4-.8.1-.6.1-1M45.3 456h-1.5c-1.5 0-2.3-.8-2.3-2.3v-3.5h-1.8V449h1.8v-3h1.3v3h2.5v1.1h-2.5v3.3c0 .5.1.8.3 1s.5.3 1.1.3h1.2v1.3zM49.2 450.2v5.8H48v-5.8h-1.8V449H48v-1c0-.7.2-1.3.6-1.7s1-.6 1.9-.6h2.3v1.1h-2.2c-.5 0-.8.1-1 .3s-.3.6-.3 1v.9h2.4v1.1h-2.5zM56.1 448.9c.5 0 .9.1 1.3.3s.7.4 1 .8c.3.3.5.7.7 1.1s.2.9.2 1.4-.1 1-.2 1.4-.4.8-.7 1.1-.6.6-1 .8-.8.3-1.3.3-.9-.1-1.3-.3-.7-.4-1-.8c-.3-.3-.5-.7-.7-1.1s-.2-.9-.2-1.4.1-1 .2-1.4c.2-.4.4-.8.7-1.1s.6-.6 1-.8c.3-.2.8-.3 1.3-.3m0 6.1c.3 0 .6-.1.8-.2s.4-.3.6-.5.3-.5.4-.8.1-.6.1-1 0-.7-.1-1-.2-.6-.4-.8-.4-.4-.6-.5-.5-.2-.8-.2-.6.1-.8.2-.4.3-.6.5-.3.5-.4.8-.1.6-.1 1 0 .7.1 1 .2.6.4.8.4.4.6.5.5.2.8.2M62.7 456h-1.3v-7h1.3v1.2c0-.1.1-.3.2-.4l.4-.4c.1-.1.4-.2.7-.3s.6-.1 1-.1h1.3v1.3H65c-.8 0-1.4.1-1.7.4s-.5.7-.5 1.4v3.9zM69.4 456h-1.3v-7h1.3v1.1c.1-.1.1-.3.2-.4s.2-.3.4-.4l.6-.3c.2-.1.5-.1.8-.1.6 0 1.1.1 1.5.4s.7.6.9 1.1c.1-.1.2-.3.3-.5s.3-.3.4-.5.4-.3.6-.4.5-.1.9-.1.8.1 1.1.2.6.3.8.6.4.6.5.9.2.7.2 1.1v4.2h-1.3v-4c0-.6-.1-1-.4-1.4-.3-.3-.7-.5-1.3-.5s-1 .2-1.3.5c-.3.4-.4.8-.4 1.4v4h-1.3v-4c0-.6-.1-1-.4-1.4-.3-.3-.7-.5-1.3-.5s-1 .2-1.3.5-.4.8-.4 1.4v4.1zM88.3 447.1c-.7 0-1.2.1-1.6.4s-.6.6-.6 1.1c0 .2 0 .4.1.6s.2.3.4.4l.6.3c.2.1.5.1.7.2l1.3.2 1.2.3c.4.1.7.3 1 .5s.5.5.7.8.3.8.3 1.3q0 .6-.3 1.2c-.2.4-.4.7-.7 1q-.45.45-1.2.6c-.5.2-1 .2-1.6.2q-1.05 0-1.8-.3c-.5-.2-1-.4-1.3-.7-.4-.3-.6-.6-.9-1-.2-.4-.4-.7-.5-1h1.4c.1.2.2.3.3.5s.3.4.6.5c.2.2.5.3.9.4s.8.2 1.3.2c.7 0 1.3-.2 1.7-.5q.6-.45.6-1.2c0-.3-.1-.5-.2-.7s-.2-.3-.4-.5l-.6-.3c-.2-.1-.5-.1-.8-.2l-1.3-.2c-.4-.1-.9-.2-1.2-.3-.4-.1-.7-.3-1-.5s-.5-.5-.7-.8-.2-.7-.2-1.2c0-.4.1-.8.3-1.1s.4-.6.7-.9c.3-.2.7-.4 1.1-.5s.9-.2 1.4-.2c.6 0 1.2.1 1.7.2q.75.3 1.2.6c.3.2.6.5.8.8s.3.6.4.9h-1.4c-.1-.1-.2-.3-.3-.5s-.3-.3-.5-.4-.5-.2-.8-.3c-.1.2-.4.1-.8.1M96.1 459h-1.3v-10h1.3v1.1c0-.1.1-.2.2-.3s.2-.3.4-.4.4-.3.6-.4.6-.2.9-.2c.4 0 .8.1 1.2.2s.7.4.9.7c.3.3.5.7.6 1.1.2.5.2 1 .2 1.5s-.1 1.1-.2 1.5c-.2.4-.4.8-.6 1.1-.3.3-.6.6-.9.7-.4.2-.7.2-1.2.2-.3 0-.6-.1-.9-.2s-.5-.2-.6-.4c-.2-.1-.3-.3-.4-.4s-.2-.2-.2-.3zm0-6.5c0 .3 0 .7.1 1s.2.6.4.8.4.4.6.5.5.2.8.2.6-.1.8-.2.4-.3.6-.5.3-.5.4-.8.1-.6.1-1c0-.3 0-.7-.1-1s-.2-.6-.4-.8-.4-.4-.6-.5-.5-.2-.8-.2-.6.1-.8.2-.4.3-.6.5-.3.5-.4.8-.1.7-.1 1M106.1 448.9c.5 0 .9.1 1.3.3s.7.4 1 .7.5.7.6 1.1.2.9.2 1.5v.2h-5c0 .3.1.6.2.9s.2.5.4.7.4.4.6.5.5.2.8.2.6 0 .8-.1.4-.2.5-.2l.3-.3c.1-.1.1-.2.1-.2h1.2c0 .1-.1.3-.2.6-.1.2-.3.5-.5.7s-.5.4-.9.6-.8.2-1.4.2c-.5 0-1-.1-1.4-.3s-.7-.4-1-.8c-.3-.3-.5-.7-.7-1.2-.2-.4-.2-.9-.2-1.4s.1-1 .2-1.5.4-.8.6-1.1c.3-.3.6-.6 1-.8.6-.2 1-.3 1.5-.3m0 1.1c-.5 0-.9.2-1.2.5s-.5.7-.6 1.3h3.6c-.1-.5-.3-1-.6-1.3-.3-.4-.7-.5-1.2-.5M115.5 450.8c-.1-.1-.2-.2-.3-.4-.1-.1-.3-.2-.5-.3s-.4-.1-.7-.1-.5.1-.8.2c-.2.1-.4.3-.6.5s-.3.5-.4.8-.1.6-.1 1c0 .3 0 .7.1 1s.2.6.4.8.4.4.6.5.5.2.8.2.5 0 .7-.1.4-.2.5-.3l.3-.3c.1-.1.1-.2.1-.3h1.2c0 .1-.1.3-.2.5s-.3.5-.5.7-.5.5-.9.7-.8.3-1.4.3c-.4 0-.9-.1-1.3-.3s-.7-.4-1-.8c-.3-.3-.5-.7-.7-1.1s-.2-.9-.2-1.4.1-1 .2-1.5c.2-.4.4-.8.7-1.2.3-.3.6-.6 1-.8s.8-.3 1.3-.3c.6 0 1 .1 1.4.3s.7.4.9.7c.2.2.4.5.5.7s.2.4.2.6h-1.2c0-.1 0-.2-.1-.3M118.9 445.7h1.3v2h-1.3zm0 3.3h1.3v6.9h-1.3zM125 450.2v5.8h-1.3v-5.8h-1.8V449h1.8v-1c0-.7.2-1.3.6-1.7s1-.6 1.9-.6h1.7v1.1h-1.5c-.5 0-.8.1-1 .3s-.3.6-.3 1v.9h2.4v1.1H125zM129.1 445.7h1.3v2h-1.3zm0 3.3h1.3v6.9h-1.3zM137.2 450.8c-.1-.1-.2-.2-.3-.4-.1-.1-.3-.2-.5-.3s-.4-.1-.7-.1-.5.1-.8.2c-.2.1-.4.3-.6.5s-.3.5-.4.8-.1.6-.1 1c0 .3 0 .7.1 1s.2.6.4.8.4.4.6.5.5.2.8.2.5 0 .7-.1.4-.2.5-.3l.3-.3c.1-.1.1-.2.1-.3h1.2c0 .1-.1.3-.2.5s-.3.5-.5.7-.5.5-.9.7-.8.3-1.4.3c-.4 0-.9-.1-1.3-.3s-.7-.4-1-.8c-.3-.3-.5-.7-.7-1.1s-.2-.9-.2-1.4.1-1 .2-1.5c.2-.4.4-.8.7-1.2.3-.3.6-.6 1-.8s.8-.3 1.3-.3c.6 0 1 .1 1.4.3s.7.4.9.7c.2.2.4.5.5.7s.2.4.2.6h-1.2c0-.1 0-.2-.1-.3" class="st1"/><path d="M7.6 50.2h846.6v190H7.6zM7.6 240.2h846.6v147.5H7.6zM7.6 387.7h846.6v89.6H7.6z" class="st18"/><path d="M147.3 59.9h349v28.4h-349z" class="st30"/><path d="m290.2 79 3.9-10.2h2.6v12.8H295V70.5l-4.4 11.2h-1.2l-4.3-11.1v11h-1.6V68.8h2.7zM306.2 80.1c-.1.1-.1.3-.3.5-.1.2-.3.4-.5.5s-.5.3-.8.5c-.3.1-.7.2-1.1.2q-.75 0-1.5-.3t-1.2-.9c-.3-.4-.6-.9-.8-1.5s-.3-1.2-.3-2c0-.7.1-1.4.3-2s.5-1.1.8-1.5.7-.7 1.2-.9q.75-.3 1.5-.3c.4 0 .8.1 1.1.2s.6.3.8.5.4.4.5.6.2.3.3.5v-1.5h1.6v8.9h-1.6zm.1-2.9c0-.4-.1-.9-.2-1.2-.1-.4-.3-.7-.5-1s-.4-.5-.7-.7-.6-.2-1-.2-.7.1-1 .2c-.3.2-.5.4-.7.7s-.3.6-.5 1c-.1.4-.2.8-.2 1.2s.1.9.2 1.2.3.7.5 1 .4.5.7.7.6.2 1 .2.7-.1 1-.2.5-.4.7-.7.4-.6.5-1 .2-.8.2-1.2M317.3 81.6h-1.9c-2 0-3-1-3-2.9v-4.5h-2.3v-1.5h2.3v-3.9h1.6v3.9h3.2v1.5H314v4.2c0 .6.1 1.1.4 1.3.2.3.7.4 1.4.4h1.5zM323.3 72.5c.6 0 1.1.1 1.6.3s.9.5 1.3.9.6.9.8 1.5.3 1.2.3 1.9v.3h-6.4c0 .4.1.8.2 1.1.1.4.3.7.5.9.2.3.5.5.8.6s.7.2 1.1.2.7 0 1-.1.5-.2.7-.3.3-.2.4-.4.2-.2.2-.3h1.6c0 .2-.1.4-.3.7-.1.3-.4.6-.6.9s-.7.5-1.1.7c-.5.2-1.1.3-1.7.3s-1.2-.1-1.8-.4c-.5-.2-1-.6-1.3-1-.4-.4-.6-.9-.8-1.5q-.3-.9-.3-1.8c0-.7.1-1.3.3-1.9s.5-1.1.8-1.5.8-.7 1.3-1c.2 0 .8-.1 1.4-.1m0 1.4c-.7 0-1.2.2-1.6.6s-.6.9-.8 1.6h4.6c-.1-.7-.4-1.3-.8-1.6-.3-.4-.8-.6-1.4-.6M331.7 81.6H330v-8.9h1.6v1.6c.1-.2.2-.3.3-.5s.3-.4.6-.5c.2-.2.5-.3.9-.4s.8-.2 1.3-.2h1.7v1.6h-1.9c-1 0-1.8.2-2.2.6s-.7 1-.7 1.7v5zM338.6 68.5h1.7V71h-1.7zm.1 4.2h1.6v8.9h-1.6zM349.5 80.1c-.1.1-.1.3-.3.5-.1.2-.3.4-.5.5s-.5.3-.8.5c-.3.1-.7.2-1.1.2q-.75 0-1.5-.3t-1.2-.9c-.3-.4-.6-.9-.8-1.5s-.3-1.2-.3-2c0-.7.1-1.4.3-2s.5-1.1.8-1.5.7-.7 1.2-.9q.75-.3 1.5-.3c.4 0 .8.1 1.1.2s.6.3.8.5.4.4.5.6.2.3.3.5v-1.5h1.6v8.9h-1.6zm0-2.9c0-.4-.1-.9-.2-1.2-.1-.4-.3-.7-.5-1s-.4-.5-.7-.7-.6-.2-1-.2-.7.1-1 .2c-.3.2-.5.4-.7.7s-.3.6-.5 1c-.1.4-.2.8-.2 1.2s.1.9.2 1.2.3.7.5 1 .4.5.7.7.6.2 1 .2.7-.1 1-.2.5-.4.7-.7.4-.6.5-1 .2-.8.2-1.2M354.5 68.3h1.6v13.2h-1.6z" class="st1"/><path d="M147.3 94.4h690.9v28.4H147.3z" class="st30"/><path d="m474.4 106.1-3.2 10h-1.5l-4-12.9h1.8l3 9.9 3.1-10h1.6l3.1 10.1 2.9-10h1.6l-3.8 12.9h-1.5zM485.3 102.9h1.7v2.5h-1.7zm.1 4.2h1.6v8.9h-1.6zM496.4 114.5c-.1.1-.2.3-.3.5s-.3.4-.5.6-.5.3-.8.5-.7.2-1.1.2q-.75 0-1.5-.3t-1.2-.9c-.45-.6-.6-.9-.8-1.5s-.3-1.2-.3-2c0-.7.1-1.4.3-2s.5-1.1.8-1.5.8-.7 1.2-.9q.75-.3 1.5-.3c.4 0 .8.1 1.1.2s.6.3.8.5.4.4.5.6.2.3.3.5v-5.8h1.6V116h-1.6zm0-2.9c0-.4-.1-.9-.2-1.2-.1-.4-.3-.7-.5-1s-.5-.5-.8-.7-.7-.2-1-.2c-.4 0-.7.1-1 .2-.3.2-.6.4-.8.7s-.4.6-.5 1-.2.8-.2 1.2.1.9.2 1.2c.1.4.3.7.5 1s.5.5.8.7.7.2 1 .2c.4 0 .7-.1 1-.2s.6-.4.8-.7.4-.6.5-1c.2-.4.2-.8.2-1.2M507.3 114.6c0 .1-.1.2-.3.4-.1.2-.3.4-.5.5-.2.2-.5.3-.8.5-.3.1-.7.2-1.1.2q-.75 0-1.5-.3c-.75-.3-.9-.5-1.2-.9s-.6-.9-.8-1.5-.3-1.2-.3-2c0-.7.1-1.4.3-2s.5-1.1.8-1.5.8-.7 1.2-.9 1-.3 1.5-.3c.4 0 .8.1 1.1.2s.6.3.8.5.4.4.5.6.2.3.3.5v-1.5h1.6v8.7c0 .6-.1 1.2-.3 1.7s-.4 1-.8 1.4c-.3.4-.8.7-1.3.9q-.75.3-1.8.3t-1.8-.3c-.5-.2-.9-.4-1.2-.7s-.5-.5-.7-.8c-.1-.3-.2-.5-.2-.7h1.7l.2.2c.1.1.2.2.4.3s.4.2.7.3.6.1 1 .1c.8 0 1.5-.2 1.9-.7q.6-.75.6-2.1zm.1-3c0-.4-.1-.9-.2-1.3s-.3-.7-.5-1-.5-.5-.8-.7-.6-.2-1-.2-.7.1-1 .2c-.3.2-.6.4-.8.7s-.4.6-.5 1-.2.8-.2 1.3c0 .4.1.9.2 1.2.1.4.3.7.5 1s.5.5.8.7.6.2 1 .2.7-.1 1-.2c.3-.2.6-.4.8-.7s.4-.6.5-1c.1-.3.2-.8.2-1.2M515.8 106.9c.6 0 1.1.1 1.6.3s.9.5 1.3.9.6.9.8 1.5.3 1.2.3 1.9v.3h-6.4c0 .4.1.8.2 1.1.1.4.3.7.5.9.2.3.5.5.8.6s.7.2 1.1.2.7 0 1-.1.5-.2.7-.3.3-.2.4-.4.2-.2.2-.3h1.6c0 .2-.1.4-.3.7-.1.3-.4.6-.6.9s-.7.5-1.1.7c-.5.2-1.1.3-1.7.3s-1.2-.1-1.8-.4c-.5-.2-1-.6-1.3-1-.4-.4-.6-.9-.8-1.5q-.3-.9-.3-1.8c0-.7.1-1.3.3-1.9s.5-1.1.8-1.5.8-.7 1.3-1c.2 0 .7-.1 1.4-.1m0 1.4c-.7 0-1.2.2-1.6.6s-.6.9-.8 1.6h4.6c-.1-.7-.4-1.3-.8-1.6-.3-.4-.8-.6-1.4-.6M528.4 116h-1.9c-2 0-3-1-3-2.9v-4.5h-2.3v-1.5h2.3v-3.9h1.6v3.9h3.2v1.5h-3.2v4.2c0 .6.1 1.1.4 1.3.2.3.7.4 1.4.4h1.5zM533.4 112.2c-.9-.1-1.6-.4-2.1-.8-.6-.4-.8-1.1-.8-1.9 0-.4.1-.8.3-1.1s.4-.6.7-.8.7-.4 1.1-.5.9-.2 1.4-.2q1.05 0 1.8.3c.5.2.9.4 1.2.7s.5.5.6.8.2.5.3.7h-1.6l-.2-.2c-.1-.1-.2-.2-.4-.3s-.4-.2-.7-.3-.6-.1-1-.1c-.6 0-1.1.1-1.4.3s-.5.5-.5.8c0 .7.5 1.1 1.6 1.2l1.2.1c1.1.1 1.8.4 2.3.9s.7 1.1.7 1.9c0 .4-.1.7-.2 1.1-.2.3-.4.6-.7.9s-.7.4-1.1.6c-.4.1-.9.2-1.5.2-.8 0-1.4-.1-1.9-.3s-.9-.4-1.3-.7c-.3-.3-.6-.6-.7-.9s-.3-.6-.3-.8h1.7c0 .1.1.2.2.3s.2.3.4.4.5.2.8.4c.3.1.7.2 1.1.2.6 0 1.1-.1 1.4-.3s.5-.5.5-.9-.1-.7-.4-.9c-.2-.2-.6-.3-1.2-.4z" class="st1"/><path d="M147.3 128.8h690.9v28.4H147.3z" class="st30"/><path d="M459.9 137.7h5.8c1.4 0 2.4.3 3.1.9s1.1 1.5 1.1 2.6c0 .9-.2 1.7-.7 2.2-.5.6-1.2.9-2.1 1.1l3.4 5.9h-1.9l-3.3-5.7h-3.6v5.7H460v-12.7zm1.8 1.6v3.8h4c.8 0 1.4-.2 1.8-.5s.6-.8.6-1.4-.2-1.1-.6-1.4-1-.5-1.8-.5zM476.5 141.3c.6 0 1.1.1 1.6.3s.9.5 1.3.9.6.9.8 1.5.3 1.2.3 1.9v.3h-6.4c0 .4.1.8.2 1.1.1.4.3.7.5.9.2.3.5.5.8.6s.7.2 1.1.2.7 0 1-.1.5-.2.7-.3.3-.2.4-.4.2-.2.2-.3h1.6c0 .2-.1.4-.3.7-.1.3-.4.6-.6.9s-.7.5-1.1.7c-.5.2-1.1.3-1.7.3s-1.2-.1-1.8-.4c-.5-.2-1-.6-1.3-1-.4-.4-.6-.9-.8-1.5q-.3-.9-.3-1.8c0-.7.1-1.3.3-1.9s.5-1.1.8-1.5.8-.7 1.3-1c.2.1.8-.1 1.4-.1m0 1.4c-.7 0-1.2.2-1.6.6s-.6.9-.8 1.6h4.6c-.1-.7-.4-1.3-.8-1.6-.2-.4-.7-.6-1.4-.6M484.9 150.5h-1.6v-8.9h1.6v1.5c.1-.2.2-.4.4-.6.1-.2.3-.4.5-.5.2-.2.5-.3.8-.4s.6-.2 1-.2c1 0 1.9.3 2.5 1s.9 1.6.9 2.8v5.3h-1.7v-5c0-.9-.2-1.5-.6-1.9s-.9-.6-1.6-.6-1.3.2-1.7.7c-.4.4-.6 1.1-.6 1.9v4.9zM500.3 149c-.1.1-.2.3-.3.5s-.3.4-.5.6-.5.3-.8.5-.7.2-1.1.2q-.75 0-1.5-.3t-1.2-.9c-.45-.6-.6-.9-.8-1.5s-.3-1.2-.3-2c0-.7.1-1.4.3-2s.5-1.1.8-1.5.8-.7 1.2-.9q.75-.3 1.5-.3c.4 0 .8.1 1.1.2s.6.3.8.5.4.4.5.6.2.3.3.5v-5.8h1.6v13.2h-1.6zm0-3c0-.4-.1-.9-.2-1.2-.1-.4-.3-.7-.5-1s-.5-.5-.8-.7-.7-.2-1-.2c-.4 0-.7.1-1 .2-.3.2-.6.4-.8.7s-.4.6-.5 1-.2.8-.2 1.2.1.9.2 1.2c.1.4.3.7.5 1s.5.5.8.7.7.2 1 .2c.4 0 .7-.1 1-.2s.6-.4.8-.7.4-.6.5-1c.2-.3.2-.7.2-1.2M508.7 141.3c.6 0 1.1.1 1.6.3s.9.5 1.3.9.6.9.8 1.5.3 1.2.3 1.9v.3h-6.4c0 .4.1.8.2 1.1.1.4.3.7.5.9.2.3.5.5.8.6s.7.2 1.1.2.7 0 1-.1.5-.2.7-.3.3-.2.4-.4.2-.2.2-.3h1.6c0 .2-.1.4-.3.7-.1.3-.4.6-.6.9-.3.3-.7.5-1.1.7-.5.2-1.1.3-1.7.3s-1.2-.1-1.8-.4c-.5-.2-1-.6-1.3-1-.4-.4-.6-.9-.8-1.5q-.3-.9-.3-1.8c0-.7.1-1.3.3-1.9s.5-1.1.8-1.5.8-.7 1.3-1c.2.1.8-.1 1.4-.1m0 1.4c-.7 0-1.2.2-1.6.6s-.6.9-.8 1.6h4.6c-.1-.7-.4-1.3-.8-1.6-.3-.4-.8-.6-1.4-.6M517.1 150.5h-1.6v-8.9h1.6v1.6c.1-.2.2-.3.3-.5s.3-.4.6-.5c.2-.2.5-.3.9-.4s.8-.2 1.3-.2h1.7v1.6H520c-1 0-1.8.2-2.2.6s-.7 1-.7 1.7zM524 137.3h1.7v2.5H524zm.1 4.3h1.6v8.9h-1.6zM530.7 150.5H529v-8.9h1.6v1.5c.1-.2.2-.4.4-.6.1-.2.3-.4.5-.5.2-.2.5-.3.8-.4s.6-.2 1-.2c1 0 1.9.3 2.5 1s.9 1.6.9 2.8v5.3H535v-5c0-.9-.2-1.5-.6-1.9s-.9-.6-1.6-.6-1.3.2-1.7.7c-.4.4-.6 1.1-.6 1.9v4.9zM546 149.1c0 .1-.1.2-.3.4-.1.2-.3.4-.5.5-.2.2-.5.3-.8.5-.3.1-.7.2-1.1.2q-.75 0-1.5-.3c-.75-.3-.9-.5-1.2-.9s-.6-.9-.8-1.5-.3-1.2-.3-2c0-.7.1-1.4.3-2s.5-1.1.8-1.5.8-.7 1.2-.9 1-.3 1.5-.3c.4 0 .8.1 1.1.2s.6.3.8.5.4.4.5.6.2.3.3.5v-1.5h1.6v8.7c0 .6-.1 1.2-.3 1.7s-.4 1-.8 1.4c-.3.4-.8.7-1.3.9q-.75.3-1.8.3t-1.8-.3c-.5-.2-.9-.4-1.2-.7s-.5-.5-.7-.8c-.1-.3-.2-.5-.2-.7h1.7l.2.2c.1.1.2.2.4.3s.4.2.7.3.6.1 1 .1c.8 0 1.5-.2 1.9-.7q.6-.75.6-2.1zm0-3.1c0-.4-.1-.9-.2-1.3s-.3-.7-.5-1-.5-.5-.8-.7-.6-.2-1-.2-.7.1-1 .2c-.3.2-.6.4-.8.7s-.4.6-.5 1-.2.8-.2 1.3c0 .4.1.9.2 1.2.1.4.3.7.5 1s.5.5.8.7.6.2 1 .2.7-.1 1-.2c.3-.2.6-.4.8-.7s.4-.6.5-1c.1-.3.2-.7.2-1.2" class="st1"/><path d="M147.3 163.2h226.2v28.4H147.3zM379.7 163.2h226.2v28.4H379.7zM612 163.2h226.2v28.4H612z" class="st30"/><path d="M226.4 181.9h-6.1l-1.3 3h-1.7l5.3-12.9h1.5l5.3 12.9h-1.8zm-.7-1.7-2.4-5.8-2.4 5.8zM233.3 184.9h-1.6V176h1.6v1.5c.1-.2.2-.4.4-.6.1-.2.3-.4.5-.5.2-.2.5-.3.8-.4s.6-.2 1-.2c1 0 1.9.3 2.5 1s.9 1.6.9 2.8v5.3h-1.7v-5c0-.9-.2-1.5-.6-1.9s-.9-.6-1.6-.6-1.3.2-1.7.7c-.4.4-.6 1.1-.6 1.9v4.9zM242.7 171.8h1.7v2.5h-1.7zm0 4.2h1.6v8.9h-1.6zM249.3 184.9h-1.6V176h1.6v1.4c.1-.2.2-.3.3-.5s.3-.4.5-.5.5-.3.7-.4c.3-.1.6-.2 1-.2.7 0 1.4.2 1.9.5s.9.8 1.2 1.4c.1-.2.2-.4.4-.6q.15-.3.6-.6c.2-.2.5-.4.8-.5s.7-.2 1.1-.2c.6 0 1 .1 1.5.3.4.2.8.4 1.1.8.3.3.5.7.7 1.2s.2.9.2 1.5v5.4h-1.7v-5.1c0-.7-.2-1.3-.5-1.8-.4-.5-.9-.7-1.6-.7s-1.2.2-1.6.7q-.6.75-.6 1.8v5.1h-1.7v-5.1c0-.7-.2-1.3-.5-1.8-.4-.5-.9-.7-1.6-.7s-1.2.2-1.6.7-.5 1.1-.5 1.8v5zM270.4 183.4c-.1.1-.1.3-.3.5-.1.2-.3.4-.5.5s-.5.3-.8.5c-.3.1-.7.2-1.1.2q-.75 0-1.5-.3t-1.2-.9c-.3-.4-.6-.9-.8-1.5s-.3-1.2-.3-2c0-.7.1-1.4.3-2s.5-1.1.8-1.5.7-.7 1.2-.9q.75-.3 1.5-.3c.4 0 .8.1 1.1.2s.6.3.8.5.4.4.5.6.2.3.3.5V176h1.6v8.9h-1.6zm0-2.9c0-.4-.1-.9-.2-1.2-.1-.4-.3-.7-.5-1s-.4-.5-.7-.7-.6-.2-1-.2-.7.1-1 .2c-.3.2-.5.4-.7.7s-.3.6-.5 1c-.1.4-.2.8-.2 1.2s.1.9.2 1.2.3.7.5 1 .4.5.7.7.6.2 1 .2.7-.1 1-.2.5-.4.7-.7.4-.6.5-1 .2-.8.2-1.2M281.4 184.9h-1.9c-2 0-3-1-3-2.9v-4.5h-2.3V176h2.3v-3.9h1.6v3.9h3.2v1.5h-3.2v4.2c0 .6.1 1.1.4 1.3.2.3.7.4 1.4.4h1.5zM283.9 171.8h1.7v2.5h-1.7zm.1 4.2h1.6v8.9H284zM292.5 175.8c.6 0 1.2.1 1.7.4.5.2 1 .6 1.3 1 .4.4.6.9.8 1.5q.3.9.3 1.8 0 1.05-.3 1.8c-.2.6-.5 1.1-.8 1.5-.4.4-.8.7-1.3 1-.5.2-1.1.4-1.7.4s-1.2-.1-1.7-.4c-.5-.2-.9-.6-1.3-1s-.6-.9-.8-1.5q-.3-.9-.3-1.8 0-1.05.3-1.8c.2-.6.5-1.1.8-1.5.4-.4.8-.7 1.3-1s1.1-.4 1.7-.4m0 7.8c.4 0 .8-.1 1.1-.2.3-.2.6-.4.8-.7s.4-.6.5-1 .2-.8.2-1.2-.1-.8-.2-1.2-.3-.7-.5-1-.5-.5-.8-.7-.7-.2-1.1-.2-.8.1-1.1.2-.6.4-.8.7-.4.6-.5 1-.2.8-.2 1.2.1.8.2 1.2.3.7.5 1 .5.5.8.7.7.2 1.1.2M301.1 184.9h-1.6V176h1.6v1.5c.1-.2.2-.4.4-.6.1-.2.3-.4.5-.5.2-.2.5-.3.8-.4s.6-.2 1-.2c1 0 1.9.3 2.5 1s.9 1.6.9 2.8v5.3h-1.7v-5c0-.9-.2-1.5-.6-1.9s-.9-.6-1.6-.6-1.3.2-1.7.7c-.4.4-.6 1.1-.6 1.9v4.9zM461 172.1h5.7c1.4 0 2.5.3 3.2.9s1.1 1.5 1.1 2.6q0 .75-.3 1.5c-.3.75-.5.8-.8 1.2s-.8.6-1.3.7q-.75.3-1.8.3h-4v5.5H461zm1.7 1.6v4h4q1.2 0 1.8-.6c.6-.6.6-.9.6-1.4q0-.9-.6-1.5c-.6-.6-1-.5-1.8-.5zM478.9 183.4c-.1.1-.1.3-.3.5-.1.2-.3.4-.5.5s-.5.3-.8.5c-.3.1-.7.2-1.1.2q-.75 0-1.5-.3t-1.2-.9c-.3-.4-.6-.9-.8-1.5s-.3-1.2-.3-2c0-.7.1-1.4.3-2s.5-1.1.8-1.5.7-.7 1.2-.9q.75-.3 1.5-.3c.4 0 .8.1 1.1.2s.6.3.8.5.4.4.5.6.2.3.3.5V176h1.6v8.9h-1.6zm0-2.9c0-.4-.1-.9-.2-1.2-.1-.4-.3-.7-.5-1s-.4-.5-.7-.7-.6-.2-1-.2-.7.1-1 .2c-.3.2-.5.4-.7.7s-.3.6-.5 1c-.1.4-.2.8-.2 1.2s.1.9.2 1.2.3.7.5 1 .4.5.7.7.6.2 1 .2.7-.1 1-.2.5-.4.7-.7.4-.6.5-1 .2-.8.2-1.2M483.8 171.8h1.7v2.5h-1.7zm.1 4.2h1.6v8.9h-1.6zM490.5 184.9h-1.6V176h1.6v1.5c.1-.2.2-.4.4-.6.1-.2.3-.4.5-.5.2-.2.5-.3.8-.4s.6-.2 1-.2c1 0 1.9.3 2.5 1s.9 1.6.9 2.8v5.3h-1.7v-5c0-.9-.2-1.5-.6-1.9s-.9-.6-1.6-.6-1.3.2-1.7.7c-.4.4-.6 1.1-.6 1.9v4.9zM505.6 184.9h-1.9c-2 0-3-1-3-2.9v-4.5h-2.3V176h2.3v-3.9h1.6v3.9h3.2v1.5h-3.2v4.2c0 .6.1 1.1.4 1.3.2.3.7.4 1.4.4h1.5zM508.2 171.8h1.7v2.5h-1.7zm0 4.2h1.6v8.9h-1.6zM514.8 184.9h-1.6V176h1.6v1.5c.1-.2.2-.4.4-.6.1-.2.3-.4.5-.5.2-.2.5-.3.8-.4s.6-.2 1-.2c1 0 1.9.3 2.5 1s.9 1.6.9 2.8v5.3h-1.7v-5c0-.9-.2-1.5-.6-1.9s-.9-.6-1.6-.6-1.3.2-1.7.7c-.4.4-.6 1.1-.6 1.9v4.9zM530.1 183.5c0 .1-.1.2-.3.4-.1.2-.3.4-.5.5-.2.2-.5.3-.8.5-.3.1-.7.2-1.1.2q-.75 0-1.5-.3c-.75-.3-.9-.5-1.2-.9s-.6-.9-.8-1.5-.3-1.2-.3-2c0-.7.1-1.4.3-2s.5-1.1.8-1.5.8-.7 1.2-.9 1-.3 1.5-.3c.4 0 .8.1 1.1.2s.6.3.8.5.4.4.5.6.2.3.3.5V176h1.6v8.7c0 .6-.1 1.2-.3 1.7s-.4 1-.8 1.4c-.3.4-.8.7-1.3.9q-.75.3-1.8.3t-1.8-.3c-.5-.2-.9-.4-1.2-.7s-.5-.5-.7-.8c-.1-.3-.2-.5-.2-.7h1.7l.2.2c.1.1.2.2.4.3s.4.2.7.3.6.1 1 .1c.8 0 1.5-.2 1.9-.7q.6-.75.6-2.1zm0-3c0-.4-.1-.9-.2-1.3s-.3-.7-.5-1-.5-.5-.8-.7-.6-.2-1-.2-.7.1-1 .2c-.3.2-.6.4-.8.7s-.4.6-.5 1-.2.8-.2 1.3c0 .4.1.9.2 1.2.1.4.3.7.5 1s.5.5.8.7.6.2 1 .2.7-.1 1-.2c.3-.2.6-.4.8-.7s.4-.6.5-1c.2-.4.2-.8.2-1.2M699.8 184c-.3.2-.7.4-1.1.5-.4.2-.9.3-1.4.4s-1.1.2-1.7.2c-.9 0-1.8-.2-2.5-.5-.8-.3-1.4-.8-2-1.4-.5-.6-1-1.3-1.2-2.1-.3-.8-.4-1.7-.4-2.7 0-.9.1-1.8.4-2.6s.7-1.5 1.2-2.1 1.1-1 1.8-1.4c.7-.3 1.5-.5 2.4-.5.8 0 1.6.1 2.2.4s1.1.5 1.5.9c.4.3.7.7.9 1.1s.4.7.4 1h-1.8c-.1-.1-.2-.3-.4-.5s-.4-.4-.6-.5c-.3-.2-.6-.3-.9-.4-.4-.1-.8-.2-1.3-.2-.6 0-1.2.1-1.7.4s-.9.6-1.3 1.1c-.3.4-.6 1-.8 1.6s-.3 1.3-.3 2 .1 1.4.3 2 .5 1.1.9 1.6c.4.4.8.8 1.4 1s1.1.4 1.8.4c.8 0 1.5-.1 2-.3s1-.4 1.2-.6v-3.4h-4.2v-1.6h5.9v5.7c-.1.1-.4.3-.7.5M707.4 175.8c.6 0 1.1.1 1.6.3s.9.5 1.3.9.6.9.8 1.5.3 1.2.3 1.9v.3H705c0 .4.1.8.2 1.1.1.4.3.7.5.9.2.3.5.5.8.6s.7.2 1.1.2.7 0 1-.1.5-.2.7-.3.3-.2.4-.4.2-.2.2-.3h1.6c0 .2-.1.4-.3.7-.1.3-.4.6-.6.9s-.7.5-1.1.7c-.5.2-1.1.3-1.7.3s-1.2-.1-1.8-.4c-.5-.2-1-.6-1.3-1-.4-.4-.6-.9-.8-1.5q-.3-.9-.3-1.8c0-.7.1-1.3.3-1.9s.5-1.1.8-1.5.8-.7 1.3-1c.2 0 .8-.1 1.4-.1m0 1.4c-.7 0-1.2.2-1.6.6s-.6.9-.8 1.6h4.6c-.1-.7-.4-1.3-.8-1.6-.2-.4-.8-.6-1.4-.6M716.6 181.1c-.9-.1-1.6-.4-2.1-.8-.6-.4-.8-1.1-.8-1.9 0-.4.1-.8.3-1.1s.4-.6.7-.8.7-.4 1.1-.5.9-.2 1.4-.2q1.05 0 1.8.3c.5.2.9.4 1.2.7s.5.5.6.8.2.5.3.7h-1.6l-.2-.2c-.1-.1-.2-.2-.4-.3s-.4-.2-.7-.3-.6-.1-1-.1c-.6 0-1.1.1-1.4.3s-.5.5-.5.8c0 .7.5 1.1 1.6 1.2l1.2.1c1.1.1 1.8.4 2.3.9s.7 1.1.7 1.9c0 .4-.1.7-.2 1.1-.2.3-.4.6-.7.9s-.7.4-1.1.6c-.4.1-.9.2-1.5.2-.8 0-1.4-.1-1.9-.3s-.9-.4-1.3-.7c-.3-.3-.6-.6-.7-.9s-.3-.6-.3-.8h1.7c0 .1.1.2.2.3s.2.3.4.4.5.2.8.4c.3.1.7.2 1.1.2.6 0 1.1-.1 1.4-.3s.5-.5.5-.9-.1-.7-.4-.9c-.2-.2-.6-.3-1.2-.4zM729.8 184.9h-1.9c-2 0-3-1-3-2.9v-4.5h-2.3V176h2.3v-3.9h1.6v3.9h3.2v1.5h-3.2v4.2c0 .6.1 1.1.4 1.3.2.3.7.4 1.4.4h1.5zM736.1 185.1c-.6 0-1.2-.1-1.7-.3s-.9-.4-1.2-.8-.6-.7-.7-1.2c-.2-.5-.2-1-.2-1.5V176h1.7v5.3c0 .7.2 1.2.5 1.6.4.4.9.6 1.6.6s1.2-.2 1.6-.6.6-1 .6-1.6V176h1.6v5.4c0 .5-.1 1-.2 1.4s-.4.8-.7 1.2-.7.6-1.2.8-1.1.3-1.7.3M744.8 184.9h-1.6V176h1.6v1.6c.1-.2.2-.3.3-.5s.3-.4.6-.5c.2-.2.5-.3.9-.4s.8-.2 1.3-.2h1.7v1.6h-1.9c-1 0-1.8.2-2.2.6s-.7 1-.7 1.7zM755.1 175.8c.6 0 1.1.1 1.6.3s.9.5 1.3.9.6.9.8 1.5.3 1.2.3 1.9v.3h-6.4c0 .4.1.8.2 1.1.1.4.3.7.5.9.2.3.5.5.8.6s.7.2 1.1.2.7 0 1-.1.5-.2.7-.3.3-.2.4-.4.2-.2.2-.3h1.6c0 .2-.1.4-.3.7-.1.3-.4.6-.6.9s-.7.5-1.1.7c-.5.2-1.1.3-1.7.3s-1.2-.1-1.8-.4c-.5-.2-1-.6-1.3-1-.4-.4-.6-.9-.8-1.5q-.3-.9-.3-1.8c0-.7.1-1.3.3-1.9s.5-1.1.8-1.5.8-.7 1.3-1c.3 0 .8-.1 1.4-.1m0 1.4c-.7 0-1.2.2-1.6.6s-.6.9-.8 1.6h4.6c-.1-.7-.4-1.3-.8-1.6-.2-.4-.7-.6-1.4-.6M764.4 181.1c-.9-.1-1.6-.4-2.1-.8-.6-.4-.8-1.1-.8-1.9 0-.4.1-.8.3-1.1s.4-.6.7-.8.7-.4 1.1-.5.9-.2 1.4-.2q1.05 0 1.8.3c.5.2.9.4 1.2.7s.5.5.6.8.2.5.3.7h-1.6l-.2-.2c-.1-.1-.2-.2-.4-.3s-.4-.2-.7-.3-.6-.1-1-.1c-.6 0-1.1.1-1.4.3s-.5.5-.5.8c0 .7.5 1.1 1.6 1.2l1.2.1c1.1.1 1.8.4 2.3.9s.7 1.1.7 1.9c0 .4-.1.7-.2 1.1-.2.3-.4.6-.7.9s-.7.4-1.1.6c-.4.1-.9.2-1.5.2-.8 0-1.4-.1-1.9-.3s-.9-.4-1.3-.7c-.3-.3-.6-.6-.7-.9s-.3-.6-.3-.8h1.7c0 .1.1.2.2.3s.2.3.4.4.5.2.8.4c.3.1.7.2 1.1.2.6 0 1.1-.1 1.4-.3s.5-.5.5-.9-.1-.7-.4-.9c-.2-.2-.6-.3-1.2-.4z" class="st1"/><path d="M147.3 197.7h690.9v28.4H147.3z" class="st30"/><path d="M446.7 206.6h9.7v1.6h-8v3.6h4.6v1.6h-4.6v6h-1.7zM461.8 210.2c.6 0 1.2.1 1.7.4.5.2 1 .6 1.3 1 .4.4.6.9.8 1.5q.3.9.3 1.8 0 1.05-.3 1.8c-.2.6-.5 1.1-.8 1.5-.4.4-.8.7-1.3 1-.5.2-1.1.4-1.7.4s-1.2-.1-1.7-.4c-.5-.2-.9-.6-1.3-1s-.6-.9-.8-1.5q-.3-.9-.3-1.8 0-1.05.3-1.8c.2-.6.5-1.1.8-1.5.4-.4.8-.7 1.3-1s1.1-.4 1.7-.4m0 7.8c.4 0 .8-.1 1.1-.2.3-.2.6-.4.8-.7s.4-.6.5-1 .2-.8.2-1.2-.1-.8-.2-1.2-.3-.7-.5-1-.5-.5-.8-.7-.7-.2-1.1-.2-.8.1-1.1.2-.6.4-.8.7-.4.6-.5 1-.2.8-.2 1.2.1.8.2 1.2.3.7.5 1 .5.5.8.7.7.2 1.1.2M472.5 219.5c-.6 0-1.2-.1-1.7-.3s-.9-.4-1.2-.8-.6-.7-.7-1.2c-.2-.5-.2-1-.2-1.5v-5.4h1.7v5.3c0 .7.2 1.2.5 1.6.4.4.9.6 1.6.6s1.2-.2 1.6-.6.6-1 .6-1.6v-5.3h1.6v5.4c0 .5-.1 1-.2 1.4s-.4.8-.7 1.2-.7.6-1.2.8c-.5.3-1.1.4-1.7.4M481.2 219.3h-1.6v-8.9h1.6v1.5c.1-.2.2-.4.4-.6.1-.2.3-.4.5-.5.2-.2.5-.3.8-.4s.6-.2 1-.2c1 0 1.9.3 2.5 1s.9 1.6.9 2.8v5.3h-1.7v-5c0-.9-.2-1.5-.6-1.9s-.9-.6-1.6-.6-1.3.2-1.7.7c-.4.4-.6 1.1-.6 1.9v4.9zM496.6 217.8c-.1.1-.2.3-.3.5s-.3.4-.5.6-.5.3-.8.5-.7.2-1.1.2q-.75 0-1.5-.3t-1.2-.9c-.45-.6-.6-.9-.8-1.5s-.3-1.2-.3-2c0-.7.1-1.4.3-2s.5-1.1.8-1.5.8-.7 1.2-.9q.75-.3 1.5-.3c.4 0 .8.1 1.1.2s.6.3.8.5.4.4.5.6.2.3.3.5v-5.8h1.6v13.2h-1.6zm0-2.9c0-.4-.1-.9-.2-1.2-.1-.4-.3-.7-.5-1s-.5-.5-.8-.7-.7-.2-1-.2c-.4 0-.7.1-1 .2-.3.2-.6.4-.8.7s-.4.6-.5 1-.2.8-.2 1.2.1.9.2 1.2c.1.4.3.7.5 1s.5.5.8.7.7.2 1 .2c.4 0 .7-.1 1-.2s.6-.4.8-.7.4-.6.5-1 .2-.8.2-1.2M507.4 217.9c-.1.1-.1.3-.3.5-.1.2-.3.4-.5.5s-.5.3-.8.5c-.3.1-.7.2-1.1.2q-.75 0-1.5-.3t-1.2-.9c-.3-.4-.6-.9-.8-1.5s-.3-1.2-.3-2c0-.7.1-1.4.3-2s.5-1.1.8-1.5.7-.7 1.2-.9q.75-.3 1.5-.3c.4 0 .8.1 1.1.2s.6.3.8.5.4.4.5.6.2.3.3.5v-1.5h1.6v8.9h-1.6zm0-3c0-.4-.1-.9-.2-1.2-.1-.4-.3-.7-.5-1s-.4-.5-.7-.7-.6-.2-1-.2-.7.1-1 .2c-.3.2-.5.4-.7.7s-.3.6-.5 1c-.1.4-.2.8-.2 1.2s.1.9.2 1.2.3.7.5 1 .4.5.7.7.6.2 1 .2.7-.1 1-.2.5-.4.7-.7.4-.6.5-1 .2-.8.2-1.2M518.4 219.3h-1.9c-2 0-3-1-3-2.9v-4.5h-2.3v-1.5h2.3v-3.9h1.6v3.9h3.2v1.5h-3.2v4.2c0 .6.1 1.1.4 1.3.2.3.7.4 1.4.4h1.5zM521 206.2h1.7v2.5H521zm0 4.2h1.6v8.9H521zM529.6 210.2c.6 0 1.2.1 1.7.4.5.2 1 .6 1.3 1 .4.4.6.9.8 1.5q.3.9.3 1.8 0 1.05-.3 1.8c-.2.6-.5 1.1-.8 1.5-.4.4-.8.7-1.3 1-.5.2-1.1.4-1.7.4s-1.2-.1-1.7-.4c-.5-.2-.9-.6-1.3-1s-.6-.9-.8-1.5q-.3-.9-.3-1.8 0-1.05.3-1.8c.2-.6.5-1.1.8-1.5.4-.4.8-.7 1.3-1 .4-.3 1-.4 1.7-.4m0 7.8c.4 0 .8-.1 1.1-.2.3-.2.6-.4.8-.7s.4-.6.5-1 .2-.8.2-1.2-.1-.8-.2-1.2-.3-.7-.5-1-.5-.5-.8-.7-.7-.2-1.1-.2-.8.1-1.1.2-.6.4-.8.7-.4.6-.5 1-.2.8-.2 1.2.1.8.2 1.2.3.7.5 1 .5.5.8.7.7.2 1.1.2M538.1 219.3h-1.6v-8.9h1.6v1.5c.1-.2.2-.4.4-.6.1-.2.3-.4.5-.5.2-.2.5-.3.8-.4s.6-.2 1-.2c1 0 1.9.3 2.5 1s.9 1.6.9 2.8v5.3h-1.7v-5c0-.9-.2-1.5-.6-1.9s-.9-.6-1.6-.6-1.3.2-1.7.7c-.4.4-.6 1.1-.6 1.9v4.9z" class="st1"/><path d="M147.3 248.9h226.2v28.4H147.3z" class="st16"/><path d="M193 259.2c-.9 0-1.6.2-2.1.5s-.7.8-.7 1.4c0 .3.1.6.2.8s.3.4.5.5.5.3.8.4.6.2 1 .2l1.7.3c.5.1 1 .2 1.5.4s.9.4 1.3.6c.4.3.7.6.9 1.1s.4 1 .4 1.6q0 .75-.3 1.5t-.9 1.2c-.4.4-.9.6-1.5.8s-1.3.3-2 .3q-1.35 0-2.4-.3c-.7-.2-1.2-.5-1.7-.9s-.8-.8-1.1-1.2-.5-.9-.6-1.3h1.9c.1.2.2.4.4.7s.4.5.7.7.7.4 1.1.5c.5.1 1 .2 1.6.2.9 0 1.6-.2 2.2-.6.5-.4.8-.9.8-1.6 0-.4-.1-.7-.2-.9s-.3-.4-.5-.6-.5-.3-.8-.4-.6-.2-1-.2l-1.7-.3c-.6-.1-1.1-.2-1.6-.4s-.9-.4-1.3-.7-.6-.6-.8-1q-.3-.6-.3-1.5 0-.75.3-1.5c.2-.4.5-.8.9-1.1s.9-.5 1.4-.7c.6-.2 1.2-.2 1.8-.2.8 0 1.5.1 2.2.3.6.2 1.1.5 1.5.8s.8.7 1 1.1.4.8.5 1.2h-1.8c-.1-.2-.2-.4-.4-.6s-.4-.4-.7-.5-.6-.3-1-.4c-.3-.1-.7-.2-1.2-.2M204.8 261.5c.6 0 1.1.1 1.6.3s.9.5 1.3.9.6.9.8 1.5.3 1.2.3 1.9v.3h-6.4c0 .4.1.8.2 1.1.1.4.3.7.5.9.2.3.5.5.8.6s.7.2 1.1.2.7 0 1-.1.5-.2.7-.3.3-.2.4-.4.2-.2.2-.3h1.6c0 .2-.1.4-.3.7-.1.3-.4.6-.6.9s-.7.5-1.1.7c-.5.2-1.1.3-1.7.3s-1.2-.1-1.8-.4c-.5-.2-1-.6-1.3-1-.4-.4-.6-.9-.8-1.5q-.3-.9-.3-1.8c0-.7.1-1.3.3-1.9s.5-1.1.8-1.5.8-.7 1.3-1c.3 0 .8-.1 1.4-.1m0 1.4c-.7 0-1.2.2-1.6.6s-.6.9-.8 1.6h4.6c-.1-.7-.4-1.3-.8-1.6-.2-.4-.7-.6-1.4-.6M213.2 270.6h-1.6v-8.9h1.6v1.6c.1-.2.2-.3.3-.5s.3-.4.6-.5c.2-.2.5-.3.9-.4s.8-.2 1.3-.2h1.7v1.6h-1.9c-1 0-1.8.2-2.2.6s-.7 1-.7 1.7zM224.1 270.7h-1.5l-3.7-9.1h1.8l2.6 6.7 2.6-6.7h1.7zM229.8 257.4h1.7v2.5h-1.7zm0 4.3h1.6v8.9h-1.6zM240.2 264c-.1-.2-.2-.3-.4-.5s-.4-.3-.6-.4c-.3-.1-.6-.2-.9-.2-.4 0-.7.1-1 .2-.3.2-.5.4-.7.7s-.4.6-.5 1-.2.8-.2 1.2.1.9.2 1.2c.1.4.3.7.5 1s.5.5.7.7.6.2 1 .2.7-.1.9-.2c.3-.1.5-.2.6-.4.2-.1.3-.3.4-.4s.2-.3.2-.3h1.6c0 .1-.1.4-.2.7s-.3.6-.6 1c-.3.3-.7.6-1.1.8-.5.2-1.1.4-1.8.4-.6 0-1.1-.1-1.6-.4-.5-.2-.9-.6-1.3-1q-.6-.6-.9-1.5c-.2-.6-.3-1.2-.3-1.9s.1-1.3.3-1.9.5-1.1.8-1.5.8-.7 1.3-1c.5-.2 1-.4 1.6-.4.7 0 1.3.1 1.8.4.5.2.8.5 1.1.8s.5.6.6 1 .2.6.2.7h-1.6c.1.3 0 .1-.1 0M247.9 261.5c.6 0 1.1.1 1.6.3s.9.5 1.3.9.6.9.8 1.5.3 1.2.3 1.9v.3h-6.4c0 .4.1.8.2 1.1.1.4.3.7.5.9.2.3.5.5.8.6s.7.2 1.1.2.7 0 1-.1.5-.2.7-.3.3-.2.4-.4.2-.2.2-.3h1.6c0 .2-.1.4-.3.7-.1.3-.4.6-.6.9s-.7.5-1.1.7c-.5.2-1.1.3-1.7.3s-1.2-.1-1.8-.4c-.5-.2-1-.6-1.3-1-.4-.4-.6-.9-.8-1.5q-.3-.9-.3-1.8c0-.7.1-1.3.3-1.9s.5-1.1.8-1.5.8-.7 1.3-1c.2 0 .8-.1 1.4-.1m0 1.4c-.7 0-1.2.2-1.6.6s-.6.9-.8 1.6h4.6c-.1-.7-.4-1.3-.8-1.6-.2-.4-.7-.6-1.4-.6M259.7 257.8h5.7c1.4 0 2.5.3 3.2.9s1.1 1.5 1.1 2.6q0 .75-.3 1.5c-.3.75-.5.8-.8 1.2s-.8.6-1.3.7q-.75.3-1.8.3h-4v5.5h-1.7v-12.7zm1.8 1.6v4h4q1.2 0 1.8-.6c.6-.6.6-.9.6-1.4q0-.9-.6-1.5c-.6-.6-1-.5-1.8-.5zM273.8 270.6h-1.6v-8.9h1.6v1.6c.1-.2.2-.3.3-.5s.3-.4.6-.5c.2-.2.5-.3.9-.4s.8-.2 1.3-.2h1.7v1.6h-1.9c-1 0-1.8.2-2.2.6s-.7 1-.7 1.7zM284.3 261.5c.6 0 1.2.1 1.7.4.5.2 1 .6 1.3 1 .4.4.6.9.8 1.5q.3.9.3 1.8 0 1.05-.3 1.8c-.2.6-.5 1.1-.8 1.5-.4.4-.8.7-1.3 1-.5.2-1.1.4-1.7.4s-1.2-.1-1.7-.4c-.5-.2-.9-.6-1.3-1s-.6-.9-.8-1.5q-.3-.9-.3-1.8 0-1.05.3-1.8c.2-.6.5-1.1.8-1.5.4-.4.8-.7 1.3-1s1-.4 1.7-.4m0 7.8c.4 0 .8-.1 1.1-.2.3-.2.6-.4.8-.7s.4-.6.5-1 .2-.8.2-1.2-.1-.8-.2-1.2-.3-.7-.5-1-.5-.5-.8-.7-.7-.2-1.1-.2-.8.1-1.1.2-.6.4-.8.7-.4.6-.5 1-.2.8-.2 1.2.1.8.2 1.2.3.7.5 1 .5.5.8.7.7.2 1.1.2M297.2 270.6h-1.9c-2 0-3-1-3-2.9v-4.5H290v-1.5h2.3v-3.9h1.6v3.9h3.2v1.5H294v4.2c0 .6.1 1.1.4 1.3.2.3.7.4 1.4.4h1.5v1.5zM303.3 261.5c.6 0 1.2.1 1.7.4.5.2 1 .6 1.3 1 .4.4.6.9.8 1.5q.3.9.3 1.8 0 1.05-.3 1.8c-.2.6-.5 1.1-.8 1.5-.4.4-.8.7-1.3 1-.5.2-1.1.4-1.7.4s-1.2-.1-1.7-.4c-.5-.2-.9-.6-1.3-1s-.6-.9-.8-1.5q-.3-.9-.3-1.8 0-1.05.3-1.8c.2-.6.5-1.1.8-1.5.4-.4.8-.7 1.3-1s1.1-.4 1.7-.4m0 7.8c.4 0 .8-.1 1.1-.2.3-.2.6-.4.8-.7s.4-.6.5-1 .2-.8.2-1.2-.1-.8-.2-1.2-.3-.7-.5-1-.5-.5-.8-.7-.7-.2-1.1-.2-.8.1-1.1.2-.6.4-.8.7-.4.6-.5 1-.2.8-.2 1.2.1.8.2 1.2.3.7.5 1 .5.5.8.7.7.2 1.1.2M315.7 264c-.1-.2-.2-.3-.4-.5s-.4-.3-.6-.4c-.3-.1-.6-.2-.9-.2-.4 0-.7.1-1 .2-.3.2-.5.4-.7.7s-.4.6-.5 1-.2.8-.2 1.2.1.9.2 1.2c.1.4.3.7.5 1s.5.5.7.7.6.2 1 .2.7-.1.9-.2c.3-.1.5-.2.6-.4.2-.1.3-.3.4-.4s.2-.3.2-.3h1.6c0 .1-.1.4-.2.7s-.3.6-.6 1c-.3.3-.7.6-1.1.8-.5.2-1.1.4-1.8.4-.6 0-1.1-.1-1.6-.4-.5-.2-.9-.6-1.3-1q-.6-.6-.9-1.5c-.2-.6-.3-1.2-.3-1.9s.1-1.3.3-1.9.5-1.1.8-1.5.8-.7 1.3-1c.5-.2 1-.4 1.6-.4.7 0 1.3.1 1.8.4.5.2.8.5 1.1.8s.5.6.6 1 .2.6.2.7h-1.6c0 .3 0 .1-.1 0M323.5 261.5c.6 0 1.2.1 1.7.4.5.2 1 .6 1.3 1 .4.4.6.9.8 1.5q.3.9.3 1.8 0 1.05-.3 1.8c-.2.6-.5 1.1-.8 1.5-.4.4-.8.7-1.3 1-.5.2-1.1.4-1.7.4s-1.2-.1-1.7-.4c-.5-.2-.9-.6-1.3-1s-.6-.9-.8-1.5q-.3-.9-.3-1.8 0-1.05.3-1.8c.2-.6.5-1.1.8-1.5.4-.4.8-.7 1.3-1s1.1-.4 1.7-.4m0 7.8c.4 0 .8-.1 1.1-.2.3-.2.6-.4.8-.7s.4-.6.5-1 .2-.8.2-1.2-.1-.8-.2-1.2-.3-.7-.5-1-.5-.5-.8-.7-.7-.2-1.1-.2-.8.1-1.1.2-.6.4-.8.7-.4.6-.5 1-.2.8-.2 1.2.1.8.2 1.2.3.7.5 1 .5.5.8.7.7.2 1.1.2M330.5 257.3h1.6v13.2h-1.6z" class="st4"/><path d="M147.3 281h226.2v28.4H147.3z" class="st16"/><path d="M179.7 289.9h4.3c1 0 1.9.1 2.7.4s1.5.7 2.1 1.3 1 1.2 1.3 2 .5 1.7.5 2.6c0 1-.2 1.8-.5 2.6s-.7 1.5-1.3 2c-.6.6-1.2 1-2.1 1.3-.8.3-1.7.5-2.7.5h-4.3zm1.8 1.6v9.5h2.5c.7 0 1.4-.1 2-.3s1.1-.5 1.5-1q.6-.6.9-1.5c.2-.6.3-1.2.3-2 0-1.5-.4-2.7-1.3-3.5-.8-.8-2-1.3-3.5-1.3h-2.4zM199.3 301.2c-.1.1-.1.3-.3.5-.1.2-.3.4-.5.5s-.5.3-.8.5c-.3.1-.7.2-1.1.2q-.75 0-1.5-.3t-1.2-.9c-.3-.4-.6-.9-.8-1.5s-.3-1.2-.3-2c0-.7.1-1.4.3-2s.5-1.1.8-1.5.7-.7 1.2-.9q.75-.3 1.5-.3c.4 0 .8.1 1.1.2s.6.3.8.5.4.4.5.6.2.3.3.5v-1.5h1.6v8.9h-1.6zm0-3c0-.4-.1-.9-.2-1.2-.1-.4-.3-.7-.5-1s-.4-.5-.7-.7-.6-.2-1-.2-.7.1-1 .2c-.3.2-.5.4-.7.7s-.3.6-.5 1c-.1.4-.2.8-.2 1.2s.1.9.2 1.2.3.7.5 1 .4.5.7.7.6.2 1 .2.7-.1 1-.2.5-.4.7-.7.4-.6.5-1 .2-.7.2-1.2M205.9 302.7h-1.6v-8.9h1.6v1.6c.1-.2.2-.3.3-.5s.3-.4.6-.5c.2-.2.5-.3.9-.4s.8-.2 1.3-.2h1.7v1.6h-1.9c-1 0-1.8.2-2.2.6s-.7 1-.7 1.7zM218.9 302.7H217c-2 0-3-1-3-2.9v-4.5h-2.3v-1.5h2.3v-3.9h1.6v3.9h3.2v1.5h-3.2v4.2c0 .6.1 1.1.4 1.3.2.3.7.4 1.4.4h1.5zM226.6 289.9h1.7v12.8h-1.7zM234.5 298.8c-.9-.1-1.6-.4-2.1-.8-.6-.4-.8-1.1-.8-1.9 0-.4.1-.8.3-1.1s.4-.6.7-.8.7-.4 1.1-.5.9-.2 1.4-.2q1.05 0 1.8.3c.5.2.9.4 1.2.7s.5.5.6.8.2.5.3.7h-1.6l-.2-.2c-.1-.1-.2-.2-.4-.3s-.4-.2-.7-.3-.6-.1-1-.1c-.6 0-1.1.1-1.4.3s-.5.5-.5.8c0 .7.5 1.1 1.6 1.2l1.2.1c1.1.1 1.8.4 2.3.9s.7 1.1.7 1.9c0 .4-.1.7-.2 1.1-.2.3-.4.6-.7.9s-.7.4-1.1.6c-.4.1-.9.2-1.5.2-.8 0-1.4-.1-1.9-.3s-.9-.4-1.3-.7c-.3-.3-.6-.6-.7-.9s-.3-.6-.3-.8h1.7c0 .1.1.2.2.3s.2.3.4.4.5.2.8.4c.3.1.7.2 1.1.2.6 0 1.1-.1 1.4-.3s.5-.5.5-.9-.1-.7-.4-.9c-.2-.2-.6-.3-1.2-.4zM245.3 293.6c.6 0 1.2.1 1.7.4.5.2 1 .6 1.3 1 .4.4.6.9.8 1.5q.3.9.3 1.8 0 1.05-.3 1.8c-.2.6-.5 1.1-.8 1.5-.4.4-.8.7-1.3 1-.5.2-1.1.4-1.7.4s-1.2-.1-1.7-.4c-.5-.2-.9-.6-1.3-1s-.6-.9-.8-1.5q-.3-.9-.3-1.8 0-1.05.3-1.8c.2-.6.5-1.1.8-1.5.4-.4.8-.7 1.3-1s1.1-.4 1.7-.4m0 7.8c.4 0 .8-.1 1.1-.2.3-.2.6-.4.8-.7s.4-.6.5-1 .2-.8.2-1.2-.1-.8-.2-1.2-.3-.7-.5-1-.5-.5-.8-.7-.7-.2-1.1-.2-.8.1-1.1.2-.6.4-.8.7-.4.6-.5 1-.2.8-.2 1.2.1.8.2 1.2.3.7.5 1 .5.5.8.7.7.2 1.1.2M252.2 289.4h1.6v13.2h-1.6zM263.1 301.2c-.1.1-.1.3-.3.5-.1.2-.3.4-.5.5s-.5.3-.8.5c-.3.1-.7.2-1.1.2q-.75 0-1.5-.3t-1.2-.9c-.3-.4-.6-.9-.8-1.5s-.3-1.2-.3-2c0-.7.1-1.4.3-2s.5-1.1.8-1.5.7-.7 1.2-.9q.75-.3 1.5-.3c.4 0 .8.1 1.1.2s.6.3.8.5.4.4.5.6.2.3.3.5v-1.5h1.6v8.9h-1.6zm0-3c0-.4-.1-.9-.2-1.2-.1-.4-.3-.7-.5-1s-.4-.5-.7-.7-.6-.2-1-.2-.7.1-1 .2c-.3.2-.5.4-.7.7s-.3.6-.5 1c-.1.4-.2.8-.2 1.2s.1.9.2 1.2.3.7.5 1 .4.5.7.7.6.2 1 .2.7-.1 1-.2.5-.4.7-.7.4-.6.5-1 .2-.7.2-1.2M274.1 302.7h-1.9c-2 0-3-1-3-2.9v-4.5H267v-1.5h2.3v-3.9h1.6v3.9h3.2v1.5h-3.2v4.2c0 .6.1 1.1.4 1.3.2.3.7.4 1.4.4h1.5v1.5zM280.2 293.5c.6 0 1.1.1 1.6.3s.9.5 1.3.9.6.9.8 1.5.3 1.2.3 1.9v.3h-6.4c0 .4.1.8.2 1.1.1.4.3.7.5.9.2.3.5.5.8.6s.7.2 1.1.2.7 0 1-.1.5-.2.7-.3.3-.2.4-.4.2-.2.2-.3h1.6c0 .2-.1.4-.3.7-.1.3-.4.6-.6.9s-.7.5-1.1.7c-.5.2-1.1.3-1.7.3s-1.2-.1-1.8-.4c-.5-.2-1-.6-1.3-1-.4-.4-.6-.9-.8-1.5q-.3-.9-.3-1.8c0-.7.1-1.3.3-1.9s.5-1.1.8-1.5.8-.7 1.3-1c.2 0 .8-.1 1.4-.1m0 1.4c-.7 0-1.2.2-1.6.6s-.6.9-.8 1.6h4.6c-.1-.7-.4-1.3-.8-1.6-.3-.4-.8-.6-1.4-.6M295.9 291.3c-.9 0-1.6.2-2.1.5s-.7.8-.7 1.4c0 .3.1.6.2.8s.3.4.5.5.5.3.8.4.6.2 1 .2l1.7.3c.5.1 1 .2 1.5.4s.9.4 1.3.6c.4.3.7.6.9 1.1s.4 1 .4 1.6q0 .75-.3 1.5t-.9 1.2c-.4.4-.9.6-1.5.8s-1.3.3-2 .3q-1.35 0-2.4-.3c-.7-.2-1.2-.5-1.7-.9s-.8-.8-1.1-1.2-.5-.9-.6-1.3h1.9c.1.2.2.4.4.7s.4.5.7.7.7.4 1.1.5c.5.1 1 .2 1.6.2.9 0 1.6-.2 2.2-.6.5-.4.8-.9.8-1.6 0-.4-.1-.7-.2-.9s-.3-.4-.5-.6-.5-.3-.8-.4-.6-.2-1-.2l-1.7-.3c-.6-.1-1.1-.2-1.6-.4s-.9-.4-1.3-.7-.6-.6-.8-1q-.3-.6-.3-1.5 0-.75.3-1.5c.2-.4.5-.8.9-1.1s.9-.5 1.4-.7c.6-.2 1.2-.2 1.8-.2.8 0 1.5.1 2.2.3.6.2 1.1.5 1.5.8s.8.7 1 1.1.4.8.5 1.2h-1.8c-.1-.2-.2-.4-.4-.6s-.4-.4-.7-.5-.6-.3-1-.4c-.2-.2-.7-.2-1.2-.2M307.8 293.5c.6 0 1.1.1 1.6.3s.9.5 1.3.9.6.9.8 1.5.3 1.2.3 1.9v.3h-6.4c0 .4.1.8.2 1.1.1.4.3.7.5.9.2.3.5.5.8.6s.7.2 1.1.2.7 0 1-.1.5-.2.7-.3.3-.2.4-.4.2-.2.2-.3h1.6c0 .2-.1.4-.3.7-.1.3-.4.6-.6.9s-.7.5-1.1.7c-.5.2-1.1.3-1.7.3s-1.2-.1-1.8-.4c-.5-.2-1-.6-1.3-1-.4-.4-.6-.9-.8-1.5q-.3-.9-.3-1.8c0-.7.1-1.3.3-1.9s.5-1.1.8-1.5.8-.7 1.3-1c.2 0 .8-.1 1.4-.1m0 1.4c-.7 0-1.2.2-1.6.6s-.6.9-.8 1.6h4.6c-.1-.7-.4-1.3-.8-1.6-.2-.4-.8-.6-1.4-.6M320.4 302.7h-1.9c-2 0-3-1-3-2.9v-4.5h-2.3v-1.5h2.3v-3.9h1.6v3.9h3.2v1.5h-3.2v4.2c0 .6.1 1.1.4 1.3.2.3.7.4 1.4.4h1.5zM326.7 302.8c-.6 0-1.2-.1-1.7-.3s-.9-.4-1.2-.8-.6-.7-.7-1.2c-.2-.5-.2-1-.2-1.5v-5.4h1.7v5.3c0 .7.2 1.2.5 1.6.4.4.9.6 1.6.6s1.2-.2 1.6-.6.6-1 .6-1.6v-5.3h1.6v5.4c0 .5-.1 1-.2 1.4s-.4.8-.7 1.2-.7.6-1.2.8c-.5.3-1.1.4-1.7.4M335.4 306.5h-1.6v-12.7h1.6v1.5c0-.1.1-.3.3-.5.1-.2.3-.4.5-.6s.5-.3.8-.5.7-.2 1.2-.2q.75 0 1.5.3t1.2.9c.3.4.6.9.8 1.5s.3 1.2.3 2c0 .7-.1 1.4-.3 2s-.5 1.1-.8 1.5-.8.7-1.2.9q-.75.3-1.5.3c-.4 0-.8-.1-1.1-.2s-.6-.3-.8-.5l-.5-.5c-.1-.2-.2-.3-.3-.4v5.2zm-.1-8.3c0 .4.1.9.2 1.2.1.4.3.7.5 1s.5.5.8.7.7.2 1 .2c.4 0 .7-.1 1-.2.3-.2.6-.4.8-.7s.4-.6.5-1 .2-.8.2-1.2-.1-.9-.2-1.2c-.1-.4-.3-.7-.5-1s-.5-.5-.8-.7-.7-.2-1-.2c-.4 0-.7.1-1 .2-.3.2-.6.4-.8.7s-.4.6-.5 1c-.1.3-.2.8-.2 1.2" class="st4"/><path d="M147.3 313h226.2v28.4H147.3z" class="st16"/><path d="M162.8 321.9h4.3c1 0 1.9.2 2.7.5s1.5.7 2.1 1.3 1 1.2 1.3 2 .5 1.7.5 2.6c0 1-.2 1.8-.5 2.6s-.7 1.5-1.3 2c-.6.6-1.2 1-2.1 1.3-.8.3-1.7.5-2.7.5h-4.3zm1.7 1.7v9.5h2.5c.7 0 1.4-.1 2-.3s1.1-.5 1.5-1q.6-.6.9-1.5c.2-.6.3-1.2.3-2 0-1.5-.4-2.7-1.3-3.5-.8-.8-2-1.3-3.5-1.3h-2.4zM182.3 333.3c-.1.1-.1.3-.3.5-.1.2-.3.4-.5.5s-.5.3-.8.4-.7.2-1.1.2q-.75 0-1.5-.3t-1.2-.9c-.3-.4-.6-.9-.8-1.5s-.3-1.2-.3-2c0-.7.1-1.4.3-2s.5-1.1.8-1.5q.45-.6 1.2-.9t1.5-.3c.4 0 .8.1 1.1.2s.6.3.8.5.4.4.5.6.2.3.3.5v-1.5h1.6v8.9h-1.6zm.1-3c0-.4-.1-.9-.2-1.2s-.3-.7-.5-1-.4-.5-.7-.7-.6-.2-1-.2-.7.1-1 .2c-.3.2-.5.4-.7.7s-.3.6-.5 1-.2.8-.2 1.2.1.9.2 1.2c.1.4.3.7.5 1s.4.5.7.7.6.2 1 .2.7-.1 1-.2c.3-.2.5-.4.7-.7s.4-.6.5-1 .2-.8.2-1.2M188.9 334.7h-1.6v-8.9h1.6v1.6c.1-.2.2-.3.3-.5s.3-.4.6-.5.5-.3.9-.4.8-.2 1.3-.2h1.7v1.6h-1.9c-1 0-1.8.2-2.2.6s-.7 1-.7 1.7zM202 334.7h-1.9c-2 0-3-1-3-2.9v-4.5h-2.3v-1.5h2.3v-3.9h1.6v3.9h3.2v1.5h-3.2v4.2c0 .6.1 1.1.4 1.3.2.3.7.4 1.4.4h1.5zM215.2 334.8h-1.7l-5.2-12.8h1.9l4.1 10.5 4.1-10.5h1.8zM229.6 332.1l3.9-10.2h2.6v12.8h-1.7v-11.1l-4.4 11.2h-1.2l-4.3-11.1v11h-1.6v-12.8h2.7zM251.5 332.1l3.9-10.2h2.6v12.8h-1.7v-11.1l-4.4 11.2h-1.2l-4.3-11.1v11h-1.6v-12.8h2.7zM267.5 333.3c-.1.1-.1.3-.3.5-.1.2-.3.4-.5.5s-.5.3-.8.4-.7.2-1.1.2q-.75 0-1.5-.3t-1.2-.9c-.3-.4-.6-.9-.8-1.5s-.3-1.2-.3-2c0-.7.1-1.4.3-2s.5-1.1.8-1.5q.45-.6 1.2-.9t1.5-.3c.4 0 .8.1 1.1.2s.6.3.8.5.4.4.5.6.2.3.3.5v-1.5h1.6v8.9h-1.6zm0-3c0-.4-.1-.9-.2-1.2s-.3-.7-.5-1-.4-.5-.7-.7-.6-.2-1-.2-.7.1-1 .2c-.3.2-.5.4-.7.7s-.3.6-.5 1-.2.8-.2 1.2.1.9.2 1.2c.1.4.3.7.5 1s.4.5.7.7.6.2 1 .2.7-.1 1-.2c.3-.2.5-.4.7-.7s.4-.6.5-1c.2-.4.2-.8.2-1.2M274.1 334.7h-1.6v-8.9h1.6v1.5c.1-.2.2-.4.4-.6.1-.2.3-.4.5-.5.2-.2.5-.3.8-.4s.6-.2 1-.2c1 0 1.9.3 2.5 1s.9 1.6.9 2.8v5.3h-1.7v-5c0-.9-.2-1.5-.6-1.9s-.9-.6-1.6-.6-1.3.2-1.7.7c-.4.4-.6 1.1-.6 1.9v4.9zM289.3 333.3c-.1.1-.1.3-.3.5-.1.2-.3.4-.5.5s-.5.3-.8.4-.7.2-1.1.2q-.75 0-1.5-.3t-1.2-.9c-.3-.4-.6-.9-.8-1.5s-.3-1.2-.3-2c0-.7.1-1.4.3-2s.5-1.1.8-1.5q.45-.6 1.2-.9t1.5-.3c.4 0 .8.1 1.1.2s.6.3.8.5.4.4.5.6.2.3.3.5v-1.5h1.6v8.9h-1.6zm0-3c0-.4-.1-.9-.2-1.2s-.3-.7-.5-1-.4-.5-.7-.7-.6-.2-1-.2-.7.1-1 .2c-.3.2-.5.4-.7.7s-.3.6-.5 1-.2.8-.2 1.2.1.9.2 1.2c.1.4.3.7.5 1s.4.5.7.7.6.2 1 .2.7-.1 1-.2c.3-.2.5-.4.7-.7s.4-.6.5-1c.2-.4.2-.8.2-1.2M300.2 333.3c0 .1-.1.2-.3.4s-.3.4-.5.5c-.2.2-.5.3-.8.5-.3.1-.7.2-1.1.2q-.75 0-1.5-.3c-.75-.3-.9-.5-1.2-.9s-.6-.9-.8-1.5-.3-1.2-.3-2c0-.7.1-1.4.3-2s.5-1.1.8-1.5.8-.7 1.2-.9 1-.3 1.5-.3c.4 0 .8.1 1.1.2s.6.3.8.5.4.4.5.6.2.3.3.5v-1.5h1.6v8.7c0 .6-.1 1.2-.3 1.7s-.4 1-.8 1.3c-.3.4-.8.7-1.3.9s-1.1.3-1.8.3q-1.05 0-1.8-.3c-.5-.2-.9-.4-1.2-.7s-.5-.5-.7-.8c-.1-.3-.2-.5-.2-.7h1.7l.2.2c.1.1.2.2.4.3s.4.2.7.3.6.1 1 .1c.8 0 1.5-.2 1.9-.7q.6-.75.6-2.1zm0-3c0-.4-.1-.9-.2-1.3s-.3-.7-.5-1-.5-.5-.8-.7-.6-.2-1-.2-.7.1-1 .2c-.3.2-.6.4-.8.7s-.4.6-.5 1-.2.8-.2 1.3c0 .4.1.9.2 1.2.1.4.3.7.5 1s.5.5.8.7.6.2 1 .2.7-.1 1-.2c.3-.2.6-.4.8-.7s.4-.6.5-1c.2-.3.2-.8.2-1.2M308.6 325.6c.6 0 1.1.1 1.6.3s.9.5 1.3.9.6.9.8 1.5.3 1.2.3 1.9v.3h-6.4c0 .4.1.8.2 1.1.1.4.3.7.5.9s.5.5.8.6.7.2 1.1.2.7 0 1-.1.5-.2.7-.3.3-.2.4-.4.2-.2.2-.3h1.6c0 .2-.1.4-.3.7l-.6.9c-.3.3-.7.5-1.1.7-.5.2-1.1.3-1.7.3s-1.2-.1-1.8-.4c-.5-.2-1-.6-1.3-1-.4-.4-.6-.9-.8-1.5q-.3-.9-.3-1.8c0-.7.1-1.3.3-1.9s.5-1.1.8-1.5.8-.7 1.3-1c.3 0 .8-.1 1.4-.1m0 1.4c-.7 0-1.2.2-1.6.6s-.6.9-.8 1.6h4.6c-.1-.7-.4-1.3-.8-1.6-.2-.4-.7-.6-1.4-.6M317 334.7h-1.6v-8.9h1.6v1.4c.1-.2.2-.3.3-.5s.3-.4.5-.5.5-.3.7-.4c.3-.1.6-.2 1-.2.7 0 1.4.2 1.9.5s.9.8 1.2 1.4c.1-.2.2-.4.4-.6q.15-.3.6-.6c.2-.2.5-.4.8-.5s.7-.2 1.1-.2c.6 0 1 .1 1.5.3.4.2.8.4 1.1.8.3.3.5.7.7 1.2.2.4.2.9.2 1.5v5.4h-1.7v-5.1c0-.7-.2-1.3-.5-1.8-.4-.5-.9-.7-1.6-.7s-1.2.2-1.6.7q-.6.75-.6 1.8v5.1h-1.7v-5.1c0-.7-.2-1.3-.5-1.8-.4-.5-.9-.7-1.6-.7s-1.2.2-1.6.7-.5 1.1-.5 1.8v5zM335.6 325.6c.6 0 1.1.1 1.6.3s.9.5 1.3.9.6.9.8 1.5.3 1.2.3 1.9v.3h-6.4c0 .4.1.8.2 1.1.1.4.3.7.5.9s.5.5.8.6.7.2 1.1.2.7 0 1-.1.5-.2.7-.3.3-.2.4-.4.2-.2.2-.3h1.6c0 .2-.1.4-.3.7l-.6.9c-.3.3-.7.5-1.1.7-.5.2-1.1.3-1.7.3s-1.2-.1-1.8-.4c-.5-.2-1-.6-1.3-1-.4-.4-.6-.9-.8-1.5q-.3-.9-.3-1.8c0-.7.1-1.3.3-1.9s.5-1.1.8-1.5.8-.7 1.3-1c.3 0 .8-.1 1.4-.1m0 1.4c-.7 0-1.2.2-1.6.6s-.6.9-.8 1.6h4.6c-.1-.7-.4-1.3-.8-1.6-.2-.4-.7-.6-1.4-.6M344 334.7h-1.6v-8.9h1.6v1.5c.1-.2.2-.4.4-.6.1-.2.3-.4.5-.5.2-.2.5-.3.8-.4s.6-.2 1-.2c1 0 1.9.3 2.5 1s.9 1.6.9 2.8v5.3h-1.7v-5c0-.9-.2-1.5-.6-1.9s-.9-.6-1.6-.6-1.3.2-1.7.7c-.4.4-.6 1.1-.6 1.9v4.9zM359.1 334.7h-1.9c-2 0-3-1-3-2.9v-4.5h-2.3v-1.5h2.3v-3.9h1.6v3.9h3.2v1.5h-3.2v4.2c0 .6.1 1.1.4 1.3.2.3.7.4 1.4.4h1.5z" class="st4"/><path d="M379.7 248.9h226.2v28.4H379.7z" class="st16"/><path d="M443.7 270.8c-.9 0-1.6-.2-2.3-.5s-1.3-.8-1.8-1.4-.8-1.3-1.1-2.1-.4-1.7-.4-2.6.1-1.8.4-2.6.6-1.5 1.1-2.1 1.1-1.1 1.8-1.4 1.5-.5 2.3-.5c.9 0 1.6.1 2.2.4s1.1.6 1.6 1c.4.4.7.8.9 1.3s.3.9.4 1.3h-1.7c-.1-.2-.2-.4-.4-.7s-.4-.5-.6-.8c-.3-.2-.6-.4-1-.6s-.9-.3-1.4-.3c-.6 0-1.2.1-1.6.4-.5.3-.9.6-1.2 1.1s-.5 1-.7 1.6-.2 1.2-.2 1.9.1 1.3.2 1.9c.2.6.4 1.1.7 1.6s.7.8 1.2 1.1 1 .4 1.6.4c.5 0 1-.1 1.4-.3s.7-.4 1-.6.5-.5.7-.8.3-.5.4-.7h1.7c0 .4-.2.8-.4 1.3s-.5.9-.9 1.3-.9.7-1.6 1-1.4.4-2.3.4M455.3 261.5c.6 0 1.2.1 1.7.4.5.2 1 .6 1.3 1 .4.4.6.9.8 1.5q.3.9.3 1.8 0 1.05-.3 1.8c-.2.6-.5 1.1-.8 1.5-.4.4-.8.7-1.3 1-.5.2-1.1.4-1.7.4s-1.2-.1-1.7-.4c-.5-.2-.9-.6-1.3-1s-.6-.9-.8-1.5q-.3-.9-.3-1.8 0-1.05.3-1.8c.2-.6.5-1.1.8-1.5.4-.4.8-.7 1.3-1s1-.4 1.7-.4m0 7.8c.4 0 .8-.1 1.1-.2.3-.2.6-.4.8-.7s.4-.6.5-1 .2-.8.2-1.2-.1-.8-.2-1.2-.3-.7-.5-1-.5-.5-.8-.7-.7-.2-1.1-.2-.8.1-1.1.2-.6.4-.8.7-.4.6-.5 1-.2.8-.2 1.2.1.8.2 1.2.3.7.5 1 .5.5.8.7.7.2 1.1.2M463.8 270.6h-1.6v-8.9h1.6v1.4c.1-.2.2-.3.3-.5s.3-.4.5-.5.5-.3.7-.4c.3-.1.6-.2 1-.2.7 0 1.4.2 1.9.5s.9.8 1.2 1.4c.1-.2.2-.4.4-.6q.15-.3.6-.6c.2-.2.5-.4.8-.5s.7-.2 1.1-.2c.6 0 1 .1 1.5.3.4.2.8.4 1.1.8.3.3.5.7.7 1.2s.2.9.2 1.5v5.4h-1.7v-5.1c0-.7-.2-1.3-.5-1.8-.4-.5-.9-.7-1.6-.7s-1.2.2-1.6.7q-.6.75-.6 1.8v5.1h-1.7v-5.1c0-.7-.2-1.3-.5-1.8-.4-.5-.9-.7-1.6-.7s-1.2.2-1.6.7-.5 1.1-.5 1.8v5zM480.6 274.4H479v-12.7h1.6v1.5c0-.1.1-.3.3-.5.1-.2.3-.4.5-.6s.5-.3.8-.5.7-.2 1.2-.2q.75 0 1.5.3t1.2.9c.3.4.6.9.8 1.5s.3 1.2.3 2c0 .7-.1 1.4-.3 2s-.5 1.1-.8 1.5-.8.7-1.2.9q-.75.3-1.5.3c-.4 0-.8-.1-1.1-.2s-.6-.3-.8-.5l-.5-.5c-.1-.2-.2-.3-.3-.4v5.2zm0-8.3c0 .4.1.9.2 1.2.1.4.3.7.5 1s.5.5.8.7.7.2 1 .2c.4 0 .7-.1 1-.2.3-.2.6-.4.8-.7s.4-.6.5-1 .2-.8.2-1.2-.1-.9-.2-1.2c-.1-.4-.3-.7-.5-1s-.5-.5-.8-.7-.7-.2-1-.2c-.4 0-.7.1-1 .2-.3.2-.6.4-.8.7s-.4.6-.5 1-.2.8-.2 1.2M493.6 261.5c.6 0 1.2.1 1.7.4.5.2 1 .6 1.3 1 .4.4.6.9.8 1.5q.3.9.3 1.8 0 1.05-.3 1.8c-.2.6-.5 1.1-.8 1.5-.4.4-.8.7-1.3 1-.5.2-1.1.4-1.7.4s-1.2-.1-1.7-.4c-.5-.2-.9-.6-1.3-1s-.6-.9-.8-1.5q-.3-.9-.3-1.8 0-1.05.3-1.8c.2-.6.5-1.1.8-1.5.4-.4.8-.7 1.3-1s1.1-.4 1.7-.4m0 7.8c.4 0 .8-.1 1.1-.2.3-.2.6-.4.8-.7s.4-.6.5-1 .2-.8.2-1.2-.1-.8-.2-1.2-.3-.7-.5-1-.5-.5-.8-.7-.7-.2-1.1-.2-.8.1-1.1.2-.6.4-.8.7-.4.6-.5 1-.2.8-.2 1.2.1.8.2 1.2.3.7.5 1 .5.5.8.7.7.2 1.1.2M503 266.8c-.9-.1-1.6-.4-2.1-.8-.6-.4-.8-1.1-.8-1.9 0-.4.1-.8.3-1.1s.4-.6.7-.8.7-.4 1.1-.5.9-.2 1.4-.2q1.05 0 1.8.3c.5.2.9.4 1.2.7s.5.5.6.8.2.5.3.7h-1.6l-.2-.2c-.1-.1-.2-.2-.4-.3s-.4-.2-.7-.3-.6-.1-1-.1c-.6 0-1.1.1-1.4.3s-.5.5-.5.8c0 .7.5 1.1 1.6 1.2l1.2.1c1.1.1 1.8.4 2.3.9s.7 1.1.7 1.9c0 .4-.1.7-.2 1.1-.2.3-.4.6-.7.9s-.7.4-1.1.6c-.4.1-.9.2-1.5.2-.8 0-1.4-.1-1.9-.3s-.9-.4-1.3-.7c-.3-.3-.6-.6-.7-.9s-.3-.6-.3-.8h1.7c0 .1.1.2.2.3s.2.3.4.4.5.2.8.4c.3.1.7.2 1.1.2.6 0 1.1-.1 1.4-.3s.5-.5.5-.9-.1-.7-.4-.9c-.2-.2-.6-.3-1.2-.4zM510.2 257.4h1.7v2.5h-1.7zm0 4.3h1.6v8.9h-1.6zM521.3 270.6h-1.9c-2 0-3-1-3-2.9v-4.5h-2.3v-1.5h2.3v-3.9h1.6v3.9h3.2v1.5H518v4.2c0 .6.1 1.1.4 1.3.2.3.7.4 1.4.4h1.5zM523.8 257.4h1.7v2.5h-1.7zm.1 4.3h1.6v8.9h-1.6zM532.4 261.5c.6 0 1.2.1 1.7.4.5.2 1 .6 1.3 1 .4.4.6.9.8 1.5q.3.9.3 1.8 0 1.05-.3 1.8c-.2.6-.5 1.1-.8 1.5-.4.4-.8.7-1.3 1-.5.2-1.1.4-1.7.4s-1.2-.1-1.7-.4c-.5-.2-.9-.6-1.3-1s-.6-.9-.8-1.5q-.3-.9-.3-1.8 0-1.05.3-1.8c.2-.6.5-1.1.8-1.5.4-.4.8-.7 1.3-1s1.1-.4 1.7-.4m0 7.8c.4 0 .8-.1 1.1-.2.3-.2.6-.4.8-.7s.4-.6.5-1 .2-.8.2-1.2-.1-.8-.2-1.2-.3-.7-.5-1-.5-.5-.8-.7-.7-.2-1.1-.2-.8.1-1.1.2-.6.4-.8.7-.4.6-.5 1-.2.8-.2 1.2.1.8.2 1.2.3.7.5 1 .5.5.8.7.7.2 1.1.2M541 270.6h-1.6v-8.9h1.6v1.5c.1-.2.2-.4.4-.6.1-.2.3-.4.5-.5.2-.2.5-.3.8-.4s.6-.2 1-.2c1 0 1.9.3 2.5 1s.9 1.6.9 2.8v5.3h-1.7v-5c0-.9-.2-1.5-.6-1.9s-.9-.6-1.6-.6-1.3.2-1.7.7c-.4.4-.6 1.1-.6 1.9v4.9z" class="st4"/><path d="M379.7 281h226.2v28.4H379.7z" class="st16"/><path d="M449.1 289.9h5.8c1.4 0 2.4.3 3.1.9s1.1 1.5 1.1 2.6c0 .9-.2 1.7-.7 2.2-.5.6-1.2.9-2.1 1.1l3.4 5.9h-1.9l-3.3-5.7h-3.6v5.7h-1.7v-12.7zm1.7 1.6v3.8h4c.8 0 1.4-.2 1.8-.5s.6-.8.6-1.4-.2-1.1-.6-1.4-1-.5-1.8-.5zM465.7 293.5c.6 0 1.1.1 1.6.3s.9.5 1.3.9.6.9.8 1.5.3 1.2.3 1.9v.3h-6.4c0 .4.1.8.2 1.1.1.4.3.7.5.9.2.3.5.5.8.6s.7.2 1.1.2.7 0 1-.1.5-.2.7-.3.3-.2.4-.4.2-.2.2-.3h1.6c0 .2-.1.4-.3.7-.1.3-.4.6-.6.9s-.7.5-1.1.7c-.5.2-1.1.3-1.7.3s-1.2-.1-1.8-.4c-.5-.2-1-.6-1.3-1-.4-.4-.6-.9-.8-1.5q-.3-.9-.3-1.8c0-.7.1-1.3.3-1.9s.5-1.1.8-1.5.8-.7 1.3-1c.2 0 .8-.1 1.4-.1m0 1.4c-.7 0-1.2.2-1.6.6s-.6.9-.8 1.6h4.6c-.1-.7-.4-1.3-.8-1.6-.3-.4-.8-.6-1.4-.6M474 302.7h-1.6v-8.9h1.6v1.5c.1-.2.2-.4.4-.6.1-.2.3-.4.5-.5.2-.2.5-.3.8-.4s.6-.2 1-.2c1 0 1.9.3 2.5 1s.9 1.6.9 2.8v5.3h-1.7v-5c0-.9-.2-1.5-.6-1.9s-.9-.6-1.6-.6-1.3.2-1.7.7c-.4.4-.6 1.1-.6 1.9v4.9zM489.4 301.1c-.1.1-.2.3-.3.5s-.3.4-.5.6-.5.3-.8.5-.7.2-1.1.2q-.75 0-1.5-.3t-1.2-.9c-.45-.6-.6-.9-.8-1.5s-.3-1.2-.3-2c0-.7.1-1.4.3-2s.5-1.1.8-1.5.8-.7 1.2-.9q.75-.3 1.5-.3c.4 0 .8.1 1.1.2s.6.3.8.5.4.4.5.6.2.3.3.5v-5.8h1.6v13.2h-1.6zm.1-2.9c0-.4-.1-.9-.2-1.2-.1-.4-.3-.7-.5-1s-.5-.5-.8-.7-.7-.2-1-.2c-.4 0-.7.1-1 .2-.3.2-.6.4-.8.7s-.4.6-.5 1-.2.8-.2 1.2.1.9.2 1.2c.1.4.3.7.5 1s.5.5.8.7.7.2 1 .2c.4 0 .7-.1 1-.2s.6-.4.8-.7.4-.6.5-1c.1-.3.2-.8.2-1.2M497.9 293.5c.6 0 1.1.1 1.6.3s.9.5 1.3.9.6.9.8 1.5.3 1.2.3 1.9v.3h-6.4c0 .4.1.8.2 1.1.1.4.3.7.5.9.2.3.5.5.8.6s.7.2 1.1.2.7 0 1-.1.5-.2.7-.3.3-.2.4-.4.2-.2.2-.3h1.6c0 .2-.1.4-.3.7-.1.3-.4.6-.6.9s-.7.5-1.1.7c-.5.2-1.1.3-1.7.3s-1.2-.1-1.8-.4c-.5-.2-1-.6-1.3-1-.4-.4-.6-.9-.8-1.5q-.3-.9-.3-1.8c0-.7.1-1.3.3-1.9s.5-1.1.8-1.5.8-.7 1.3-1c.2 0 .7-.1 1.4-.1m0 1.4c-.7 0-1.2.2-1.6.6s-.6.9-.8 1.6h4.6c-.1-.7-.4-1.3-.8-1.6-.3-.4-.8-.6-1.4-.6M506.2 302.7h-1.6v-8.9h1.6v1.6c.1-.2.2-.3.3-.5s.3-.4.6-.5c.2-.2.5-.3.9-.4s.8-.2 1.3-.2h1.7v1.6h-1.9c-1 0-1.8.2-2.2.6s-.7 1-.7 1.7zM513.2 289.5h1.7v2.5h-1.7zm0 4.3h1.6v8.9h-1.6zM519.8 302.7h-1.6v-8.9h1.6v1.5c.1-.2.2-.4.4-.6.1-.2.3-.4.5-.5.2-.2.5-.3.8-.4s.6-.2 1-.2c1 0 1.9.3 2.5 1s.9 1.6.9 2.8v5.3h-1.7v-5c0-.9-.2-1.5-.6-1.9s-.9-.6-1.6-.6-1.3.2-1.7.7c-.4.4-.6 1.1-.6 1.9v4.9zM535.1 301.3c0 .1-.1.2-.3.4-.1.2-.3.4-.5.5-.2.2-.5.3-.8.5-.3.1-.7.2-1.1.2q-.75 0-1.5-.3c-.75-.3-.9-.5-1.2-.9s-.6-.9-.8-1.5-.3-1.2-.3-2c0-.7.1-1.4.3-2s.5-1.1.8-1.5.8-.7 1.2-.9 1-.3 1.5-.3c.4 0 .8.1 1.1.2s.6.3.8.5.4.4.5.6.2.3.3.5v-1.5h1.6v8.7c0 .6-.1 1.2-.3 1.7s-.4 1-.8 1.4c-.3.4-.8.7-1.3.9q-.75.3-1.8.3t-1.8-.3c-.5-.2-.9-.4-1.2-.7s-.5-.5-.7-.8c-.1-.3-.2-.5-.2-.7h1.7l.2.2c.1.1.2.2.4.3s.4.2.7.3.6.1 1 .1c.8 0 1.5-.2 1.9-.7q.6-.75.6-2.1zm.1-3.1c0-.4-.1-.9-.2-1.3s-.3-.7-.5-1-.5-.5-.8-.7-.6-.2-1-.2-.7.1-1 .2c-.3.2-.6.4-.8.7s-.4.6-.5 1-.2.8-.2 1.3c0 .4.1.9.2 1.2.1.4.3.7.5 1s.5.5.8.7.6.2 1 .2.7-.1 1-.2c.3-.2.6-.4.8-.7s.4-.6.5-1c.1-.3.2-.7.2-1.2" class="st4"/><path d="M379.7 313h226.2v28.4H379.7z" class="st16"/><path d="M414.5 321.9h9.7v1.6h-8v3.6h4.6v1.6h-4.6v6h-1.7zM427.2 334.7h-1.6v-8.9h1.6v1.6c.1-.2.2-.3.3-.5s.3-.4.6-.5.5-.3.9-.4.8-.2 1.3-.2h1.7v1.6h-1.9c-1 0-1.8.2-2.2.6s-.7 1-.7 1.7zM440 333.3c-.1.1-.1.3-.3.5-.1.2-.3.4-.5.5s-.5.3-.8.4-.7.2-1.1.2q-.75 0-1.5-.3t-1.2-.9c-.3-.4-.6-.9-.8-1.5s-.3-1.2-.3-2c0-.7.1-1.4.3-2s.5-1.1.8-1.5q.45-.6 1.2-.9t1.5-.3c.4 0 .8.1 1.1.2s.6.3.8.5.4.4.5.6.2.3.3.5v-1.5h1.6v8.9H440zm0-3c0-.4-.1-.9-.2-1.2s-.3-.7-.5-1-.4-.5-.7-.7-.6-.2-1-.2-.7.1-1 .2c-.3.2-.5.4-.7.7s-.3.6-.5 1-.2.8-.2 1.2.1.9.2 1.2c.1.4.3.7.5 1s.4.5.7.7.6.2 1 .2.7-.1 1-.2c.3-.2.5-.4.7-.7s.4-.6.5-1c.2-.4.2-.8.2-1.2M446.6 334.7H445v-8.9h1.6v1.4c.1-.2.2-.3.3-.5s.3-.4.5-.5.5-.3.7-.4c.3-.1.6-.2 1-.2.7 0 1.4.2 1.9.5s.9.8 1.2 1.4c.1-.2.2-.4.4-.6q.15-.3.6-.6c.2-.2.5-.4.8-.5s.7-.2 1.1-.2c.6 0 1 .1 1.5.3.4.2.8.4 1.1.8.3.3.5.7.7 1.2.2.4.2.9.2 1.5v5.4h-1.7v-5.1c0-.7-.2-1.3-.5-1.8-.4-.5-.9-.7-1.6-.7s-1.2.2-1.6.7q-.6.75-.6 1.8v5.1h-1.7v-5.1c0-.7-.2-1.3-.5-1.8-.4-.5-.9-.7-1.6-.7s-1.2.2-1.6.7-.5 1.1-.5 1.8v5zM465.2 325.6c.6 0 1.1.1 1.6.3s.9.5 1.3.9.6.9.8 1.5.3 1.2.3 1.9v.3h-6.4c0 .4.1.8.2 1.1.1.4.3.7.5.9s.5.5.8.6.7.2 1.1.2.7 0 1-.1.5-.2.7-.3.3-.2.4-.4.2-.2.2-.3h1.6c0 .2-.1.4-.3.7l-.6.9c-.3.3-.7.5-1.1.7-.5.2-1.1.3-1.7.3s-1.2-.1-1.8-.4c-.5-.2-1-.6-1.3-1-.4-.4-.6-.9-.8-1.5q-.3-.9-.3-1.8c0-.7.1-1.3.3-1.9s.5-1.1.8-1.5.8-.7 1.3-1c.3 0 .8-.1 1.4-.1m0 1.4c-.7 0-1.2.2-1.6.6s-.6.9-.8 1.6h4.6c-.1-.7-.4-1.3-.8-1.6-.2-.4-.7-.6-1.4-.6M481 323.4c-.9 0-1.6.2-2.1.5s-.7.8-.7 1.4c0 .3.1.6.2.8s.3.4.5.5.5.3.8.4.6.2 1 .2l1.7.3c.5.1 1 .2 1.5.4s.9.4 1.3.6c.4.3.7.6.9 1.1s.4 1 .4 1.6q0 .75-.3 1.5t-.9 1.2c-.4.4-.9.6-1.5.8s-1.3.3-2 .3q-1.35 0-2.4-.3c-1.05-.3-1.2-.5-1.7-.9s-.8-.8-1.1-1.2-.5-.9-.6-1.3h1.9c.1.2.2.4.4.7s.4.5.7.7.7.4 1.1.5c.5.1 1 .2 1.6.2.9 0 1.6-.2 2.2-.6.5-.4.8-.9.8-1.6 0-.4-.1-.7-.2-.9s-.3-.4-.5-.6-.5-.3-.8-.4-.6-.2-1-.2l-1.7-.2c-.6-.1-1.1-.2-1.6-.4s-.9-.4-1.3-.7-.6-.6-.8-1q-.3-.6-.3-1.5 0-.75.3-1.5c.3-.75.5-.8.9-1.1s.9-.5 1.4-.7c.6-.2 1.2-.2 1.8-.2.8 0 1.5.1 2.2.3s1.1.5 1.5.8.8.7 1 1.1.4.8.5 1.2h-1.8c-.1-.2-.2-.4-.4-.6s-.4-.4-.7-.5c-.3-.2-.6-.3-1-.4-.3-.3-.7-.3-1.2-.3M494.8 328.1c-.1-.2-.2-.3-.4-.5-.2-.1-.4-.3-.6-.4-.3-.1-.6-.2-.9-.2-.4 0-.7.1-1 .2-.3.2-.5.4-.7.7s-.4.6-.5 1-.2.8-.2 1.2.1.9.2 1.2.3.7.5 1 .5.5.7.7c.3.2.6.2 1 .2s.7-.1.9-.2c.3-.1.5-.2.6-.4.2-.1.3-.3.4-.4s.2-.3.2-.3h1.6c0 .1-.1.4-.2.7s-.3.6-.6 1c-.3.3-.7.6-1.1.8-.5.2-1.1.4-1.8.4-.6 0-1.1-.1-1.6-.4-.5-.2-.9-.6-1.3-1q-.6-.6-.9-1.5c-.2-.6-.3-1.2-.3-1.9s.1-1.3.3-1.9.5-1.1.8-1.5c.4-.4.8-.7 1.3-1 .5-.2 1-.4 1.6-.4.7 0 1.3.1 1.8.4.5.2.8.5 1.1.8s.5.6.6 1c.1.3.2.6.2.7H495c0 .3-.1.2-.2 0M500.8 334.7h-1.6v-13.2h1.6v5.9c.1-.2.2-.4.4-.6.1-.2.3-.4.5-.6s.5-.3.8-.4.6-.2 1-.2c1 0 1.9.3 2.5 1s.9 1.6.9 2.9v5.2h-1.7v-4.9c0-.9-.2-1.6-.6-2-.4-.5-.9-.7-1.6-.7s-1.3.2-1.7.7-.6 1.1-.6 2v4.9zM516 333.3c-.1.1-.1.3-.3.5-.1.2-.3.4-.5.5s-.5.3-.8.4-.7.2-1.1.2q-.75 0-1.5-.3t-1.2-.9c-.3-.4-.6-.9-.8-1.5s-.3-1.2-.3-2c0-.7.1-1.4.3-2s.5-1.1.8-1.5q.45-.6 1.2-.9t1.5-.3c.4 0 .8.1 1.1.2s.6.3.8.5.4.4.5.6.2.3.3.5v-1.5h1.6v8.9H516zm0-3c0-.4-.1-.9-.2-1.2s-.3-.7-.5-1-.4-.5-.7-.7-.6-.2-1-.2-.7.1-1 .2c-.3.2-.5.4-.7.7s-.3.6-.5 1-.2.8-.2 1.2.1.9.2 1.2c.1.4.3.7.5 1s.4.5.7.7.6.2 1 .2.7-.1 1-.2c.3-.2.5-.4.7-.7s.4-.6.5-1c.2-.4.2-.8.2-1.2M527 333.2c-.1.1-.2.3-.3.5s-.3.4-.5.6-.5.3-.8.5-.7.2-1.1.2q-.75 0-1.5-.3t-1.2-.9c-.3-.4-.6-.9-.8-1.5s-.3-1.2-.3-2c0-.7.1-1.4.3-2s.5-1.1.8-1.5.8-.7 1.2-.9q.75-.3 1.5-.3c.4 0 .8.1 1.1.2s.6.3.8.5.4.4.5.6.2.3.3.4v-5.8h1.6v13.2H527zm.1-2.9c0-.4-.1-.9-.2-1.2-.1-.4-.3-.7-.5-1s-.5-.5-.8-.7-.7-.2-1-.2c-.4 0-.7.1-1 .2-.3.2-.6.4-.8.7s-.4.6-.5 1-.2.8-.2 1.2.1.9.2 1.2c.1.4.3.7.5 1s.5.5.8.7.7.2 1 .2c.4 0 .7-.1 1-.2.3-.2.6-.4.8-.7s.4-.6.5-1 .2-.8.2-1.2M535.7 334.9c-.6 0-1.2-.1-1.7-.3s-.9-.4-1.2-.8c-.3-.3-.6-.7-.7-1.2-.2-.5-.2-1-.2-1.5v-5.4h1.7v5.3c0 .7.2 1.2.5 1.6.4.4.9.6 1.6.6s1.2-.2 1.6-.6.6-1 .6-1.6v-5.3h1.6v5.4c0 .5-.1 1-.2 1.4-.2.5-.4.8-.7 1.2s-.7.6-1.2.8c-.5.3-1.1.4-1.7.4M542.8 321.5h1.6v13.2h-1.6zM547.7 321.6h1.7v2.5h-1.7zm.1 4.2h1.6v8.9h-1.6zM554.4 334.7h-1.6v-8.9h1.6v1.5c.1-.2.2-.4.4-.6.1-.2.3-.4.5-.5.2-.2.5-.3.8-.4s.6-.2 1-.2c1 0 1.9.3 2.5 1s.9 1.6.9 2.8v5.3h-1.7v-5c0-.9-.2-1.5-.6-1.9s-.9-.6-1.6-.6-1.3.2-1.7.7c-.4.4-.6 1.1-.6 1.9v4.9zM569.7 333.3c0 .1-.1.2-.3.4s-.3.4-.5.5c-.2.2-.5.3-.8.5-.3.1-.7.2-1.1.2q-.75 0-1.5-.3c-.75-.3-.9-.5-1.2-.9s-.6-.9-.8-1.5-.3-1.2-.3-2c0-.7.1-1.4.3-2s.5-1.1.8-1.5.8-.7 1.2-.9 1-.3 1.5-.3c.4 0 .8.1 1.1.2s.6.3.8.5.4.4.5.6.2.3.3.5v-1.5h1.6v8.7c0 .6-.1 1.2-.3 1.7s-.4 1-.8 1.3c-.3.4-.8.7-1.3.9s-1.1.3-1.8.3q-1.05 0-1.8-.3c-.5-.2-.9-.4-1.2-.7s-.5-.5-.7-.8c-.1-.3-.2-.5-.2-.7h1.7l.2.2c.1.1.2.2.4.3s.4.2.7.3.6.1 1 .1c.8 0 1.5-.2 1.9-.7q.6-.75.6-2.1zm0-3c0-.4-.1-.9-.2-1.3s-.3-.7-.5-1-.5-.5-.8-.7-.6-.2-1-.2-.7.1-1 .2c-.3.2-.6.4-.8.7s-.4.6-.5 1-.2.8-.2 1.3c0 .4.1.9.2 1.2.1.4.3.7.5 1s.5.5.8.7.6.2 1 .2.7-.1 1-.2c.3-.2.6-.4.8-.7s.4-.6.5-1c.2-.3.2-.8.2-1.2" class="st4"/><path d="M379.7 345.1h226.2v28.4H379.7z" class="st16"/><path d="M420 354h9.7v1.6h-8v3.6h4.6v1.6h-4.6v6H420zM432.7 366.8H431v-8.9h1.6v1.6c.1-.2.2-.3.3-.5s.3-.4.6-.5.5-.3.9-.4.8-.2 1.3-.2h1.7v1.6h-1.9c-1 0-1.8.2-2.2.6s-.7 1-.7 1.7v5zM445.4 365.3c-.1.1-.1.3-.3.5-.1.2-.3.4-.5.5s-.5.3-.8.4-.7.2-1.1.2q-.75 0-1.5-.3t-1.2-.9c-.3-.4-.6-.9-.8-1.5s-.3-1.2-.3-2c0-.7.1-1.4.3-2s.5-1.1.8-1.5q.45-.6 1.2-.9t1.5-.3c.4 0 .8.1 1.1.2s.6.3.8.5.4.4.5.6.2.3.3.5v-1.5h1.6v8.9h-1.6zm.1-2.9c0-.4-.1-.9-.2-1.2s-.3-.7-.5-1-.4-.5-.7-.7-.6-.2-1-.2-.7.1-1 .2c-.3.2-.5.4-.7.7s-.3.6-.5 1-.2.8-.2 1.2.1.9.2 1.2c.1.4.3.7.5 1s.4.5.7.7.6.2 1 .2.7-.1 1-.2c.3-.2.5-.4.7-.7s.4-.6.5-1 .2-.8.2-1.2M452 366.8h-1.6v-8.9h1.6v1.4c.1-.2.2-.3.3-.5s.3-.4.5-.5.5-.3.7-.4c.3-.1.6-.2 1-.2.7 0 1.4.2 1.9.5s.9.8 1.2 1.4c.1-.2.2-.4.4-.6q.15-.3.6-.6c.2-.2.5-.4.8-.5s.7-.2 1.1-.2c.6 0 1 .1 1.5.3.4.2.8.4 1.1.8.3.3.5.7.7 1.2.2.4.2.9.2 1.5v5.4h-1.7v-5.1c0-.7-.2-1.3-.5-1.8-.4-.5-.9-.7-1.6-.7s-1.2.2-1.6.7q-.6.75-.6 1.8v5.1h-1.7v-5.1c0-.7-.2-1.3-.5-1.8-.4-.5-.9-.7-1.6-.7s-1.2.2-1.6.7-.5 1.1-.5 1.8v5zM470.7 357.7c.6 0 1.1.1 1.6.3s.9.5 1.3.9.6.9.8 1.5.3 1.2.3 1.9v.3h-6.4c0 .4.1.8.2 1.1.1.4.3.7.5.9s.5.5.8.6.7.2 1.1.2.7 0 1-.1.5-.2.7-.3.3-.2.4-.4.2-.2.2-.3h1.6c0 .2-.1.4-.3.7l-.6.9c-.3.3-.7.5-1.1.7-.5.2-1.1.3-1.7.3s-1.2-.1-1.8-.4c-.5-.2-1-.6-1.3-1-.4-.4-.6-.9-.8-1.5q-.3-.9-.3-1.8c0-.7.1-1.3.3-1.9s.5-1.1.8-1.5.8-.7 1.3-1c.2 0 .8-.1 1.4-.1m0 1.4c-.7 0-1.2.2-1.6.6s-.6.9-.8 1.6h4.6c-.1-.7-.4-1.3-.8-1.6-.3-.4-.8-.6-1.4-.6M482.5 354h5.7c1.4 0 2.5.3 3.2.9s1.1 1.5 1.1 2.6q0 .75-.3 1.5c-.2.4-.5.8-.8 1.2-.4.3-.8.6-1.3.7q-.75.3-1.8.3h-4v5.5h-1.7V354zm1.7 1.6v4h4q1.2 0 1.8-.6c.4-.4.6-.9.6-1.4q0-.9-.6-1.5c-.4-.3-1-.5-1.8-.5zM495.2 353.7h1.7v2.5h-1.7zm0 4.2h1.6v8.9h-1.6zM501.8 370.7h-1.6V358h1.6v1.5c0-.1.1-.3.3-.4.1-.2.3-.4.5-.6s.5-.3.8-.5c.3-.1.7-.2 1.2-.2q.75 0 1.5.3t1.2.9c.3.4.6.9.8 1.5s.3 1.2.3 2c0 .7-.1 1.4-.3 2s-.5 1.1-.8 1.5-.8.7-1.2.9q-.75.3-1.5.3c-.4 0-.8-.1-1.1-.2s-.6-.3-.8-.5l-.5-.5c-.1-.2-.2-.3-.3-.4v5.1zm-.1-8.4c0 .4.1.9.2 1.2.1.4.3.7.5 1s.5.5.8.7.7.2 1 .2c.4 0 .7-.1 1-.2.3-.2.6-.4.8-.7s.4-.6.5-1 .2-.8.2-1.2-.1-.9-.2-1.2c-.1-.4-.3-.7-.5-1s-.5-.5-.8-.7-.7-.2-1-.2c-.4 0-.7.1-1 .2-.3.2-.6.4-.8.7s-.4.6-.5 1-.2.8-.2 1.2M514.6 357.7c.6 0 1.1.1 1.6.3s.9.5 1.3.9.6.9.8 1.5.3 1.2.3 1.9v.3h-6.4c0 .4.1.8.2 1.1.1.4.3.7.5.9s.5.5.8.6.7.2 1.1.2.7 0 1-.1.5-.2.7-.3.3-.2.4-.4.2-.2.2-.3h1.6c0 .2-.1.4-.3.7l-.6.9c-.3.3-.7.5-1.1.7-.5.2-1.1.3-1.7.3s-1.2-.1-1.8-.4c-.5-.2-1-.6-1.3-1-.4-.4-.6-.9-.8-1.5q-.3-.9-.3-1.8c0-.7.1-1.3.3-1.9s.5-1.1.8-1.5.8-.7 1.3-1c.3 0 .8-.1 1.4-.1m0 1.4c-.7 0-1.2.2-1.6.6s-.6.9-.8 1.6h4.6c-.1-.7-.4-1.3-.8-1.6-.2-.4-.7-.6-1.4-.6M521.4 353.6h1.6v13.2h-1.6zM526.4 353.7h1.7v2.5h-1.7zm0 4.2h1.6v8.9h-1.6zM533 366.8h-1.6v-8.9h1.6v1.5c.1-.2.2-.4.4-.6.1-.2.3-.4.5-.5.2-.2.5-.3.8-.4s.6-.2 1-.2c1 0 1.9.3 2.5 1s.9 1.6.9 2.8v5.3h-1.7v-5c0-.9-.2-1.5-.6-1.9s-.9-.6-1.6-.6-1.3.2-1.7.7c-.4.4-.6 1.1-.6 1.9v4.9zM542.3 353.7h1.7v2.5h-1.7zm0 4.2h1.6v8.9h-1.6zM548.9 366.8h-1.6v-8.9h1.6v1.5c.1-.2.2-.4.4-.6.1-.2.3-.4.5-.5.2-.2.5-.3.8-.4s.6-.2 1-.2c1 0 1.9.3 2.5 1s.9 1.6.9 2.8v5.3h-1.7v-5c0-.9-.2-1.5-.6-1.9s-.9-.6-1.6-.6-1.3.2-1.7.7c-.4.4-.6 1.1-.6 1.9v4.9zM564.2 365.4c0 .1-.1.2-.3.4s-.3.4-.5.5c-.2.2-.5.3-.8.5-.3.1-.7.2-1.1.2q-.75 0-1.5-.3c-.75-.3-.9-.5-1.2-.9s-.6-.9-.8-1.5-.3-1.2-.3-2c0-.7.1-1.4.3-2s.5-1.1.8-1.5.8-.7 1.2-.9 1-.3 1.5-.3c.4 0 .8.1 1.1.2s.6.3.8.5.4.4.5.6.2.3.3.5v-1.5h1.6v8.7c0 .6-.1 1.2-.3 1.7s-.4 1-.8 1.3c-.3.4-.8.7-1.3.9s-1.1.3-1.8.3q-1.05 0-1.8-.3c-.5-.2-.9-.4-1.2-.7s-.5-.5-.7-.8c-.1-.3-.2-.5-.2-.7h1.7l.2.2c.1.1.2.2.4.3s.4.2.7.3.6.1 1 .1c.8 0 1.5-.2 1.9-.7q.6-.75.6-2.1zm.1-3c0-.4-.1-.9-.2-1.3s-.3-.7-.5-1-.5-.5-.8-.7-.6-.2-1-.2-.7.1-1 .2c-.3.2-.6.4-.8.7s-.4.6-.5 1-.2.8-.2 1.3c0 .4.1.9.2 1.2.1.4.3.7.5 1s.5.5.8.7.6.2 1 .2.7-.1 1-.2c.3-.2.6-.4.8-.7s.4-.6.5-1 .2-.8.2-1.2" class="st4"/><path d="M612 248.9h226.2v28.4H612z" class="st16"/><path d="M643.3 257.8h5.7c1.4 0 2.5.3 3.2.9s1.1 1.5 1.1 2.6q0 .75-.3 1.5c-.3.75-.5.8-.8 1.2s-.8.6-1.3.7q-.75.3-1.8.3h-4v5.5h-1.7v-12.7zm1.7 1.6v4h4q1.2 0 1.8-.6c.6-.6.6-.9.6-1.4q0-.9-.6-1.5c-.6-.6-1-.5-1.8-.5zM656 257.3h1.6v13.2H656zM666.8 269.1c-.1.1-.1.3-.3.5-.1.2-.3.4-.5.5s-.5.3-.8.5c-.3.1-.7.2-1.1.2q-.75 0-1.5-.3t-1.2-.9c-.3-.4-.6-.9-.8-1.5s-.3-1.2-.3-2c0-.7.1-1.4.3-2s.5-1.1.8-1.5.7-.7 1.2-.9q.75-.3 1.5-.3c.4 0 .8.1 1.1.2s.6.3.8.5.4.4.5.6.2.3.3.5v-1.5h1.6v8.9h-1.6zm.1-3c0-.4-.1-.9-.2-1.2-.1-.4-.3-.7-.5-1s-.4-.5-.7-.7-.6-.2-1-.2-.7.1-1 .2c-.3.2-.5.4-.7.7s-.3.6-.5 1c-.1.4-.2.8-.2 1.2s.1.9.2 1.2.3.7.5 1 .4.5.7.7.6.2 1 .2.7-.1 1-.2.5-.4.7-.7.4-.6.5-1 .2-.7.2-1.2M677.9 270.6H676c-2 0-3-1-3-2.9v-4.5h-2.3v-1.5h2.3v-3.9h1.6v3.9h3.2v1.5h-3.2v4.2c0 .6.1 1.1.4 1.3.2.3.7.4 1.4.4h1.5zM682.9 263.2v7.4h-1.6v-7.4H679v-1.5h2.3v-1.4c0-.9.3-1.7.8-2.2s1.3-.8 2.4-.8h3v1.5h-2.8c-.6 0-1 .1-1.3.4s-.4.7-.4 1.3v1.2h3.1v1.5zM691.7 261.5c.6 0 1.2.1 1.7.4.5.2 1 .6 1.3 1 .4.4.6.9.8 1.5q.3.9.3 1.8 0 1.05-.3 1.8c-.2.6-.5 1.1-.8 1.5-.4.4-.8.7-1.3 1-.5.2-1.1.4-1.7.4s-1.2-.1-1.7-.4c-.5-.2-.9-.6-1.3-1s-.6-.9-.8-1.5q-.3-.9-.3-1.8 0-1.05.3-1.8c.2-.6.5-1.1.8-1.5.4-.4.8-.7 1.3-1s1.1-.4 1.7-.4m0 7.8c.4 0 .8-.1 1.1-.2.3-.2.6-.4.8-.7s.4-.6.5-1 .2-.8.2-1.2-.1-.8-.2-1.2-.3-.7-.5-1-.5-.5-.8-.7-.7-.2-1.1-.2-.8.1-1.1.2-.6.4-.8.7-.4.6-.5 1-.2.8-.2 1.2.1.8.2 1.2.3.7.5 1 .5.5.8.7.7.2 1.1.2M700.3 270.6h-1.6v-8.9h1.6v1.6c.1-.2.2-.3.3-.5s.3-.4.6-.5c.2-.2.5-.3.9-.4s.8-.2 1.3-.2h1.7v1.6h-1.9c-1 0-1.8.2-2.2.6s-.7 1-.7 1.7zM708.9 270.6h-1.6v-8.9h1.6v1.4c.1-.2.2-.3.3-.5s.3-.4.5-.5.5-.3.7-.4c.3-.1.6-.2 1-.2.7 0 1.4.2 1.9.5s.9.8 1.2 1.4c.1-.2.2-.4.4-.6q.15-.3.6-.6c.2-.2.5-.4.8-.5s.7-.2 1.1-.2c.6 0 1 .1 1.5.3.4.2.8.4 1.1.8.3.3.5.7.7 1.2s.2.9.2 1.5v5.4h-1.7v-5.1c0-.7-.2-1.3-.5-1.8-.4-.5-.9-.7-1.6-.7s-1.2.2-1.6.7q-.6.75-.6 1.8v5.1h-1.7v-5.1c0-.7-.2-1.3-.5-1.8-.4-.5-.9-.7-1.6-.7s-1.2.2-1.6.7-.5 1.1-.5 1.8v5zM734.1 270.8c-.9 0-1.6-.2-2.3-.5s-1.3-.8-1.8-1.4-.8-1.3-1.1-2.1-.4-1.7-.4-2.6.1-1.8.4-2.6.6-1.5 1.1-2.1 1.1-1.1 1.8-1.4 1.5-.5 2.3-.5c.9 0 1.6.1 2.2.4s1.1.6 1.6 1c.4.4.7.8.9 1.3s.3.9.4 1.3h-1.7c-.1-.2-.2-.4-.4-.7s-.4-.5-.6-.8c-.3-.2-.6-.4-1-.6s-.9-.3-1.4-.3c-.6 0-1.2.1-1.6.4-.5.3-.9.6-1.2 1.1s-.5 1-.7 1.6-.2 1.2-.2 1.9.1 1.3.2 1.9c.2.6.4 1.1.7 1.6s.7.8 1.2 1.1 1 .4 1.6.4c.5 0 1-.1 1.4-.3s.7-.4 1-.6.5-.5.7-.8.3-.5.4-.7h1.7c0 .4-.2.8-.4 1.3s-.5.9-.9 1.3-.9.7-1.6 1-1.5.4-2.3.4M743.6 270.6H742v-13.2h1.6v5.9c.1-.2.2-.4.4-.6.1-.2.3-.4.5-.6s.5-.3.8-.4.6-.2 1-.2c1 0 1.9.3 2.5 1s.9 1.6.9 2.9v5.2H748v-4.9c0-.9-.2-1.6-.6-2-.4-.5-.9-.7-1.6-.7s-1.3.2-1.7.7-.6 1.1-.6 2v4.9zM758.8 269.1c-.1.1-.1.3-.3.5-.1.2-.3.4-.5.5s-.5.3-.8.5c-.3.1-.7.2-1.1.2q-.75 0-1.5-.3t-1.2-.9c-.3-.4-.6-.9-.8-1.5s-.3-1.2-.3-2c0-.7.1-1.4.3-2s.5-1.1.8-1.5.7-.7 1.2-.9q.75-.3 1.5-.3c.4 0 .8.1 1.1.2s.6.3.8.5.4.4.5.6.2.3.3.5v-1.5h1.6v8.9h-1.6zm.1-3c0-.4-.1-.9-.2-1.2-.1-.4-.3-.7-.5-1s-.4-.5-.7-.7-.6-.2-1-.2-.7.1-1 .2c-.3.2-.5.4-.7.7s-.3.6-.5 1c-.1.4-.2.8-.2 1.2s.1.9.2 1.2.3.7.5 1 .4.5.7.7.6.2 1 .2.7-.1 1-.2.5-.4.7-.7.4-.6.5-1 .2-.7.2-1.2M765.4 270.6h-1.6v-8.9h1.6v1.5c.1-.2.2-.4.4-.6.1-.2.3-.4.5-.5.2-.2.5-.3.8-.4s.6-.2 1-.2c1 0 1.9.3 2.5 1s.9 1.6.9 2.8v5.3h-1.7v-5c0-.9-.2-1.5-.6-1.9s-.9-.6-1.6-.6-1.3.2-1.7.7c-.4.4-.6 1.1-.6 1.9v4.9zM776.4 270.6h-1.6v-8.9h1.6v1.5c.1-.2.2-.4.4-.6.1-.2.3-.4.5-.5.2-.2.5-.3.8-.4s.6-.2 1-.2c1 0 1.9.3 2.5 1s.9 1.6.9 2.8v5.3h-1.7v-5c0-.9-.2-1.5-.6-1.9s-.9-.6-1.6-.6-1.3.2-1.7.7c-.4.4-.6 1.1-.6 1.9v4.9zM789.2 261.5c.6 0 1.1.1 1.6.3s.9.5 1.3.9.6.9.8 1.5.3 1.2.3 1.9v.3h-6.4c0 .4.1.8.2 1.1.1.4.3.7.5.9.2.3.5.5.8.6s.7.2 1.1.2.7 0 1-.1.5-.2.7-.3.3-.2.4-.4.2-.2.2-.3h1.6c0 .2-.1.4-.3.7-.1.3-.4.6-.6.9s-.7.5-1.1.7c-.5.2-1.1.3-1.7.3s-1.2-.1-1.8-.4c-.5-.2-1-.6-1.3-1-.4-.4-.6-.9-.8-1.5q-.3-.9-.3-1.8c0-.7.1-1.3.3-1.9s.5-1.1.8-1.5.8-.7 1.3-1c.2 0 .8-.1 1.4-.1m0 1.4c-.7 0-1.2.2-1.6.6s-.6.9-.8 1.6h4.6c-.1-.7-.4-1.3-.8-1.6-.3-.4-.8-.6-1.4-.6M795.9 257.3h1.6v13.2h-1.6zM803.4 266.8c-.9-.1-1.6-.4-2.1-.8-.6-.4-.8-1.1-.8-1.9 0-.4.1-.8.3-1.1s.4-.6.7-.8.7-.4 1.1-.5.9-.2 1.4-.2q1.05 0 1.8.3c.5.2.9.4 1.2.7s.5.5.6.8.2.5.3.7h-1.6l-.2-.2c-.1-.1-.2-.2-.4-.3s-.4-.2-.7-.3-.6-.1-1-.1c-.6 0-1.1.1-1.4.3s-.5.5-.5.8c0 .7.5 1.1 1.6 1.2l1.2.1c1.1.1 1.8.4 2.3.9s.7 1.1.7 1.9c0 .4-.1.7-.2 1.1-.2.3-.4.6-.7.9s-.7.4-1.1.6c-.4.1-.9.2-1.5.2-.8 0-1.4-.1-1.9-.3s-.9-.4-1.3-.7c-.3-.3-.6-.6-.7-.9s-.3-.6-.3-.8h1.7c0 .1.1.2.2.3s.2.3.4.4.5.2.8.4c.3.1.7.2 1.1.2.6 0 1.1-.1 1.4-.3s.5-.5.5-.9-.1-.7-.4-.9c-.2-.2-.6-.3-1.2-.4z" class="st4"/><path d="M612 281h226.2v28.4H612z" class="st16"/><path d="M666.7 291.3c-.9 0-1.6.2-2.1.5s-.7.8-.7 1.4c0 .3.1.6.2.8s.3.4.5.5.5.3.8.4.6.2 1 .2l1.7.3c.5.1 1 .2 1.5.4s.9.4 1.3.6c.4.3.7.6.9 1.1s.4 1 .4 1.6q0 .75-.3 1.5t-.9 1.2c-.4.4-.9.6-1.5.8s-1.3.3-2 .3q-1.35 0-2.4-.3c-.7-.2-1.2-.5-1.7-.9s-.8-.8-1.1-1.2-.5-.9-.6-1.3h1.9c.1.2.2.4.4.7s.4.5.7.7.7.4 1.1.5c.5.1 1 .2 1.6.2.9 0 1.6-.2 2.2-.6.5-.4.8-.9.8-1.6 0-.4-.1-.7-.2-.9s-.3-.4-.5-.6-.5-.3-.8-.4-.6-.2-1-.2l-1.7-.3c-.6-.1-1.1-.2-1.6-.4s-.9-.4-1.3-.7-.6-.6-.8-1q-.3-.6-.3-1.5 0-.75.3-1.5c.2-.4.5-.8.9-1.1s.9-.5 1.4-.7c.6-.2 1.2-.2 1.8-.2.8 0 1.5.1 2.2.3.6.2 1.1.5 1.5.8s.8.7 1 1.1.4.8.5 1.2H670c-.1-.2-.2-.4-.4-.6s-.4-.4-.7-.5-.6-.3-1-.4c-.3-.2-.7-.2-1.2-.2M675.1 289.5h1.7v2.5h-1.7zm0 4.3h1.6v8.9h-1.6zM682.6 298.8c-.9-.1-1.6-.4-2.1-.8-.6-.4-.8-1.1-.8-1.9 0-.4.1-.8.3-1.1s.4-.6.7-.8.7-.4 1.1-.5.9-.2 1.4-.2q1.05 0 1.8.3c.5.2.9.4 1.2.7s.5.5.6.8.2.5.3.7h-1.6l-.2-.2c-.1-.1-.2-.2-.4-.3s-.4-.2-.7-.3-.6-.1-1-.1c-.6 0-1.1.1-1.4.3s-.5.5-.5.8c0 .7.5 1.1 1.6 1.2l1.2.1c1.1.1 1.8.4 2.3.9s.7 1.1.7 1.9c0 .4-.1.7-.2 1.1-.2.3-.4.6-.7.9s-.7.4-1.1.6c-.4.1-.9.2-1.5.2-.8 0-1.4-.1-1.9-.3s-.9-.4-1.3-.7c-.3-.3-.6-.6-.7-.9s-.3-.6-.3-.8h1.7c0 .1.1.2.2.3s.2.3.4.4.5.2.8.4c.3.1.7.2 1.1.2.6 0 1.1-.1 1.4-.3s.5-.5.5-.9-.1-.7-.4-.9c-.2-.2-.6-.3-1.2-.4zM695.8 302.7h-1.9c-2 0-3-1-3-2.9v-4.5h-2.3v-1.5h2.3v-3.9h1.6v3.9h3.2v1.5h-3.2v4.2c0 .6.1 1.1.4 1.3.2.3.7.4 1.4.4h1.5zM701.8 293.5c.6 0 1.1.1 1.6.3s.9.5 1.3.9.6.9.8 1.5.3 1.2.3 1.9v.3h-6.4c0 .4.1.8.2 1.1.1.4.3.7.5.9.2.3.5.5.8.6s.7.2 1.1.2.7 0 1-.1.5-.2.7-.3.3-.2.4-.4.2-.2.2-.3h1.6c0 .2-.1.4-.3.7-.1.3-.4.6-.6.9s-.7.5-1.1.7c-.5.2-1.1.3-1.7.3s-1.2-.1-1.8-.4c-.5-.2-1-.6-1.3-1-.4-.4-.6-.9-.8-1.5q-.3-.9-.3-1.8c0-.7.1-1.3.3-1.9s.5-1.1.8-1.5.8-.7 1.3-1c.2 0 .8-.1 1.4-.1m0 1.4c-.7 0-1.2.2-1.6.6s-.6.9-.8 1.6h4.6c-.1-.7-.4-1.3-.8-1.6-.3-.4-.8-.6-1.4-.6M710.1 302.7h-1.6v-8.9h1.6v1.4c.1-.2.2-.3.3-.5s.3-.4.5-.5.5-.3.7-.4c.3-.1.6-.2 1-.2.7 0 1.4.2 1.9.5s.9.8 1.2 1.4c.1-.2.2-.4.4-.6q.15-.3.6-.6c.2-.2.5-.4.8-.5s.7-.2 1.1-.2c.6 0 1 .1 1.5.3.4.2.8.4 1.1.8.3.3.5.7.7 1.2s.2.9.2 1.5v5.4h-1.7v-5.1c0-.7-.2-1.3-.5-1.8-.4-.5-.9-.7-1.6-.7s-1.2.2-1.6.7q-.6.75-.6 1.8v5.1h-1.7v-5.1c0-.7-.2-1.3-.5-1.8-.4-.5-.9-.7-1.6-.7s-1.2.2-1.6.7-.5 1.1-.5 1.8v5zM730.4 289.9h9.2v1.6h-7.5v3.6h4.4v1.6h-4.4v4.4h8.1v1.6h-9.8zM746.3 302.8h-1.5l-3.7-9.1h1.8l2.6 6.7 2.6-6.7h1.7zM755.4 293.5c.6 0 1.1.1 1.6.3s.9.5 1.3.9.6.9.8 1.5.3 1.2.3 1.9v.3H753c0 .4.1.8.2 1.1.1.4.3.7.5.9.2.3.5.5.8.6s.7.2 1.1.2.7 0 1-.1.5-.2.7-.3.3-.2.4-.4.2-.2.2-.3h1.6c0 .2-.1.4-.3.7-.1.3-.4.6-.6.9s-.7.5-1.1.7c-.5.2-1.1.3-1.7.3s-1.2-.1-1.8-.4c-.5-.2-1-.6-1.3-1-.4-.4-.6-.9-.8-1.5q-.3-.9-.3-1.8c0-.7.1-1.3.3-1.9s.5-1.1.8-1.5.8-.7 1.3-1c.3 0 .8-.1 1.4-.1m0 1.4c-.7 0-1.2.2-1.6.6s-.6.9-.8 1.6h4.6c-.1-.7-.4-1.3-.8-1.6-.2-.4-.7-.6-1.4-.6M763.8 302.7h-1.6v-8.9h1.6v1.5c.1-.2.2-.4.4-.6.1-.2.3-.4.5-.5.2-.2.5-.3.8-.4s.6-.2 1-.2c1 0 1.9.3 2.5 1s.9 1.6.9 2.8v5.3h-1.7v-5c0-.9-.2-1.5-.6-1.9s-.9-.6-1.6-.6-1.3.2-1.7.7c-.4.4-.6 1.1-.6 1.9v4.9zM778.9 302.7H777c-2 0-3-1-3-2.9v-4.5h-2.3v-1.5h2.3v-3.9h1.6v3.9h3.2v1.5h-3.2v4.2c0 .6.1 1.1.4 1.3.2.3.7.4 1.4.4h1.5zM784 298.8c-.9-.1-1.6-.4-2.1-.8-.6-.4-.8-1.1-.8-1.9 0-.4.1-.8.3-1.1s.4-.6.7-.8.7-.4 1.1-.5.9-.2 1.4-.2q1.05 0 1.8.3c.5.2.9.4 1.2.7s.5.5.6.8.2.5.3.7h-1.6l-.2-.2c-.1-.1-.2-.2-.4-.3s-.4-.2-.7-.3-.6-.1-1-.1c-.6 0-1.1.1-1.4.3s-.5.5-.5.8c0 .7.5 1.1 1.6 1.2l1.2.1c1.1.1 1.8.4 2.3.9s.7 1.1.7 1.9c0 .4-.1.7-.2 1.1-.2.3-.4.6-.7.9s-.7.4-1.1.6c-.4.1-.9.2-1.5.2-.8 0-1.4-.1-1.9-.3s-.9-.4-1.3-.7c-.3-.3-.6-.6-.7-.9s-.3-.6-.3-.8h1.7c0 .1.1.2.2.3s.2.3.4.4.5.2.8.4c.3.1.7.2 1.1.2.6 0 1.1-.1 1.4-.3s.5-.5.5-.9-.1-.7-.4-.9c-.2-.2-.6-.3-1.2-.4z" class="st4"/><path d="M612 313h226.2v28.4H612z" class="st16"/><path d="M659.4 331.7h-6.1l-1.3 3h-1.7l5.3-12.9h1.5l5.3 12.9h-1.8zm-.7-1.6-2.4-5.8-2.4 5.8zM667.2 330.9c-.9-.1-1.6-.4-2.1-.8-.6-.4-.8-1.1-.8-1.9 0-.4.1-.8.3-1.1s.4-.6.7-.8.7-.4 1.1-.5.9-.2 1.4-.2q1.05 0 1.8.3c.5.2.9.4 1.2.7s.5.5.6.8.2.5.3.7H670l-.2-.2c-.1-.1-.2-.2-.4-.3s-.4-.2-.7-.3-.6-.1-1-.1c-.6 0-1.1.1-1.4.3s-.5.5-.5.8c0 .7.5 1.1 1.6 1.2l1.2.1c1.1.1 1.8.4 2.3.9s.7 1.1.7 1.9c0 .4-.1.7-.2 1.1-.2.3-.4.6-.7.9-.3.2-.7.4-1.1.6-.4.1-.9.2-1.5.2-.8 0-1.4-.1-1.9-.3s-.9-.4-1.3-.7c-.3-.3-.6-.6-.7-.9-.2-.3-.3-.6-.3-.8h1.7c0 .1.1.2.2.3s.2.3.4.4.5.2.8.4c.3.1.7.2 1.1.2.6 0 1.1-.1 1.4-.3s.5-.5.5-.9-.1-.7-.4-.9-.6-.3-1.2-.4zM676.9 330.9c-.9-.1-1.6-.4-2.1-.8-.6-.4-.8-1.1-.8-1.9 0-.4.1-.8.3-1.1s.4-.6.7-.8.7-.4 1.1-.5.9-.2 1.4-.2q1.05 0 1.8.3c.5.2.9.4 1.2.7s.5.5.6.8.2.5.3.7h-1.6l-.2-.2c-.1-.1-.2-.2-.4-.3s-.4-.2-.7-.3-.6-.1-1-.1c-.6 0-1.1.1-1.4.3s-.5.5-.5.8c0 .7.5 1.1 1.6 1.2l1.2.1c1.1.1 1.8.4 2.3.9s.7 1.1.7 1.9c0 .4-.1.7-.2 1.1-.2.3-.4.6-.7.9-.3.2-.7.4-1.1.6-.4.1-.9.2-1.5.2-.8 0-1.4-.1-1.9-.3s-.9-.4-1.3-.7c-.3-.3-.6-.6-.7-.9-.2-.3-.3-.6-.3-.8h1.7c0 .1.1.2.2.3s.2.3.4.4.5.2.8.4c.3.1.7.2 1.1.2.6 0 1.1-.1 1.4-.3s.5-.5.5-.9-.1-.7-.4-.9-.6-.3-1.2-.4zM687.5 325.6c.6 0 1.1.1 1.6.3s.9.5 1.3.9.6.9.8 1.5.3 1.2.3 1.9v.3h-6.4c0 .4.1.8.2 1.1.1.4.3.7.5.9s.5.5.8.6.7.2 1.1.2.7 0 1-.1.5-.2.7-.3.3-.2.4-.4.2-.2.2-.3h1.6c0 .2-.1.4-.3.7l-.6.9c-.3.3-.7.5-1.1.7-.5.2-1.1.3-1.7.3s-1.2-.1-1.8-.4c-.5-.2-1-.6-1.3-1-.4-.4-.6-.9-.8-1.5q-.3-.9-.3-1.8c0-.7.1-1.3.3-1.9s.5-1.1.8-1.5.8-.7 1.3-1c.3 0 .8-.1 1.4-.1m0 1.4c-.7 0-1.2.2-1.6.6s-.6.9-.8 1.6h4.6c-.1-.7-.4-1.3-.8-1.6-.2-.4-.7-.6-1.4-.6M700.2 334.7h-1.9c-2 0-3-1-3-2.9v-4.5H693v-1.5h2.3v-3.9h1.6v3.9h3.2v1.5h-3.2v4.2c0 .6.1 1.1.4 1.3.2.3.7.4 1.4.4h1.5zM707.8 321.9h5.8c1.4 0 2.4.3 3.1.9s1.1 1.5 1.1 2.6c0 .9-.2 1.7-.7 2.2-.5.6-1.2.9-2.1 1.1l3.4 5.9h-1.9l-3.3-5.7h-3.6v5.7h-1.7v-12.7zm1.7 1.7v3.8h4c.8 0 1.4-.2 1.8-.5s.6-.8.6-1.4-.2-1.1-.6-1.4-1-.5-1.8-.5zM724.4 325.6c.6 0 1.1.1 1.6.3s.9.5 1.3.9.6.9.8 1.5.3 1.2.3 1.9v.3H722c0 .4.1.8.2 1.1.1.4.3.7.5.9s.5.5.8.6.7.2 1.1.2.7 0 1-.1.5-.2.7-.3.3-.2.4-.4.2-.2.2-.3h1.6c0 .2-.1.4-.3.7l-.6.9c-.3.3-.7.5-1.1.7-.5.2-1.1.3-1.7.3s-1.2-.1-1.8-.4c-.5-.2-1-.6-1.3-1-.4-.4-.6-.9-.8-1.5q-.3-.9-.3-1.8c0-.7.1-1.3.3-1.9s.5-1.1.8-1.5.8-.7 1.3-1c.2 0 .8-.1 1.4-.1m0 1.4c-.7 0-1.2.2-1.6.6s-.6.9-.8 1.6h4.6c-.1-.7-.4-1.3-.8-1.6-.3-.4-.8-.6-1.4-.6M733.6 330.9c-.9-.1-1.6-.4-2.1-.8-.6-.4-.8-1.1-.8-1.9 0-.4.1-.8.3-1.1s.4-.6.7-.8.7-.4 1.1-.5.9-.2 1.4-.2q1.05 0 1.8.3c.5.2.9.4 1.2.7s.5.5.6.8.2.5.3.7h-1.6l-.2-.2c-.1-.1-.2-.2-.4-.3s-.4-.2-.7-.3-.6-.1-1-.1c-.6 0-1.1.1-1.4.3s-.5.5-.5.8c0 .7.5 1.1 1.6 1.2l1.2.1c1.1.1 1.8.4 2.3.9s.7 1.1.7 1.9c0 .4-.1.7-.2 1.1-.2.3-.4.6-.7.9-.3.2-.7.4-1.1.6-.4.1-.9.2-1.5.2-.8 0-1.4-.1-1.9-.3s-.9-.4-1.3-.7c-.3-.3-.6-.6-.7-.9-.2-.3-.3-.6-.3-.8h1.7c0 .1.1.2.2.3s.2.3.4.4.5.2.8.4c.3.1.7.2 1.1.2.6 0 1.1-.1 1.4-.3s.5-.5.5-.9-.1-.7-.4-.9-.6-.3-1.2-.4zM744.4 325.6c.6 0 1.2.1 1.7.4s1 .6 1.3 1c.4.4.6.9.8 1.5q.3.9.3 1.8c0 .9-.1 1.3-.3 1.8-.2.6-.5 1.1-.8 1.5-.4.4-.8.7-1.3 1-.5.2-1.1.4-1.7.4s-1.2-.1-1.7-.4c-.5-.2-.9-.6-1.3-1s-.6-.9-.8-1.5q-.3-.9-.3-1.8c0-.9.1-1.3.3-1.8.2-.6.5-1.1.8-1.5.4-.4.8-.7 1.3-1s1.1-.4 1.7-.4m0 7.8c.4 0 .8-.1 1.1-.2.3-.2.6-.4.8-.7s.4-.6.5-1 .2-.8.2-1.2-.1-.8-.2-1.2-.3-.7-.5-1-.5-.5-.8-.7-.7-.2-1.1-.2-.8.1-1.1.2-.6.4-.8.7-.4.6-.5 1-.2.8-.2 1.2.1.8.2 1.2.3.7.5 1 .5.5.8.7.7.2 1.1.2M751.3 321.5h1.6v13.2h-1.6zM760.1 334.9c-.6 0-1.2-.1-1.7-.3s-.9-.4-1.2-.8c-.3-.3-.6-.7-.7-1.2-.2-.5-.2-1-.2-1.5v-5.4h1.7v5.3c0 .7.2 1.2.5 1.6.4.4.9.6 1.6.6s1.2-.2 1.6-.6.6-1 .6-1.6v-5.3h1.6v5.4c0 .5-.1 1-.2 1.4-.2.5-.4.8-.7 1.2s-.7.6-1.2.8c-.6.3-1.1.4-1.7.4M773.2 334.7h-1.9c-2 0-3-1-3-2.9v-4.5H766v-1.5h2.3v-3.9h1.6v3.9h3.2v1.5H770v4.2c0 .6.1 1.1.4 1.3.2.3.7.4 1.4.4h1.5v1.5zM775.7 321.6h1.7v2.5h-1.7zm.1 4.2h1.6v8.9h-1.6zM784.3 325.6c.6 0 1.2.1 1.7.4s1 .6 1.3 1c.4.4.6.9.8 1.5q.3.9.3 1.8c0 .9-.1 1.3-.3 1.8-.2.6-.5 1.1-.8 1.5-.4.4-.8.7-1.3 1-.5.2-1.1.4-1.7.4s-1.2-.1-1.7-.4c-.5-.2-.9-.6-1.3-1s-.6-.9-.8-1.5q-.3-.9-.3-1.8c0-.9.1-1.3.3-1.8.2-.6.5-1.1.8-1.5.4-.4.8-.7 1.3-1s1.1-.4 1.7-.4m0 7.8c.4 0 .8-.1 1.1-.2.3-.2.6-.4.8-.7s.4-.6.5-1 .2-.8.2-1.2-.1-.8-.2-1.2-.3-.7-.5-1-.5-.5-.8-.7-.7-.2-1.1-.2-.8.1-1.1.2-.6.4-.8.7-.4.6-.5 1-.2.8-.2 1.2.1.8.2 1.2.3.7.5 1 .5.5.8.7.7.2 1.1.2M792.9 334.7h-1.6v-8.9h1.6v1.5c.1-.2.2-.4.4-.6.1-.2.3-.4.5-.5.2-.2.5-.3.8-.4s.6-.2 1-.2c1 0 1.9.3 2.5 1s.9 1.6.9 2.8v5.3h-1.7v-5c0-.9-.2-1.5-.6-1.9s-.9-.6-1.6-.6-1.3.2-1.7.7c-.4.4-.6 1.1-.6 1.9v4.9z" class="st4"/><path d="M612 345.1h226.2v28.4H612z" class="st16"/><path d="M672.1 354h11.6v1.6h-4.9v11.2H677v-11.2h-4.9zM688.1 357.7c.6 0 1.1.1 1.6.3s.9.5 1.3.9.6.9.8 1.5.3 1.2.3 1.9v.3h-6.4c0 .4.1.8.2 1.1.1.4.3.7.5.9s.5.5.8.6.7.2 1.1.2.7 0 1-.1.5-.2.7-.3.3-.2.4-.4.2-.2.2-.3h1.6c0 .2-.1.4-.3.7l-.6.9c-.3.3-.7.5-1.1.7-.5.2-1.1.3-1.7.3s-1.2-.1-1.8-.4c-.5-.2-1-.6-1.3-1-.4-.4-.6-.9-.8-1.5q-.3-.9-.3-1.8c0-.7.1-1.3.3-1.9s.5-1.1.8-1.5.8-.7 1.3-1c.2 0 .8-.1 1.4-.1m0 1.4c-.7 0-1.2.2-1.6.6s-.6.9-.8 1.6h4.6c-.1-.7-.4-1.3-.8-1.6-.3-.4-.8-.6-1.4-.6M698 363.6l-2.6 3.2h-1.9l3.5-4.4-3.6-4.5h2.1l2.5 3.2 2.5-3.2h2l-3.5 4.4 3.5 4.5h-2zM710.7 366.8h-1.9c-2 0-3-1-3-2.9v-4.5h-2.3v-1.5h2.3V354h1.6v3.9h3.2v1.5h-3.2v4.2c0 .6.1 1.1.4 1.3.2.3.7.4 1.4.4h1.5zM727.9 366.8h-9.5V354h1.7v11.1h7.7v1.7zM736.1 365.3c-.1.1-.1.3-.3.5-.1.2-.3.4-.5.5s-.5.3-.8.4-.7.2-1.1.2q-.75 0-1.5-.3t-1.2-.9c-.3-.4-.6-.9-.8-1.5s-.3-1.2-.3-2c0-.7.1-1.4.3-2s.5-1.1.8-1.5q.45-.6 1.2-.9t1.5-.3c.4 0 .8.1 1.1.2s.6.3.8.5.4.4.5.6.2.3.3.5v-1.5h1.6v8.9h-1.6zm0-2.9c0-.4-.1-.9-.2-1.2s-.3-.7-.5-1-.4-.5-.7-.7-.6-.2-1-.2-.7.1-1 .2c-.3.2-.5.4-.7.7s-.3.6-.5 1-.2.8-.2 1.2.1.9.2 1.2c.1.4.3.7.5 1s.4.5.7.7.6.2 1 .2.7-.1 1-.2c.3-.2.5-.4.7-.7s.4-.6.5-1c.2-.4.2-.8.2-1.2M743.5 370.7h-1.6l1.6-4-3.6-8.7h1.8l2.6 6.6 2.6-6.6h1.7zM754.2 357.7c.6 0 1.2.1 1.7.4s1 .6 1.3 1c.4.4.6.9.8 1.5q.3.9.3 1.8c0 .9-.1 1.3-.3 1.8-.2.6-.5 1.1-.8 1.5-.4.4-.8.7-1.3 1-.5.2-1.1.4-1.7.4s-1.2-.1-1.7-.4c-.5-.2-.9-.6-1.3-1s-.6-.9-.8-1.5q-.3-.9-.3-1.8c0-.9.1-1.3.3-1.8.2-.6.5-1.1.8-1.5.4-.4.8-.7 1.3-1s1-.4 1.7-.4m0 7.8c.4 0 .8-.1 1.1-.2.3-.2.6-.4.8-.7s.4-.6.5-1 .2-.8.2-1.2-.1-.8-.2-1.2-.3-.7-.5-1-.5-.5-.8-.7-.7-.2-1.1-.2-.8.1-1.1.2-.6.4-.8.7-.4.6-.5 1-.2.8-.2 1.2.1.8.2 1.2.3.7.5 1 .5.5.8.7.7.2 1.1.2M764.8 367c-.6 0-1.2-.1-1.7-.3s-.9-.4-1.2-.8c-.3-.3-.6-.7-.7-1.2-.2-.5-.2-1-.2-1.5v-5.4h1.7v5.3c0 .7.2 1.2.5 1.6.4.4.9.6 1.6.6s1.2-.2 1.6-.6.6-1 .6-1.6v-5.3h1.6v5.4c0 .5-.1 1-.2 1.4-.2.5-.4.8-.7 1.2s-.7.6-1.2.8c-.5.3-1.1.4-1.7.4M777.9 366.8H776c-2 0-3-1-3-2.9v-4.5h-2.3v-1.5h2.3V354h1.6v3.9h3.2v1.5h-3.2v4.2c0 .6.1 1.1.4 1.3.2.3.7.4 1.4.4h1.5z" class="st4"/><path d="M147.3 400.7h226.2v28.4H147.3z" class="st29"/><path d="M163.5 409.6h5.8c1.4 0 2.4.3 3.1.9s1.1 1.5 1.1 2.6c0 .9-.2 1.7-.7 2.2-.5.6-1.2.9-2.1 1.1l3.4 5.9h-1.9l-3.3-5.7h-3.6v5.7h-1.7v-12.7zm1.7 1.6v3.8h4c.8 0 1.4-.2 1.8-.5s.6-.8.6-1.4-.2-1.1-.6-1.4-1-.5-1.8-.5zM180 413.3c.6 0 1.1.1 1.6.3s.9.5 1.3.9.6.9.8 1.5.3 1.2.3 1.9v.3h-6.4c0 .4.1.8.2 1.1.1.4.3.7.5.9s.5.5.8.6.7.2 1.1.2.7 0 1-.1.5-.2.7-.3.3-.2.4-.4.2-.2.2-.3h1.6c0 .2-.1.4-.3.7l-.6.9c-.3.3-.7.5-1.1.7-.5.2-1.1.3-1.7.3s-1.2-.1-1.8-.4c-.5-.2-1-.6-1.3-1-.4-.4-.6-.9-.8-1.5q-.3-.9-.3-1.8c0-.7.1-1.3.3-1.9s.5-1.1.8-1.5.8-.7 1.3-1c.3 0 .8-.1 1.4-.1m0 1.4c-.7 0-1.2.2-1.6.6s-.6.9-.8 1.6h4.6c-.1-.7-.4-1.3-.8-1.6-.2-.4-.7-.6-1.4-.6M188.4 422.4h-1.6v-8.9h1.6v1.5c.1-.2.2-.4.4-.6.1-.2.3-.4.5-.5.2-.2.5-.3.8-.4s.6-.2 1-.2c1 0 1.9.3 2.5 1s.9 1.6.9 2.8v5.3h-1.7v-5c0-.9-.2-1.5-.6-1.9s-.9-.6-1.6-.6-1.3.2-1.7.7c-.4.4-.6 1.1-.6 1.9v4.9zM203.8 420.9c-.1.1-.2.3-.3.5s-.3.4-.5.6-.5.3-.8.5-.7.2-1.1.2q-.75 0-1.5-.3t-1.2-.9c-.3-.4-.6-.9-.8-1.5s-.3-1.2-.3-2c0-.7.1-1.4.3-2s.5-1.1.8-1.5.8-.7 1.2-.9q.75-.3 1.5-.3c.4 0 .8.1 1.1.2s.6.3.8.5.4.4.5.6.2.3.3.4v-5.8h1.6v13.2h-1.6zm0-3c0-.4-.1-.9-.2-1.2-.1-.4-.3-.7-.5-1s-.5-.5-.8-.7-.7-.2-1-.2c-.4 0-.7.1-1 .2-.3.2-.6.4-.8.7s-.4.6-.5 1-.2.8-.2 1.2.1.9.2 1.2c.1.4.3.7.5 1s.5.5.8.7.7.2 1 .2c.4 0 .7-.1 1-.2.3-.2.6-.4.8-.7s.4-.6.5-1c.2-.3.2-.7.2-1.2M212.2 413.3c.6 0 1.1.1 1.6.3s.9.5 1.3.9.6.9.8 1.5.3 1.2.3 1.9v.3h-6.4c0 .4.1.8.2 1.1.1.4.3.7.5.9s.5.5.8.6.7.2 1.1.2.7 0 1-.1.5-.2.7-.3.3-.2.4-.4.2-.2.2-.3h1.6c0 .2-.1.4-.3.7l-.6.9c-.3.3-.7.5-1.1.7-.5.2-1.1.3-1.7.3s-1.2-.1-1.8-.4c-.5-.2-1-.6-1.3-1-.4-.4-.6-.9-.8-1.5q-.3-.9-.3-1.8c0-.7.1-1.3.3-1.9s.5-1.1.8-1.5.8-.7 1.3-1c.3 0 .8-.1 1.4-.1m0 1.4c-.7 0-1.2.2-1.6.6s-.6.9-.8 1.6h4.6c-.1-.7-.4-1.3-.8-1.6-.2-.4-.7-.6-1.4-.6M220.6 422.4H219v-8.9h1.6v1.6c.1-.2.2-.3.3-.5s.3-.4.6-.5.5-.3.9-.4.8-.2 1.3-.2h1.7v1.6h-1.9c-1 0-1.8.2-2.2.6s-.7 1-.7 1.7zM236.6 411c-.9 0-1.6.2-2.1.5s-.7.8-.7 1.4c0 .3.1.6.2.8s.3.4.5.5.5.3.8.4.6.2 1 .2l1.7.3c.5.1 1 .2 1.5.4s.9.4 1.3.6c.4.3.7.6.9 1.1s.4 1 .4 1.6q0 .75-.3 1.5t-.9 1.2c-.4.4-.9.6-1.5.8s-1.3.3-2 .3q-1.35 0-2.4-.3c-1.05-.3-1.2-.5-1.7-.9s-.8-.8-1.1-1.2-.5-.9-.6-1.3h1.9c.1.2.2.4.4.7s.4.5.7.7.7.4 1.1.5c.5.1 1 .2 1.6.2.9 0 1.6-.2 2.2-.6.5-.4.8-.9.8-1.6 0-.4-.1-.7-.2-.9s-.3-.4-.5-.6-.5-.3-.8-.4-.6-.2-1-.2l-1.7-.2c-.6-.1-1.1-.2-1.6-.4s-.9-.4-1.3-.7-.6-.6-.8-1q-.3-.6-.3-1.5 0-.75.3-1.5c.3-.75.5-.8.9-1.1s.9-.5 1.4-.7c.6-.2 1.2-.2 1.8-.2.8 0 1.5.1 2.2.3s1.1.5 1.5.8.8.7 1 1.1.4.8.5 1.2H240c-.1-.2-.2-.4-.4-.6s-.4-.4-.7-.5c-.3-.2-.6-.3-1-.4-.3-.2-.8-.3-1.3-.3M248.8 422.6c-.6 0-1.2-.1-1.7-.3s-.9-.4-1.2-.8c-.3-.3-.6-.7-.7-1.2-.2-.5-.2-1-.2-1.5v-5.4h1.7v5.3c0 .7.2 1.2.5 1.6.4.4.9.6 1.6.6s1.2-.2 1.6-.6.6-1 .6-1.6v-5.3h1.6v5.4c0 .5-.1 1-.2 1.4-.2.5-.4.8-.7 1.2s-.7.6-1.2.8c-.6.3-1.1.4-1.7.4M257.4 422.4h-1.6v-8.9h1.6v1.6c.1-.2.2-.3.3-.5s.3-.4.6-.5.5-.3.9-.4.8-.2 1.3-.2h1.7v1.6h-1.9c-1 0-1.8.2-2.2.6s-.7 1-.7 1.7zM267.3 414.9v7.4h-1.6v-7.4h-2.3v-1.5h2.3V412c0-.9.3-1.7.8-2.2s1.3-.8 2.4-.8h3v1.5H269c-.6 0-1 .1-1.3.4s-.4.7-.4 1.3v1.2h3.1v1.5zM278.3 420.9c-.1.1-.1.3-.3.5-.1.2-.3.4-.5.5s-.5.3-.8.4-.7.2-1.1.2q-.75 0-1.5-.3t-1.2-.9c-.3-.4-.6-.9-.8-1.5s-.3-1.2-.3-2c0-.7.1-1.4.3-2s.5-1.1.8-1.5q.45-.6 1.2-.9t1.5-.3c.4 0 .8.1 1.1.2s.6.3.8.5.4.4.5.6.2.3.3.5v-1.5h1.6v8.9h-1.6zm.1-3c0-.4-.1-.9-.2-1.2s-.3-.7-.5-1-.4-.5-.7-.7-.6-.2-1-.2-.7.1-1 .2c-.3.2-.5.4-.7.7s-.3.6-.5 1-.2.8-.2 1.2.1.9.2 1.2c.1.4.3.7.5 1s.4.5.7.7.6.2 1 .2.7-.1 1-.2c.3-.2.5-.4.7-.7s.4-.6.5-1c.1-.3.2-.7.2-1.2M288.7 415.8c-.1-.2-.2-.3-.4-.5-.2-.1-.4-.3-.6-.4-.3-.1-.6-.2-.9-.2-.4 0-.7.1-1 .2-.3.2-.5.4-.7.7s-.4.6-.5 1-.2.8-.2 1.2.1.9.2 1.2.3.7.5 1 .5.5.7.7c.3.2.6.2 1 .2s.7-.1.9-.2c.3-.1.5-.2.6-.4.2-.1.3-.3.4-.4s.2-.3.2-.3h1.6c0 .1-.1.4-.2.7s-.3.6-.6 1c-.3.3-.7.6-1.1.8-.5.2-1.1.4-1.8.4-.6 0-1.1-.1-1.6-.4-.5-.2-.9-.6-1.3-1q-.6-.6-.9-1.5c-.2-.6-.3-1.2-.3-1.9s.1-1.3.3-1.9.5-1.1.8-1.5c.4-.4.8-.7 1.3-1 .5-.2 1-.4 1.6-.4.7 0 1.3.1 1.8.4.5.2.8.5 1.1.8s.5.6.6 1c.1.3.2.6.2.7h-1.6c0 .3 0 .1-.1 0M296.4 413.3c.6 0 1.1.1 1.6.3s.9.5 1.3.9.6.9.8 1.5.3 1.2.3 1.9v.3H294c0 .4.1.8.2 1.1.1.4.3.7.5.9s.5.5.8.6.7.2 1.1.2.7 0 1-.1.5-.2.7-.3.3-.2.4-.4.2-.2.2-.3h1.6c0 .2-.1.4-.3.7l-.6.9c-.3.3-.7.5-1.1.7-.5.2-1.1.3-1.7.3s-1.2-.1-1.8-.4c-.5-.2-1-.6-1.3-1-.4-.4-.6-.9-.8-1.5q-.3-.9-.3-1.8c0-.7.1-1.3.3-1.9s.5-1.1.8-1.5.8-.7 1.3-1c.2 0 .8-.1 1.4-.1m0 1.4c-.7 0-1.2.2-1.6.6s-.6.9-.8 1.6h4.6c-.1-.7-.4-1.3-.8-1.6-.2-.4-.8-.6-1.4-.6M312.2 411c-.9 0-1.6.2-2.1.5s-.7.8-.7 1.4c0 .3.1.6.2.8s.3.4.5.5.5.3.8.4.6.2 1 .2l1.7.3c.5.1 1 .2 1.5.4s.9.4 1.3.6c.4.3.7.6.9 1.1s.4 1 .4 1.6q0 .75-.3 1.5t-.9 1.2c-.4.4-.9.6-1.5.8s-1.3.3-2 .3q-1.35 0-2.4-.3c-1.05-.3-1.2-.5-1.7-.9s-.8-.8-1.1-1.2-.5-.9-.6-1.3h1.9c.1.2.2.4.4.7s.4.5.7.7.7.4 1.1.5c.5.1 1 .2 1.6.2.9 0 1.6-.2 2.2-.6.5-.4.8-.9.8-1.6 0-.4-.1-.7-.2-.9s-.3-.4-.5-.6-.5-.3-.8-.4-.6-.2-1-.2l-1.7-.2c-.6-.1-1.1-.2-1.6-.4s-.9-.4-1.3-.7-.6-.6-.8-1q-.3-.6-.3-1.5 0-.75.3-1.5c.3-.75.5-.8.9-1.1s.9-.5 1.4-.7c.6-.2 1.2-.2 1.8-.2.8 0 1.5.1 2.2.3s1.1.5 1.5.8.8.7 1 1.1.4.8.5 1.2h-1.8c-.1-.2-.2-.4-.4-.6s-.4-.4-.7-.5c-.3-.2-.6-.3-1-.4q-.45-.3-1.2-.3M324.1 413.3c.6 0 1.1.1 1.6.3s.9.5 1.3.9.6.9.8 1.5.3 1.2.3 1.9v.3h-6.4c0 .4.1.8.2 1.1.1.4.3.7.5.9s.5.5.8.6.7.2 1.1.2.7 0 1-.1.5-.2.7-.3.3-.2.4-.4.2-.2.2-.3h1.6c0 .2-.1.4-.3.7l-.6.9c-.3.3-.7.5-1.1.7-.5.2-1.1.3-1.7.3s-1.2-.1-1.8-.4c-.5-.2-1-.6-1.3-1-.4-.4-.6-.9-.8-1.5q-.3-.9-.3-1.8c0-.7.1-1.3.3-1.9s.5-1.1.8-1.5.8-.7 1.3-1c.2 0 .7-.1 1.4-.1m0 1.4c-.7 0-1.2.2-1.6.6s-.6.9-.8 1.6h4.6c-.1-.7-.4-1.3-.8-1.6-.3-.4-.8-.6-1.4-.6M336.7 422.4h-1.9c-2 0-3-1-3-2.9V415h-2.3v-1.5h2.3v-3.9h1.6v3.9h3.2v1.5h-3.2v4.2c0 .6.1 1.1.4 1.3.2.3.7.4 1.4.4h1.5zM343 422.6c-.6 0-1.2-.1-1.7-.3s-.9-.4-1.2-.8c-.3-.3-.6-.7-.7-1.2-.2-.5-.2-1-.2-1.5v-5.4h1.7v5.3c0 .7.2 1.2.5 1.6.4.4.9.6 1.6.6s1.2-.2 1.6-.6.6-1 .6-1.6v-5.3h1.6v5.4c0 .5-.1 1-.2 1.4-.2.5-.4.8-.7 1.2s-.7.6-1.2.8c-.6.3-1.1.4-1.7.4M351.6 426.2H350v-12.7h1.6v1.5c0-.1.1-.3.3-.4.1-.2.3-.4.5-.6s.5-.3.8-.5c.3-.1.7-.2 1.2-.2q.75 0 1.5.3t1.2.9c.3.4.6.9.8 1.5s.3 1.2.3 2c0 .7-.1 1.4-.3 2s-.5 1.1-.8 1.5-.8.7-1.2.9q-.75.3-1.5.3c-.4 0-.8-.1-1.1-.2s-.6-.3-.8-.5l-.5-.5c-.1-.2-.2-.3-.3-.4v5.1zm0-8.3c0 .4.1.9.2 1.2.1.4.3.7.5 1s.5.5.8.7.7.2 1 .2c.4 0 .7-.1 1-.2.3-.2.6-.4.8-.7s.4-.6.5-1 .2-.8.2-1.2-.1-.9-.2-1.2c-.1-.4-.3-.7-.5-1s-.5-.5-.8-.7-.7-.2-1-.2c-.4 0-.7.1-1 .2-.3.2-.6.4-.8.7s-.4.6-.5 1c-.2.4-.2.8-.2 1.2" class="st1"/><path d="M147.3 435.5h226.2v28.4H147.3z" class="st29"/><path d="M199.9 444.4h11.6v1.6h-4.9v11.2h-1.7V446H200v-1.6zM215.5 457.2h-1.6V444h1.6v5.9c.1-.2.2-.4.4-.6.1-.2.3-.4.5-.6s.5-.3.8-.4.6-.2 1-.2c1 0 1.9.3 2.5 1s.9 1.6.9 2.9v5.2h-1.7v-4.9c0-.9-.2-1.6-.6-2-.4-.5-.9-.7-1.6-.7s-1.3.2-1.7.7-.6 1.1-.6 2v4.9zM226.5 457.2h-1.6v-8.9h1.6v1.6c.1-.2.2-.3.3-.5s.3-.4.6-.5.5-.3.9-.4.8-.2 1.3-.2h1.7v1.6h-1.9c-1 0-1.8.2-2.2.6s-.7 1-.7 1.7zM236.8 448.1c.6 0 1.1.1 1.6.3s.9.5 1.3.9.6.9.8 1.5.3 1.2.3 1.9v.3h-6.4c0 .4.1.8.2 1.1.1.4.3.7.5.9s.5.5.8.6.7.2 1.1.2.7 0 1-.1.5-.2.7-.3.3-.2.4-.4.2-.2.2-.3h1.6c0 .2-.1.4-.3.7l-.6.9c-.3.3-.7.5-1.1.7-.5.2-1.1.3-1.7.3s-1.2-.1-1.8-.4c-.5-.2-1-.6-1.3-1-.4-.4-.6-.9-.8-1.5q-.3-.9-.3-1.8c0-.7.1-1.3.3-1.9s.5-1.1.8-1.5.8-.7 1.3-1c.3 0 .8-.1 1.4-.1m0 1.4c-.7 0-1.2.2-1.6.6s-.6.9-.8 1.6h4.6c-.1-.7-.4-1.3-.8-1.6-.2-.4-.7-.6-1.4-.6M249.4 455.7c-.1.1-.1.3-.3.5-.1.2-.3.4-.5.5s-.5.3-.8.4-.7.2-1.1.2q-.75 0-1.5-.3t-1.2-.9c-.3-.4-.6-.9-.8-1.5s-.3-1.2-.3-2c0-.7.1-1.4.3-2s.5-1.1.8-1.5q.45-.6 1.2-.9t1.5-.3c.4 0 .8.1 1.1.2s.6.3.8.5.4.4.5.6.2.3.3.5v-1.5h1.6v8.9h-1.6zm.1-2.9c0-.4-.1-.9-.2-1.2s-.3-.7-.5-1-.4-.5-.7-.7-.6-.2-1-.2-.7.1-1 .2c-.3.2-.5.4-.7.7s-.3.6-.5 1-.2.8-.2 1.2.1.9.2 1.2c.1.4.3.7.5 1s.4.5.7.7.6.2 1 .2.7-.1 1-.2c.3-.2.5-.4.7-.7s.4-.6.5-1 .2-.8.2-1.2M260.5 455.7c-.1.1-.2.3-.3.5s-.3.4-.5.6-.5.3-.8.5-.7.2-1.1.2q-.75 0-1.5-.3t-1.2-.9c-.3-.4-.6-.9-.8-1.5s-.3-1.2-.3-2c0-.7.1-1.4.3-2s.5-1.1.8-1.5.8-.7 1.2-.9q.75-.3 1.5-.3c.4 0 .8.1 1.1.2s.6.3.8.5.4.4.5.6.2.3.3.4V444h1.6v13.2h-1.6zm0-2.9c0-.4-.1-.9-.2-1.2-.1-.4-.3-.7-.5-1s-.5-.5-.8-.7-.7-.2-1-.2c-.4 0-.7.1-1 .2-.3.2-.6.4-.8.7s-.4.6-.5 1-.2.8-.2 1.2.1.9.2 1.2c.1.4.3.7.5 1s.5.5.8.7.7.2 1 .2c.4 0 .7-.1 1-.2.3-.2.6-.4.8-.7s.4-.6.5-1 .2-.8.2-1.2M274.5 445.8c-.9 0-1.6.2-2.1.5s-.7.8-.7 1.4c0 .3.1.6.2.8s.3.4.5.5.5.3.8.4.6.2 1 .2l1.7.3c.5.1 1 .2 1.5.4s.9.4 1.3.6c.4.3.7.6.9 1.1s.4 1 .4 1.6q0 .75-.3 1.5t-.9 1.2c-.4.4-.9.6-1.5.8s-1.3.3-2 .3q-1.35 0-2.4-.3c-1.05-.3-1.2-.5-1.7-.9s-.8-.8-1.1-1.2-.5-.9-.6-1.3h1.9c.1.2.2.4.4.7s.4.5.7.7.7.4 1.1.5c.5.1 1 .2 1.6.2.9 0 1.6-.2 2.2-.6.5-.4.8-.9.8-1.6 0-.4-.1-.7-.2-.9s-.3-.4-.5-.6-.5-.3-.8-.4-.6-.2-1-.2l-1.7-.2c-.6-.1-1.1-.2-1.6-.4s-.9-.4-1.3-.7-.6-.6-.8-1q-.3-.6-.3-1.5 0-.75.3-1.5c.3-.75.5-.8.9-1.1s.9-.5 1.4-.7c.6-.2 1.2-.2 1.8-.2.8 0 1.5.1 2.2.3s1.1.5 1.5.8.8.7 1 1.1.4.8.5 1.2h-1.8c-.1-.2-.2-.4-.4-.6s-.4-.4-.7-.5c-.3-.2-.6-.3-1-.4q-.45-.3-1.2-.3M286.3 448.1c.6 0 1.1.1 1.6.3s.9.5 1.3.9.6.9.8 1.5.3 1.2.3 1.9v.3h-6.4c0 .4.1.8.2 1.1.1.4.3.7.5.9s.5.5.8.6.7.2 1.1.2.7 0 1-.1.5-.2.7-.3.3-.2.4-.4.2-.2.2-.3h1.6c0 .2-.1.4-.3.7l-.6.9c-.3.3-.7.5-1.1.7-.5.2-1.1.3-1.7.3s-1.2-.1-1.8-.4c-.5-.2-1-.6-1.3-1-.4-.4-.6-.9-.8-1.5q-.3-.9-.3-1.8c0-.7.1-1.3.3-1.9s.5-1.1.8-1.5.8-.7 1.3-1c.3 0 .8-.1 1.4-.1m0 1.4c-.7 0-1.2.2-1.6.6s-.6.9-.8 1.6h4.6c-.1-.7-.4-1.3-.8-1.6-.2-.4-.7-.6-1.4-.6M299 457.2h-2c-2 0-3-1-3-2.9v-4.5h-2.3v-1.5h2.3v-3.9h1.6v3.9h3.2v1.5h-3.2v4.2c0 .6.1 1.1.4 1.3.2.3.7.4 1.4.4h1.5v1.5zM305.3 457.4c-.6 0-1.2-.1-1.7-.3s-.9-.4-1.2-.8c-.3-.3-.6-.7-.7-1.2-.2-.5-.2-1-.2-1.5v-5.4h1.7v5.3c0 .7.2 1.2.5 1.6.4.4.9.6 1.6.6s1.2-.2 1.6-.6.6-1 .6-1.6v-5.3h1.6v5.4c0 .5-.1 1-.2 1.4-.2.5-.4.8-.7 1.2s-.7.6-1.2.8c-.6.3-1.1.4-1.7.4M313.9 461.1h-1.6v-12.7h1.6v1.5c0-.1.1-.3.3-.4.1-.2.3-.4.5-.6s.5-.3.8-.5c.3-.1.7-.2 1.2-.2q.75 0 1.5.3t1.2.9c.3.4.6.9.8 1.5s.3 1.2.3 2c0 .7-.1 1.4-.3 2s-.5 1.1-.8 1.5-.8.7-1.2.9q-.75.3-1.5.3c-.4 0-.8-.1-1.1-.2s-.6-.3-.8-.5l-.5-.5c-.1-.2-.2-.3-.3-.4v5.1zm0-8.3c0 .4.1.9.2 1.2.1.4.3.7.5 1s.5.5.8.7.7.2 1 .2c.4 0 .7-.1 1-.2.3-.2.6-.4.8-.7s.4-.6.5-1 .2-.8.2-1.2-.1-.9-.2-1.2c-.1-.4-.3-.7-.5-1s-.5-.5-.8-.7-.7-.2-1-.2c-.4 0-.7.1-1 .2-.3.2-.6.4-.8.7s-.4.6-.5 1c-.2.3-.2.7-.2 1.2" class="st1"/><path d="M379.7 400.7h226.2v28.4H379.7z" class="st29"/><path d="M441 422.5h-1.3l-7.7-10.6v10.5h-1.7v-12.8h2.1l6.9 9.7v-9.7h1.7zM450.5 420.9c-.1.1-.1.3-.3.5-.1.2-.3.4-.5.5s-.5.3-.8.4-.7.2-1.1.2q-.75 0-1.5-.3t-1.2-.9c-.3-.4-.6-.9-.8-1.5s-.3-1.2-.3-2c0-.7.1-1.4.3-2s.5-1.1.8-1.5q.45-.6 1.2-.9t1.5-.3c.4 0 .8.1 1.1.2s.6.3.8.5.4.4.5.6.2.3.3.5v-1.5h1.6v8.9h-1.6zm0-3c0-.4-.1-.9-.2-1.2s-.3-.7-.5-1-.4-.5-.7-.7-.6-.2-1-.2-.7.1-1 .2c-.3.2-.5.4-.7.7s-.3.6-.5 1-.2.8-.2 1.2.1.9.2 1.2c.1.4.3.7.5 1s.4.5.7.7.6.2 1 .2.7-.1 1-.2c.3-.2.5-.4.7-.7s.4-.6.5-1c.1-.3.2-.7.2-1.2M461.5 422.4h-1.9c-2 0-3-1-3-2.9V415h-2.3v-1.5h2.3v-3.9h1.6v3.9h3.2v1.5h-3.2v4.2c0 .6.1 1.1.4 1.3.2.3.7.4 1.4.4h1.5zM464 409.2h1.7v2.5H464zm.1 4.3h1.6v8.9h-1.6zM473 422.5h-1.5l-3.7-9.1h1.8l2.6 6.7 2.6-6.7h1.7zM482 413.3c.6 0 1.1.1 1.6.3s.9.5 1.3.9.6.9.8 1.5.3 1.2.3 1.9v.3h-6.4c0 .4.1.8.2 1.1.1.4.3.7.5.9s.5.5.8.6.7.2 1.1.2.7 0 1-.1.5-.2.7-.3.3-.2.4-.4.2-.2.2-.3h1.6c0 .2-.1.4-.3.7l-.6.9c-.3.3-.7.5-1.1.7-.5.2-1.1.3-1.7.3s-1.2-.1-1.8-.4c-.5-.2-1-.6-1.3-1-.4-.4-.6-.9-.8-1.5q-.3-.9-.3-1.8c0-.7.1-1.3.3-1.9s.5-1.1.8-1.5.8-.7 1.3-1c.3 0 .8-.1 1.4-.1m0 1.4c-.7 0-1.2.2-1.6.6s-.6.9-.8 1.6h4.6c-.1-.7-.4-1.3-.8-1.6-.2-.4-.7-.6-1.4-.6M493.8 409.6h5.7c1.4 0 2.5.3 3.2.9s1.1 1.5 1.1 2.6q0 .75-.3 1.5c-.2.4-.5.8-.8 1.2-.4.3-.8.6-1.3.7q-.75.3-1.8.3h-4v5.5h-1.7v-12.7zm1.8 1.6v4h4q1.2 0 1.8-.6c.4-.4.6-.9.6-1.4q0-.9-.6-1.5c-.4-.3-1-.5-1.8-.5zM506.6 409.1h1.6v13.2h-1.6zM515.3 422.6c-.6 0-1.2-.1-1.7-.3s-.9-.4-1.2-.8c-.3-.3-.6-.7-.7-1.2-.2-.5-.2-1-.2-1.5v-5.4h1.7v5.3c0 .7.2 1.2.5 1.6.4.4.9.6 1.6.6s1.2-.2 1.6-.6.6-1 .6-1.6v-5.3h1.6v5.4c0 .5-.1 1-.2 1.4-.2.5-.4.8-.7 1.2s-.7.6-1.2.8c-.6.3-1.1.4-1.7.4M528.3 421c0 .1-.1.2-.3.4s-.3.4-.5.5c-.2.2-.5.3-.8.5-.3.1-.7.2-1.1.2q-.75 0-1.5-.3c-.75-.3-.9-.5-1.2-.9s-.6-.9-.8-1.5-.3-1.2-.3-2c0-.7.1-1.4.3-2s.5-1.1.8-1.5.8-.7 1.2-.9 1-.3 1.5-.3c.4 0 .8.1 1.1.2s.6.3.8.5.4.4.5.6.2.3.3.5v-1.5h1.6v8.7c0 .6-.1 1.2-.3 1.7s-.4 1-.8 1.3c-.3.4-.8.7-1.3.9s-1.1.3-1.8.3q-1.05 0-1.8-.3c-.5-.2-.9-.4-1.2-.7s-.5-.5-.7-.8c-.1-.3-.2-.5-.2-.7h1.7l.2.2c.1.1.2.2.4.3s.4.2.7.3.6.1 1 .1c.8 0 1.5-.2 1.9-.7q.6-.75.6-2.1zm0-3c0-.4-.1-.9-.2-1.3s-.3-.7-.5-1-.5-.5-.8-.7-.6-.2-1-.2-.7.1-1 .2c-.3.2-.6.4-.8.7s-.4.6-.5 1-.2.8-.2 1.3c0 .4.1.9.2 1.2.1.4.3.7.5 1s.5.5.8.7.6.2 1 .2.7-.1 1-.2c.3-.2.6-.4.8-.7s.4-.6.5-1c.2-.4.2-.8.2-1.2M533.2 409.2h1.7v2.5h-1.7zm.1 4.3h1.6v8.9h-1.6zM539.9 422.4h-1.6v-8.9h1.6v1.5c.1-.2.2-.4.4-.6.1-.2.3-.4.5-.5.2-.2.5-.3.8-.4s.6-.2 1-.2c1 0 1.9.3 2.5 1s.9 1.6.9 2.8v5.3h-1.7v-5c0-.9-.2-1.5-.6-1.9s-.9-.6-1.6-.6-1.3.2-1.7.7c-.4.4-.6 1.1-.6 1.9v4.9zM551.7 418.5c-.9-.1-1.6-.4-2.1-.8-.6-.4-.8-1.1-.8-1.9 0-.4.1-.8.3-1.1s.4-.6.7-.8.7-.4 1.1-.5.9-.2 1.4-.2q1.05 0 1.8.3c.5.2.9.4 1.2.7s.5.5.6.8.2.5.3.7h-1.6l-.2-.2c-.1-.1-.2-.2-.4-.3s-.4-.2-.7-.3-.6-.1-1-.1c-.6 0-1.1.1-1.4.3s-.5.5-.5.8c0 .7.5 1.1 1.6 1.2l1.2.1c1.1.1 1.8.4 2.3.9s.7 1.1.7 1.9c0 .4-.1.7-.2 1.1-.2.3-.4.6-.7.9-.3.2-.7.4-1.1.6-.4.1-.9.2-1.5.2-.8 0-1.4-.1-1.9-.3s-.9-.4-1.3-.7c-.3-.3-.6-.6-.7-.9-.2-.3-.3-.6-.3-.8h1.7c0 .1.1.2.2.3s.2.3.4.4.5.2.8.4c.3.1.7.2 1.1.2.6 0 1.1-.1 1.4-.3s.5-.5.5-.9-.1-.7-.4-.9-.6-.3-1.2-.4z" class="st1"/><path d="M379.7 435.5h226.2v28.4H379.7z" class="st29"/><path d="M409.5 444.4h9.2v1.6h-7.5v3.6h4.4v1.6h-4.4v4.4h8.1v1.6h-9.8zM425.5 457.4H424l-3.7-9.1h1.8l2.6 6.7 2.6-6.7h1.7zM434.6 448.1c.6 0 1.1.1 1.6.3s.9.5 1.3.9.6.9.8 1.5.3 1.2.3 1.9v.3h-6.4c0 .4.1.8.2 1.1.1.4.3.7.5.9s.5.5.8.6.7.2 1.1.2.7 0 1-.1.5-.2.7-.3.3-.2.4-.4.2-.2.2-.3h1.6c0 .2-.1.4-.3.7l-.6.9c-.3.3-.7.5-1.1.7-.5.2-1.1.3-1.7.3s-1.2-.1-1.8-.4c-.5-.2-1-.6-1.3-1-.4-.4-.6-.9-.8-1.5q-.3-.9-.3-1.8c0-.7.1-1.3.3-1.9s.5-1.1.8-1.5.8-.7 1.3-1c.2 0 .7-.1 1.4-.1m0 1.4c-.7 0-1.2.2-1.6.6s-.6.9-.8 1.6h4.6c-.1-.7-.4-1.3-.8-1.6-.3-.4-.8-.6-1.4-.6M442.9 457.2h-1.6v-8.9h1.6v1.5c.1-.2.2-.4.4-.6.1-.2.3-.4.5-.5.2-.2.5-.3.8-.4s.6-.2 1-.2c1 0 1.9.3 2.5 1s.9 1.6.9 2.8v5.3h-1.7v-5c0-.9-.2-1.5-.6-1.9s-.9-.6-1.6-.6-1.3.2-1.7.7c-.4.4-.6 1.1-.6 1.9v4.9zM458 457.2h-1.9c-2 0-3-1-3-2.9v-4.5h-2.3v-1.5h2.3v-3.9h1.6v3.9h3.2v1.5h-3.2v4.2c0 .6.1 1.1.4 1.3.2.3.7.4 1.4.4h1.5zM475.2 457.2h-9.5v-12.8h1.7v11.1h7.7v1.7zM481.1 448.1c.6 0 1.2.1 1.7.4s1 .6 1.3 1c.4.4.6.9.8 1.5q.3.9.3 1.8c0 .9-.1 1.3-.3 1.8-.2.6-.5 1.1-.8 1.5-.4.4-.8.7-1.3 1-.5.2-1.1.4-1.7.4s-1.2-.1-1.7-.4c-.5-.2-.9-.6-1.3-1s-.6-.9-.8-1.5q-.3-.9-.3-1.8c0-.9.1-1.3.3-1.8.2-.6.5-1.1.8-1.5.4-.4.8-.7 1.3-1s1.1-.4 1.7-.4m0 7.8c.4 0 .8-.1 1.1-.2.3-.2.6-.4.8-.7s.4-.6.5-1 .2-.8.2-1.2-.1-.8-.2-1.2-.3-.7-.5-1-.5-.5-.8-.7-.7-.2-1.1-.2-.8.1-1.1.2-.6.4-.8.7-.4.6-.5 1-.2.8-.2 1.2.1.8.2 1.2.3.7.5 1 .5.5.8.7.7.2 1.1.2M491.6 448.1c.6 0 1.2.1 1.7.4s1 .6 1.3 1c.4.4.6.9.8 1.5q.3.9.3 1.8c0 .9-.1 1.3-.3 1.8-.2.6-.5 1.1-.8 1.5-.4.4-.8.7-1.3 1-.5.2-1.1.4-1.7.4s-1.2-.1-1.7-.4c-.5-.2-.9-.6-1.3-1s-.6-.9-.8-1.5q-.3-.9-.3-1.8c0-.9.1-1.3.3-1.8.2-.6.5-1.1.8-1.5.4-.4.8-.7 1.3-1s1.1-.4 1.7-.4m0 7.8c.4 0 .8-.1 1.1-.2.3-.2.6-.4.8-.7s.4-.6.5-1 .2-.8.2-1.2-.1-.8-.2-1.2-.3-.7-.5-1-.5-.5-.8-.7-.7-.2-1.1-.2-.8.1-1.1.2-.6.4-.8.7-.4.6-.5 1-.2.8-.2 1.2.1.8.2 1.2.3.7.5 1 .5.5.8.7.7.2 1.1.2M500.2 461.1h-1.6v-12.7h1.6v1.5c0-.1.1-.3.3-.4.1-.2.3-.4.5-.6s.5-.3.8-.5c.3-.1.7-.2 1.2-.2q.75 0 1.5.3t1.2.9c.3.4.6.9.8 1.5s.3 1.2.3 2c0 .7-.1 1.4-.3 2s-.5 1.1-.8 1.5-.8.7-1.2.9q-.75.3-1.5.3c-.4 0-.8-.1-1.1-.2s-.6-.3-.8-.5l-.5-.5c-.1-.2-.2-.3-.3-.4v5.1zm-.1-8.3c0 .4.1.9.2 1.2.1.4.3.7.5 1s.5.5.8.7.7.2 1 .2c.4 0 .7-.1 1-.2.3-.2.6-.4.8-.7s.4-.6.5-1 .2-.8.2-1.2-.1-.9-.2-1.2c-.1-.4-.3-.7-.5-1s-.5-.5-.8-.7-.7-.2-1-.2c-.4 0-.7.1-1 .2-.3.2-.6.4-.8.7s-.4.6-.5 1c-.1.3-.2.7-.2 1.2M514.7 444.4h1.7v12.8h-1.7zM521.7 457.2h-1.6v-8.9h1.6v1.5c.1-.2.2-.4.4-.6.1-.2.3-.4.5-.5.2-.2.5-.3.8-.4s.6-.2 1-.2c1 0 1.9.3 2.5 1s.9 1.6.9 2.8v5.3h-1.7v-5c0-.9-.2-1.5-.6-1.9s-.9-.6-1.6-.6-1.3.2-1.7.7c-.4.4-.6 1.1-.6 1.9v4.9zM536.8 457.2h-1.9c-2 0-3-1-3-2.9v-4.5h-2.3v-1.5h2.3v-3.9h1.6v3.9h3.2v1.5h-3.2v4.2c0 .6.1 1.1.4 1.3.2.3.7.4 1.4.4h1.5zM542.9 448.1c.6 0 1.1.1 1.6.3s.9.5 1.3.9.6.9.8 1.5.3 1.2.3 1.9v.3h-6.4c0 .4.1.8.2 1.1.1.4.3.7.5.9s.5.5.8.6.7.2 1.1.2.7 0 1-.1.5-.2.7-.3.3-.2.4-.4.2-.2.2-.3h1.6c0 .2-.1.4-.3.7l-.6.9c-.3.3-.7.5-1.1.7-.5.2-1.1.3-1.7.3s-1.2-.1-1.8-.4c-.5-.2-1-.6-1.3-1-.4-.4-.6-.9-.8-1.5q-.3-.9-.3-1.8c0-.7.1-1.3.3-1.9s.5-1.1.8-1.5.8-.7 1.3-1c.2 0 .7-.1 1.4-.1m0 1.4c-.7 0-1.2.2-1.6.6s-.6.9-.8 1.6h4.6c-.1-.7-.4-1.3-.8-1.6-.3-.4-.8-.6-1.4-.6M551.2 457.2h-1.6v-8.9h1.6v1.6c.1-.2.2-.3.3-.5s.3-.4.6-.5.5-.3.9-.4.8-.2 1.3-.2h1.7v1.6h-1.9c-1 0-1.8.2-2.2.6s-.7 1-.7 1.7zM561.7 448.1c.6 0 1.2.1 1.7.4s1 .6 1.3 1c.4.4.6.9.8 1.5q.3.9.3 1.8c0 .9-.1 1.3-.3 1.8-.2.6-.5 1.1-.8 1.5-.4.4-.8.7-1.3 1-.5.2-1.1.4-1.7.4s-1.2-.1-1.7-.4c-.5-.2-.9-.6-1.3-1s-.6-.9-.8-1.5q-.3-.9-.3-1.8c0-.9.1-1.3.3-1.8.2-.6.5-1.1.8-1.5.4-.4.8-.7 1.3-1s1.1-.4 1.7-.4m0 7.8c.4 0 .8-.1 1.1-.2.3-.2.6-.4.8-.7s.4-.6.5-1 .2-.8.2-1.2-.1-.8-.2-1.2-.3-.7-.5-1-.5-.5-.8-.7-.7-.2-1.1-.2-.8.1-1.1.2-.6.4-.8.7-.4.6-.5 1-.2.8-.2 1.2.1.8.2 1.2.3.7.5 1 .5.5.8.7.7.2 1.1.2M570.2 461.1h-1.6v-12.7h1.6v1.5c0-.1.1-.3.3-.4.1-.2.3-.4.5-.6s.5-.3.8-.5c.3-.1.7-.2 1.2-.2q.75 0 1.5.3t1.2.9c.3.4.6.9.8 1.5s.3 1.2.3 2c0 .7-.1 1.4-.3 2s-.5 1.1-.8 1.5-.8.7-1.2.9q-.75.3-1.5.3c-.4 0-.8-.1-1.1-.2s-.6-.3-.8-.5l-.5-.5c-.1-.2-.2-.3-.3-.4v5.1zm0-8.3c0 .4.1.9.2 1.2.1.4.3.7.5 1s.5.5.8.7.7.2 1 .2c.4 0 .7-.1 1-.2.3-.2.6-.4.8-.7s.4-.6.5-1 .2-.8.2-1.2-.1-.9-.2-1.2c-.1-.4-.3-.7-.5-1s-.5-.5-.8-.7-.7-.2-1-.2c-.4 0-.7.1-1 .2-.3.2-.6.4-.8.7s-.4.6-.5 1c-.1.3-.2.7-.2 1.2" class="st1"/><path d="M612 400.7h226.2v28.4H612z" class="st29"/><path d="M692.2 409.6h5.7c1.4 0 2.5.3 3.2.9s1.1 1.5 1.1 2.6q0 .75-.3 1.5c-.2.4-.5.8-.8 1.2-.4.3-.8.6-1.3.7q-.75.3-1.8.3h-4v5.5h-1.7v-12.7zm1.7 1.6v4h4q1.2 0 1.8-.6c.4-.4.6-.9.6-1.4q0-.9-.6-1.5c-.4-.3-1-.5-1.8-.5zM710.1 420.9c-.1.1-.1.3-.3.5-.1.2-.3.4-.5.5s-.5.3-.8.4-.7.2-1.1.2q-.75 0-1.5-.3t-1.2-.9c-.3-.4-.6-.9-.8-1.5s-.3-1.2-.3-2c0-.7.1-1.4.3-2s.5-1.1.8-1.5q.45-.6 1.2-.9t1.5-.3c.4 0 .8.1 1.1.2s.6.3.8.5.4.4.5.6.2.3.3.5v-1.5h1.6v8.9h-1.6zm0-3c0-.4-.1-.9-.2-1.2s-.3-.7-.5-1-.4-.5-.7-.7-.6-.2-1-.2-.7.1-1 .2c-.3.2-.5.4-.7.7s-.3.6-.5 1-.2.8-.2 1.2.1.9.2 1.2c.1.4.3.7.5 1s.4.5.7.7.6.2 1 .2.7-.1 1-.2c.3-.2.5-.4.7-.7s.4-.6.5-1c.2-.3.2-.7.2-1.2M720.5 415.8c-.1-.2-.2-.3-.4-.5-.2-.1-.4-.3-.6-.4-.3-.1-.6-.2-.9-.2-.4 0-.7.1-1 .2-.3.2-.5.4-.7.7s-.4.6-.5 1-.2.8-.2 1.2.1.9.2 1.2.3.7.5 1 .5.5.7.7c.3.2.6.2 1 .2s.7-.1.9-.2c.3-.1.5-.2.6-.4.2-.1.3-.3.4-.4s.2-.3.2-.3h1.6c0 .1-.1.4-.2.7s-.3.6-.6 1c-.3.3-.7.6-1.1.8-.5.2-1.1.4-1.8.4-.6 0-1.1-.1-1.6-.4-.5-.2-.9-.6-1.3-1q-.6-.6-.9-1.5c-.2-.6-.3-1.2-.3-1.9s.1-1.3.3-1.9.5-1.1.8-1.5c.4-.4.8-.7 1.3-1 .5-.2 1-.4 1.6-.4.7 0 1.3.1 1.8.4.5.2.8.5 1.1.8s.5.6.6 1c.1.3.2.6.2.7h-1.6c0 .3 0 .1-.1 0M726.4 418.2v4.2h-1.6v-13.2h1.6v8.2l4.2-3.8h2.2l-4.7 4.2 4.9 4.7h-2.2zM734.8 409.2h1.7v2.5h-1.7zm0 4.3h1.6v8.9h-1.6zM741.4 422.4h-1.6v-8.9h1.6v1.5c.1-.2.2-.4.4-.6.1-.2.3-.4.5-.5.2-.2.5-.3.8-.4s.6-.2 1-.2c1 0 1.9.3 2.5 1s.9 1.6.9 2.8v5.3h-1.7v-5c0-.9-.2-1.5-.6-1.9s-.9-.6-1.6-.6-1.3.2-1.7.7c-.4.4-.6 1.1-.6 1.9v4.9zM756.7 421c0 .1-.1.2-.3.4s-.3.4-.5.5c-.2.2-.5.3-.8.5-.3.1-.7.2-1.1.2q-.75 0-1.5-.3c-.75-.3-.9-.5-1.2-.9s-.6-.9-.8-1.5-.3-1.2-.3-2c0-.7.1-1.4.3-2s.5-1.1.8-1.5.8-.7 1.2-.9 1-.3 1.5-.3c.4 0 .8.1 1.1.2s.6.3.8.5.4.4.5.6.2.3.3.5v-1.5h1.6v8.7c0 .6-.1 1.2-.3 1.7s-.4 1-.8 1.3c-.3.4-.8.7-1.3.9s-1.1.3-1.8.3q-1.05 0-1.8-.3c-.5-.2-.9-.4-1.2-.7s-.5-.5-.7-.8c-.1-.3-.2-.5-.2-.7h1.7l.2.2c.1.1.2.2.4.3s.4.2.7.3.6.1 1 .1c.8 0 1.5-.2 1.9-.7q.6-.75.6-2.1zm.1-3c0-.4-.1-.9-.2-1.3s-.3-.7-.5-1-.5-.5-.8-.7-.6-.2-1-.2-.7.1-1 .2c-.3.2-.6.4-.8.7s-.4.6-.5 1-.2.8-.2 1.3c0 .4.1.9.2 1.2.1.4.3.7.5 1s.5.5.8.7.6.2 1 .2.7-.1 1-.2c.3-.2.6-.4.8-.7s.4-.6.5-1 .2-.8.2-1.2" class="st1"/><path d="M505.2 59.9h333.1v28.4H505.2z" class="st30"/><path d="M638.1 81.8c-.9 0-1.6-.2-2.3-.5s-1.3-.8-1.8-1.4-.8-1.3-1.1-2.1-.4-1.7-.4-2.6.1-1.8.4-2.6.6-1.5 1.1-2.1 1.1-1.1 1.8-1.4 1.5-.5 2.3-.5c.9 0 1.6.1 2.2.4s1.1.6 1.6 1c.4.4.7.8.9 1.3s.3.9.4 1.3h-1.7c-.1-.2-.2-.4-.4-.7s-.4-.5-.6-.8c-.3-.2-.6-.4-1-.6s-.9-.3-1.4-.3c-.6 0-1.2.1-1.6.4-.5.3-.9.6-1.2 1.1s-.5 1-.7 1.6-.2 1.2-.2 1.9.1 1.3.2 1.9c.2.6.4 1.1.7 1.6s.7.8 1.2 1.1 1 .4 1.6.4c.5 0 1-.1 1.4-.3s.7-.4 1-.6.5-.5.7-.8.3-.5.4-.7h1.7c0 .4-.2.8-.4 1.3s-.5.9-.9 1.3-.9.7-1.6 1c-.6.3-1.4.4-2.3.4M649.8 81.8c-.6 0-1.2-.1-1.7-.3s-.9-.4-1.2-.8-.6-.7-.7-1.2c-.2-.5-.2-1-.2-1.5v-5.4h1.7V78c0 .7.2 1.2.5 1.6.4.4.9.6 1.6.6s1.2-.2 1.6-.6.6-1 .6-1.6v-5.3h1.6v5.4c0 .5-.1 1-.2 1.4s-.4.8-.7 1.2-.7.6-1.2.8-1.1.3-1.7.3M658.5 85.4h-1.6V72.7h1.6v1.5c0-.1.1-.3.3-.5.1-.2.3-.4.5-.6s.5-.3.8-.5.7-.2 1.2-.2q.75 0 1.5.3t1.2.9c.3.4.6.9.8 1.5s.3 1.2.3 2c0 .7-.1 1.4-.3 2s-.5 1.1-.8 1.5-.8.7-1.2.9q-.75.3-1.5.3c-.4 0-.8-.1-1.1-.2s-.6-.3-.8-.5l-.5-.5c-.1-.2-.2-.3-.3-.4v5.2zm-.1-8.3c0 .4.1.9.2 1.2.1.4.3.7.5 1s.5.5.8.7.7.2 1 .2c.4 0 .7-.1 1-.2.3-.2.6-.4.8-.7s.4-.6.5-1 .2-.8.2-1.2-.1-.9-.2-1.2c-.1-.4-.3-.7-.5-1s-.5-.5-.8-.7-.7-.2-1-.2c-.4 0-.7.1-1 .2-.3.2-.6.4-.8.7s-.4.6-.5 1-.2.8-.2 1.2M671.3 72.5c.6 0 1.1.1 1.6.3s.9.5 1.3.9.6.9.8 1.5.3 1.2.3 1.9v.3h-6.4c0 .4.1.8.2 1.1.1.4.3.7.5.9.2.3.5.5.8.6s.7.2 1.1.2.7 0 1-.1.5-.2.7-.3.3-.2.4-.4.2-.2.2-.3h1.6c0 .2-.1.4-.3.7-.1.3-.4.6-.6.9s-.7.5-1.1.7c-.5.2-1.1.3-1.7.3s-1.2-.1-1.8-.4c-.5-.2-1-.6-1.3-1-.4-.4-.6-.9-.8-1.5q-.3-.9-.3-1.8c0-.7.1-1.3.3-1.9s.5-1.1.8-1.5.8-.7 1.3-1c.3 0 .8-.1 1.4-.1m0 1.4c-.7 0-1.2.2-1.6.6s-.6.9-.8 1.6h4.6c-.1-.7-.4-1.3-.8-1.6-.2-.4-.7-.6-1.4-.6M679.7 81.6H678v-8.9h1.6v1.6c.1-.2.2-.3.3-.5s.3-.4.6-.5c.2-.2.5-.3.9-.4s.8-.2 1.3-.2h1.7v1.6h-1.9c-1 0-1.8.2-2.2.6s-.7 1-.7 1.7v5zM692.7 81.6h-1.9c-2 0-3-1-3-2.9v-4.5h-2.3v-1.5h2.3v-3.9h1.6v3.9h3.2v1.5h-3.2v4.2c0 .6.1 1.1.4 1.3.2.3.7.4 1.4.4h1.5zM695.3 68.5h1.7V71h-1.7zm0 4.2h1.6v8.9h-1.6zM701.9 81.6h-1.6v-8.9h1.6v1.5c.1-.2.2-.4.4-.6.1-.2.3-.4.5-.5.2-.2.5-.3.8-.4s.6-.2 1-.2c1 0 1.9.3 2.5 1s.9 1.6.9 2.8v5.3h-1.7v-5c0-.9-.2-1.5-.6-1.9s-.9-.6-1.6-.6-1.3.2-1.7.7c-.4.4-.6 1.1-.6 1.9v4.9zM714.8 72.5c.6 0 1.2.1 1.7.4.5.2 1 .6 1.3 1 .4.4.6.9.8 1.5q.3.9.3 1.8 0 1.05-.3 1.8c-.2.6-.5 1.1-.8 1.5-.4.4-.8.7-1.3 1-.5.2-1.1.4-1.7.4s-1.2-.1-1.7-.4c-.5-.2-.9-.6-1.3-1s-.6-.9-.8-1.5q-.3-.9-.3-1.8 0-1.05.3-1.8c.2-.6.5-1.1.8-1.5.4-.4.8-.7 1.3-1s1.1-.4 1.7-.4m0 7.8c.4 0 .8-.1 1.1-.2.3-.2.6-.4.8-.7s.4-.6.5-1 .2-.8.2-1.2-.1-.8-.2-1.2-.3-.7-.5-1-.5-.5-.8-.7-.7-.2-1.1-.2-.8.1-1.1.2-.6.4-.8.7-.4.6-.5 1-.2.8-.2 1.2.1.8.2 1.2.3.7.5 1 .5.5.8.7.7.2 1.1.2" class="st1"/></svg>