<svg xmlns="http://www.w3.org/2000/svg" xml:space="preserve" id="Layer_1" x="0" y="0" version="1.1" viewBox="0 0 900 588"><style>.st1{fill:#2d4942}.st3{fill:#424ae9;stroke:#2d4942}.st4{fill:#fff}.st5,.st8{fill:#d1dbdb;stroke:#2d4942}.st8{fill:none;stroke-width:2;stroke-miterlimit:10}</style><path d="M323.3 174.4h246.5v44.9H323.3z" style="fill:#e1f434;stroke:#2d4942"/><path d="M342.5 194.2c-.9 0-1.7-.2-2.4-.5s-1.3-.8-1.8-1.4-.9-1.3-1.1-2.1-.4-1.7-.4-2.6.1-1.8.4-2.6q.45-1.2 1.2-2.1c.5-.6 1.1-1 1.8-1.4.7-.3 1.5-.5 2.4-.5s1.7.2 2.4.5 1.3.8 1.8 1.4q.75.9 1.2 2.1c.3.8.4 1.7.4 2.6s-.1 1.8-.4 2.6-.7 1.5-1.2 2.1-1.1 1-1.8 1.4-1.7.5-2.5.5m0-1.7c.6 0 1.2-.1 1.7-.4s.9-.6 1.2-1.1.6-1 .8-1.6.3-1.3.3-1.9c0-.7-.1-1.3-.3-1.9s-.4-1.1-.8-1.6-.7-.8-1.2-1.1-1.1-.4-1.7-.4-1.2.1-1.7.4-.9.6-1.2 1.1-.6 1-.8 1.6-.3 1.3-.3 1.9c0 .7.1 1.4.3 2s.4 1.1.8 1.6.7.8 1.2 1c.5.3 1 .4 1.7.4M350.8 189.3v-1.7999999999999998c0-.2 0-.5.1-.8.1-.7.2-1.4.4-2q.3-.9.9-1.5c.4-.4.9-.8 1.5-1.1s1.3-.5 2.2-.7l2.9-.6v1.5l-2.8.6c-.6.1-1.1.3-1.5.5s-.7.4-1 .7-.5.7-.6 1.1-.2 1-.3 1.6c.2-.4.6-.8 1-1.1s1-.4 1.7-.4c.6 0 1.1.1 1.6.3s.9.5 1.3.9c.3.4.6.9.8 1.4.2.6.3 1.2.3 1.9q0 .9-.3 1.8c-.2.5-.5 1-.8 1.4-.4.4-.8.7-1.3.9s-1.1.3-1.7.3-1.2-.1-1.7-.3-1-.6-1.3-1c-.4-.4-.6-.9-.8-1.5s-.6-1.4-.6-2.1m4.1 3.3c.4 0 .8-.1 1.1-.2.3-.2.6-.4.8-.6s.4-.6.5-.9c.1-.4.2-.7.2-1.2 0-.4-.1-.8-.2-1.2s-.3-.7-.5-.9-.5-.5-.8-.6c-.3-.2-.7-.2-1.1-.2s-.8.1-1.1.2c-.3.2-.6.4-.8.6s-.4.6-.5.9c-.1.4-.2.7-.2 1.2 0 .4.1.8.2 1.2s.3.7.5.9.5.5.8.6c.4.2.7.2 1.1.2M363.5 197.8h-1.6V185h1.6v1.5c0-.1.1-.3.3-.4.1-.2.3-.4.5-.6s.5-.3.8-.5c.3-.1.7-.2 1.2-.2q.75 0 1.5.3t1.2.9c.3.4.6.9.8 1.5s.3 1.2.3 2-.1 1.4-.3 2-.5 1.1-.8 1.5-.8.7-1.2.9q-.75.3-1.5.3c-.4 0-.8-.1-1.1-.2s-.6-.3-.8-.5l-.5-.5c-.1-.2-.2-.3-.3-.4v5.2zm-.1-8.3c0 .4.1.9.2 1.2.1.4.3.7.5 1s.5.5.8.7.7.2 1 .2c.4 0 .7-.1 1-.2.3-.2.6-.4.8-.7s.4-.6.5-1 .2-.8.2-1.2-.1-.9-.2-1.2c-.1-.4-.3-.7-.5-1s-.5-.5-.8-.7-.7-.2-1-.2c-.4 0-.7.1-1 .2s-.6.4-.8.7-.4.6-.5 1c-.1.3-.2.7-.2 1.2M378.7 192.5c-.1.1-.1.3-.3.5-.1.2-.3.4-.5.5s-.5.3-.8.4-.7.2-1.1.2q-.75 0-1.5-.3t-1.2-.9c-.45-.6-.6-.9-.8-1.5s-.3-1.2-.3-2c0-.7.1-1.4.3-2s.5-1.1.8-1.5q.45-.6 1.2-.9t1.5-.3c.4 0 .8.1 1.1.2s.6.3.8.5.4.4.5.6.2.3.3.5V185h1.6v8.9h-1.6zm0-3c0-.4-.1-.9-.2-1.2-.1-.4-.3-.7-.5-1s-.4-.5-.7-.7-.6-.2-1-.2-.7.1-1 .2c-.3.2-.5.4-.7.7s-.3.6-.5 1c-.1.4-.2.8-.2 1.2s.1.9.2 1.2c.1.4.3.7.5 1s.4.5.7.7.6.2 1 .2.7-.1 1-.2c.3-.2.5-.4.7-.7s.4-.6.5-1c.2-.3.2-.8.2-1.2M383.3 189.3v-1.7999999999999998c0-.2 0-.5.1-.8.1-.7.2-1.4.4-2q.3-.9.9-1.5c.4-.4.9-.8 1.5-1.1s1.3-.5 2.2-.7l2.9-.6v1.5l-2.8.6c-.6.1-1.1.3-1.5.5s-.7.4-1 .7-.5.7-.6 1.1-.2 1-.3 1.6c.2-.4.6-.8 1-1.1s1-.4 1.7-.4c.6 0 1.1.1 1.6.3s.9.5 1.3.9c.3.4.6.9.8 1.4.2.6.3 1.2.3 1.9q0 .9-.3 1.8c-.2.5-.5 1-.8 1.4-.4.4-.8.7-1.3.9s-1.1.3-1.7.3-1.2-.1-1.7-.3-1-.6-1.3-1c-.4-.4-.6-.9-.8-1.5s-.6-1.4-.6-2.1m4.1 3.3c.4 0 .8-.1 1.1-.2.3-.2.6-.4.8-.6s.4-.6.5-.9c.1-.4.2-.7.2-1.2 0-.4-.1-.8-.2-1.2s-.3-.7-.5-.9-.5-.5-.8-.6c-.3-.2-.7-.2-1.1-.2s-.8.1-1.1.2c-.3.2-.6.4-.8.6s-.4.6-.5.9c-.1.4-.2.7-.2 1.2 0 .4.1.8.2 1.2s.3.7.5.9.5.5.8.6c.4.2.7.2 1.1.2M398 184.8c.6 0 1.2.1 1.7.4.5.2 1 .6 1.3 1 .4.4.6.9.8 1.5q.3.9.3 1.8 0 1.05-.3 1.8c-.2.6-.5 1.1-.8 1.5-.4.4-.8.7-1.3 1s-1.1.4-1.7.4-1.2-.1-1.7-.4c-.5-.2-.9-.6-1.3-1s-.6-.9-.8-1.5q-.3-.9-.3-1.8 0-1.05.3-1.8c.2-.6.5-1.1.8-1.5.4-.4.8-.7 1.3-1 .4-.2 1-.4 1.7-.4m0 7.8c.4 0 .8-.1 1.1-.2.3-.2.6-.4.8-.7s.4-.6.5-1 .2-.8.2-1.2-.1-.8-.2-1.2-.3-.7-.5-1-.5-.5-.8-.7-.7-.2-1.1-.2-.8.1-1.1.2-.6.4-.8.7-.4.6-.5 1-.2.8-.2 1.2.1.8.2 1.2.3.7.5 1 .5.5.8.7.6.2 1.1.2M406.8 186.5h-3.1V185h7.8v1.5h-3.1v7.4h-1.6zM419.7 192.5c-.1.1-.1.3-.3.5-.1.2-.3.4-.5.5s-.5.3-.8.4-.7.2-1.1.2q-.75 0-1.5-.3t-1.2-.9c-.45-.6-.6-.9-.8-1.5s-.3-1.2-.3-2c0-.7.1-1.4.3-2s.5-1.1.8-1.5q.45-.6 1.2-.9t1.5-.3c.4 0 .8.1 1.1.2s.6.3.8.5.4.4.5.6.2.3.3.5V185h1.6v8.9h-1.6zm0-3c0-.4-.1-.9-.2-1.2-.1-.4-.3-.7-.5-1s-.4-.5-.7-.7-.6-.2-1-.2-.7.1-1 .2c-.3.2-.5.4-.7.7s-.3.6-.5 1c-.1.4-.2.8-.2 1.2s.1.9.2 1.2c.1.4.3.7.5 1s.4.5.7.7.6.2 1 .2.7-.1 1-.2c.3-.2.5-.4.7-.7s.4-.6.5-1c.1-.3.2-.8.2-1.2M426.7 186.5h-3.1V185h7.8v1.5h-3.1v7.4h-1.6zM437.4 187.9c.6 0 1.1.1 1.6.2.4.2.8.4 1.1.6s.5.6.6 1 .2.8.2 1.2-.1.8-.2 1.1c-.1.4-.4.7-.6 1-.3.3-.7.5-1.1.7s-1 .3-1.6.3h-3.6v-9h1.6v2.9zm-2 1.5v3.1h1.8c.6 0 1.1-.1 1.5-.4.3-.3.5-.6.5-1.2 0-.5-.2-.8-.5-1.1s-.8-.4-1.5-.4zM447.9 185h4.2c.4 0 .8 0 1.2.1s.7.2 1 .4.5.4.7.7.2.6.2 1.1c0 .6-.1 1-.4 1.3q-.45.45-.9.6c.4.1.8.3 1.1.6s.5.8.5 1.3c0 .8-.3 1.4-.9 1.9s-1.4.7-2.4.7H448V185zm1.7 1.5v2.2h2.6c.4 0 .8-.1 1-.3.3-.2.4-.5.4-.9 0-.3-.1-.6-.4-.8s-.6-.3-1.1-.3h-2.5zm0 3.6v2.4h2.5c1.1 0 1.6-.4 1.6-1.3 0-.3-.1-.6-.4-.8q-.45-.3-1.2-.3zM463.5 187.3c-.1-.2-.2-.3-.4-.5-.2-.1-.4-.3-.6-.4s-.6-.2-.9-.2c-.4 0-.7.1-1 .2-.3.2-.5.4-.7.7s-.4.6-.5 1-.2.8-.2 1.2.1.9.2 1.2c.1.4.3.7.5 1s.5.5.7.7c.3.2.6.2 1 .2s.7-.1.9-.2c.3-.1.5-.2.6-.4.2-.1.3-.3.4-.4s.2-.3.2-.3h1.6c0 .1-.1.4-.2.7s-.3.6-.6 1c-.3.3-.7.6-1.1.8-.5.2-1.1.4-1.8.4-.6 0-1.1-.1-1.6-.4-.5-.2-.9-.6-1.3-1q-.6-.6-.9-1.5c-.2-.6-.3-1.2-.3-1.9s.1-1.3.3-1.9.5-1.1.8-1.5c.4-.4.8-.7 1.3-1 .5-.2 1-.4 1.6-.4.7 0 1.3.1 1.8.4.5.2.8.5 1.1.8s.5.6.6 1c.1.3.2.6.2.7h-1.6c.1.3 0 .2-.1 0M467.8 185h1.6v3.6h1.7c.1-.6.2-1.1.5-1.5q.3-.75.9-1.2c.4-.3.8-.6 1.2-.8q.75-.3 1.5-.3c.6 0 1.2.1 1.7.4.5.2 1 .6 1.3 1s.6.9.8 1.5q.3.9.3 1.8 0 1.05-.3 1.8c-.2.6-.5 1.1-.8 1.5s-.8.7-1.3 1c-.5.2-1.1.4-1.7.4s-1.1-.1-1.6-.3-.9-.5-1.3-.8c-.4-.4-.7-.8-.9-1.3s-.4-1-.4-1.6h-1.7v3.8h-1.6v-9zm7.6 7.6c.4 0 .8-.1 1.1-.2s.6-.4.8-.7.4-.6.5-1 .2-.8.2-1.2-.1-.8-.2-1.2-.3-.7-.5-1-.5-.5-.8-.7-.7-.2-1.1-.2-.8.1-1.1.2c-.3.2-.6.4-.8.7s-.4.6-.5 1-.2.8-.2 1.2.1.8.2 1.2.3.7.5 1 .5.5.8.7.6.2 1.1.2M490.6 184.8c.6 0 1.2.1 1.7.4.5.2 1 .6 1.3 1 .4.4.6.9.8 1.5q.3.9.3 1.8 0 1.05-.3 1.8c-.2.6-.5 1.1-.8 1.5-.4.4-.8.7-1.3 1s-1.1.4-1.7.4-1.2-.1-1.7-.4c-.5-.2-.9-.6-1.3-1s-.6-.9-.8-1.5q-.3-.9-.3-1.8 0-1.05.3-1.8c.2-.6.5-1.1.8-1.5.4-.4.8-.7 1.3-1 .5-.2 1.1-.4 1.7-.4m0 7.8c.4 0 .8-.1 1.1-.2.3-.2.6-.4.8-.7s.4-.6.5-1 .2-.8.2-1.2-.1-.8-.2-1.2-.3-.7-.5-1-.5-.5-.8-.7-.7-.2-1.1-.2-.8.1-1.1.2-.6.4-.8.7-.4.6-.5 1-.2.8-.2 1.2.1.8.2 1.2.3.7.5 1 .5.5.8.7.7.2 1.1.2M502.8 190.6c-.2 0-.3.1-.5.1s-.4 0-.6.1h-.8c-1.2 0-2.1-.3-2.8-.8s-1-1.4-1-2.6V185h1.6v2.2c0 .7.1 1.2.4 1.6s.8.5 1.7.5h.8c.2 0 .4 0 .6-.1.2 0 .4-.1.5-.1V185h1.6v8.9h-1.6v-3.3zM511.2 184.8c.6 0 1.1.1 1.6.3s.9.5 1.3.9.6.9.8 1.5.3 1.2.3 1.9v.3h-6.4c0 .4.1.8.2 1.1.1.4.3.7.5.9.2.3.5.5.8.6s.7.2 1.1.2.7 0 1-.1.5-.2.7-.3.3-.2.4-.4.2-.2.2-.3h1.6c0 .2-.1.4-.3.7-.1.3-.4.6-.6.9-.3.3-.7.5-1.1.7-.5.2-1.1.3-1.7.3s-1.2-.1-1.8-.4-1-.6-1.3-1c-.4-.4-.6-.9-.8-1.5q-.3-.9-.3-1.8c0-.7.1-1.3.3-1.9s.5-1.1.8-1.5.8-.7 1.3-1 .8-.1 1.4-.1m0 1.4c-.7 0-1.2.2-1.6.6s-.6.9-.8 1.6h4.6c-.1-.7-.4-1.3-.8-1.6-.3-.4-.8-.6-1.4-.6M519.5 197.8h-1.6V185h1.6v1.5c0-.1.1-.3.3-.4.1-.2.3-.4.5-.6s.5-.3.8-.5c.3-.1.7-.2 1.2-.2q.75 0 1.5.3t1.2.9c.3.4.6.9.8 1.5s.3 1.2.3 2-.1 1.4-.3 2-.5 1.1-.8 1.5-.8.7-1.2.9q-.75.3-1.5.3c-.4 0-.8-.1-1.1-.2s-.6-.3-.8-.5l-.5-.5c-.1-.2-.2-.3-.3-.4v5.2zm0-8.3c0 .4.1.9.2 1.2.1.4.3.7.5 1s.5.5.8.7.7.2 1 .2c.4 0 .7-.1 1-.2.3-.2.6-.4.8-.7s.4-.6.5-1 .2-.8.2-1.2-.1-.9-.2-1.2c-.1-.4-.3-.7-.5-1s-.5-.5-.8-.7-.7-.2-1-.2c-.4 0-.7.1-1 .2s-.6.4-.8.7-.4.6-.5 1c-.2.3-.2.7-.2 1.2M532.4 184.8c.6 0 1.1.1 1.6.3s.9.5 1.3.9.6.9.8 1.5.3 1.2.3 1.9v.3H530c0 .4.1.8.2 1.1.1.4.3.7.5.9.2.3.5.5.8.6s.7.2 1.1.2.7 0 1-.1.5-.2.7-.3.3-.2.4-.4.2-.2.2-.3h1.6c0 .2-.1.4-.3.7-.1.3-.4.6-.6.9-.3.3-.7.5-1.1.7-.5.2-1.1.3-1.7.3s-1.2-.1-1.8-.4-1-.6-1.3-1c-.4-.4-.6-.9-.8-1.5q-.3-.9-.3-1.8c0-.7.1-1.3.3-1.9s.5-1.1.8-1.5.8-.7 1.3-1 .8-.1 1.4-.1m0 1.4c-.7 0-1.2.2-1.6.6s-.6.9-.8 1.6h4.6c-.1-.7-.4-1.3-.8-1.6-.3-.4-.8-.6-1.4-.6M537.6 196.6v-4.2h1.1q.45-.6.6-1.5c.1-.6.3-1.5.4-2.6l.3-3.3h6.2v7.4h1.6v4.2h-1.5v-2.7H539v2.7zm6.9-10.1h-3.2l-.2 2c-.1 1-.2 1.9-.3 2.5s-.3 1.1-.5 1.5h4.3v-6zM553.6 187.9c.6 0 1.1.1 1.6.2.4.2.8.4 1.1.6s.5.6.6 1 .2.8.2 1.2-.1.8-.2 1.1c-.1.4-.4.7-.6 1-.3.3-.7.5-1.1.7s-1 .3-1.6.3H550v-9h1.6v2.9zm-2 1.5v3.1h1.8c.6 0 1.1-.1 1.5-.4.3-.3.5-.6.5-1.2 0-.5-.2-.8-.5-1.1s-.8-.4-1.5-.4zM398.7 211.9h-1.6V203h1.6v1.4c.1-.2.2-.3.3-.5s.3-.4.5-.5.5-.3.7-.4c.3-.1.6-.2 1-.2.7 0 1.4.2 1.9.5s.9.8 1.2 1.4c.1-.2.2-.4.4-.6q.15-.3.6-.6c.2-.2.5-.4.8-.5s.7-.2 1.1-.2c.6 0 1 .1 1.5.3.4.2.8.4 1.1.8.3.3.5.7.7 1.2.2.4.2.9.2 1.5v5.4H409v-5.1c0-.7-.2-1.3-.5-1.8-.4-.5-.9-.7-1.6-.7s-1.2.2-1.6.7q-.6.75-.6 1.8v5.1H403v-5.1c0-.7-.2-1.3-.5-1.8-.4-.5-.9-.7-1.6-.7s-1.2.2-1.6.7-.5 1.1-.5 1.8v5zM413.9 198.8h1.7v2.5h-1.7zm0 4.2h1.6v8.9h-1.6zM424.3 205.3c-.1-.2-.2-.3-.4-.5-.2-.1-.4-.3-.6-.4s-.6-.2-.9-.2c-.4 0-.7.1-1 .2-.3.2-.5.4-.7.7s-.4.6-.5 1-.2.8-.2 1.2.1.9.2 1.2c.1.4.3.7.5 1s.5.5.7.7c.3.2.6.2 1 .2s.7-.1.9-.2c.3-.1.5-.2.6-.4.2-.1.3-.3.4-.4s.2-.3.2-.3h1.6c0 .1-.1.4-.2.7s-.3.6-.6 1c-.3.3-.7.6-1.1.8-.5.2-1.1.4-1.8.4-.6 0-1.1-.1-1.6-.4-.5-.2-.9-.6-1.3-1q-.6-.6-.9-1.5c-.2-.6-.3-1.2-.3-1.9s.1-1.3.3-1.9.5-1.1.8-1.5c.4-.4.8-.7 1.3-1 .5-.2 1-.4 1.6-.4.7 0 1.3.1 1.8.4.5.2.8.5 1.1.8s.5.6.6 1c.1.3.2.6.2.7h-1.6c0 .3 0 .2-.1 0M430.3 211.9h-1.6V203h1.6v1.6c.1-.2.2-.3.3-.5s.3-.4.6-.5c.2-.2.5-.3.9-.4s.8-.2 1.3-.2h1.7v1.6h-1.9c-1 0-1.8.2-2.2.6s-.7 1-.7 1.7zM440.8 202.8c.6 0 1.2.1 1.7.4.5.2 1 .6 1.3 1 .4.4.6.9.8 1.5q.3.9.3 1.8 0 1.05-.3 1.8c-.2.6-.5 1.1-.8 1.5-.4.4-.8.7-1.3 1s-1.1.4-1.7.4-1.2-.1-1.7-.4c-.5-.2-.9-.6-1.3-1s-.6-.9-.8-1.5q-.3-.9-.3-1.8 0-1.05.3-1.8c.2-.6.5-1.1.8-1.5.4-.4.8-.7 1.3-1 .4-.2 1-.4 1.7-.4m0 7.8c.4 0 .8-.1 1.1-.2.3-.2.6-.4.8-.7s.4-.6.5-1 .2-.8.2-1.2-.1-.8-.2-1.2-.3-.7-.5-1-.5-.5-.8-.7-.7-.2-1.1-.2-.8.1-1.1.2-.6.4-.8.7-.4.6-.5 1-.2.8-.2 1.2.1.8.2 1.2.3.7.5 1 .5.5.8.7.6.2 1.1.2M446.7 199.2h11.6v1.6h-4.9V212h-1.7v-11.2h-4.9v-1.6zM465.1 210.5c-.1.1-.1.3-.3.5-.1.2-.3.4-.5.5s-.5.3-.8.4-.7.2-1.1.2q-.75 0-1.5-.3t-1.2-.9c-.45-.6-.6-.9-.8-1.5s-.3-1.2-.3-2c0-.7.1-1.4.3-2s.5-1.1.8-1.5q.45-.6 1.2-.9t1.5-.3c.4 0 .8.1 1.1.2s.6.3.8.5.4.4.5.6.2.3.3.5V203h1.6v8.9h-1.6zm0-3c0-.4-.1-.9-.2-1.2-.1-.4-.3-.7-.5-1s-.4-.5-.7-.7-.6-.2-1-.2-.7.1-1 .2c-.3.2-.5.4-.7.7s-.3.6-.5 1c-.1.4-.2.8-.2 1.2s.1.9.2 1.2c.1.4.3.7.5 1s.4.5.7.7.6.2 1 .2.7-.1 1-.2c.3-.2.5-.4.7-.7s.4-.6.5-1c.2-.3.2-.8.2-1.2M472.6 208.1c-.9-.1-1.6-.4-2.1-.8-.6-.4-.8-1.1-.8-1.9 0-.4.1-.8.3-1.1s.4-.6.7-.8.7-.4 1.1-.5.9-.2 1.4-.2q1.05 0 1.8.3c.5.2.9.4 1.2.7s.5.5.6.8.2.5.3.7h-1.6l-.2-.2c-.1-.1-.2-.2-.4-.3s-.4-.2-.7-.3-.6-.1-1-.1c-.6 0-1.1.1-1.4.3s-.5.5-.5.8c0 .7.5 1.1 1.6 1.2l1.2.1c1.1.1 1.8.4 2.3.9s.7 1.1.7 1.9c0 .4-.1.7-.2 1.1-.2.3-.4.6-.7.9-.3.2-.7.4-1.1.6-.4.1-.9.2-1.5.2-.8 0-1.4-.1-1.9-.3s-.9-.4-1.3-.7c-.3-.3-.6-.6-.7-.9-.2-.3-.3-.6-.3-.8h1.7c0 .1.1.2.2.3s.2.3.4.4.5.2.8.4c.3.1.7.2 1.1.2.6 0 1.1-.1 1.4-.3s.5-.5.5-.9-.1-.7-.4-.9c-.2-.2-.6-.3-1.2-.4zM481.3 207.8v4.2h-1.6v-13.2h1.6v8.2l4.2-3.8h2.2l-4.7 4.2 4.9 4.7h-2.2zM492.2 208.1c-.9-.1-1.6-.4-2.1-.8-.6-.4-.8-1.1-.8-1.9 0-.4.1-.8.3-1.1s.4-.6.7-.8.7-.4 1.1-.5.9-.2 1.4-.2q1.05 0 1.8.3c.5.2.9.4 1.2.7s.5.5.6.8.2.5.3.7h-1.6l-.2-.2c-.1-.1-.2-.2-.4-.3s-.4-.2-.7-.3-.6-.1-1-.1c-.6 0-1.1.1-1.4.3s-.5.5-.5.8c0 .7.5 1.1 1.6 1.2l1.2.1c1.1.1 1.8.4 2.3.9s.7 1.1.7 1.9c0 .4-.1.7-.2 1.1-.2.3-.4.6-.7.9-.3.2-.7.4-1.1.6-.4.1-.9.2-1.5.2-.8 0-1.4-.1-1.9-.3s-.9-.4-1.3-.7c-.3-.3-.6-.6-.7-.9-.2-.3-.3-.6-.3-.8h1.7c0 .1.1.2.2.3s.2.3.4.4.5.2.8.4c.3.1.7.2 1.1.2.6 0 1.1-.1 1.4-.3s.5-.5.5-.9-.1-.7-.4-.9c-.2-.2-.6-.3-1.2-.4z"/><path d="M323.3 370.4h246.5v44.9H323.3z" style="fill:#22d776;stroke:#2d4942"/><path d="M14.7 523.1h198V568h-198zM113.7 93.5 48.1 56.8 113.7 20l65.6 36.8z" class="st3"/><path d="M113.7 260.6 0 196.9l113.7-63.8 113.7 63.8zM113.7 456.6 0 392.9l113.7-63.8 113.7 63.8z" class="st5"/><path d="M88.3 60.7h-1.6v-8.9h1.6v1.4c.1-.2.2-.3.3-.5s.3-.4.5-.5.5-.3.7-.4c.3-.1.6-.2 1-.2.7 0 1.4.2 1.9.5s.9.8 1.2 1.4c.1-.2.2-.4.4-.6q.15-.3.6-.6c.2-.2.5-.4.8-.5s.7-.2 1.1-.2c.6 0 1 .1 1.5.3.4.2.8.4 1.1.8.3.3.5.7.7 1.2.2.4.2.9.2 1.5v5.4h-1.7v-5.1c0-.7-.2-1.3-.5-1.8-.4-.5-.9-.7-1.6-.7s-1.2.2-1.6.7q-.6.75-.6 1.8v5.1h-1.7v-5.1c0-.7-.2-1.3-.5-1.8-.4-.5-.9-.7-1.6-.7s-1.2.2-1.6.7-.5 1.1-.5 1.8v5zM109.4 59.2c-.1.1-.1.3-.3.5-.1.2-.3.4-.5.5s-.5.3-.8.4-.7.2-1.1.2q-.75 0-1.5-.3t-1.2-.9c-.45-.6-.6-.9-.8-1.5s-.3-1.2-.3-2c0-.7.1-1.4.3-2s.5-1.1.8-1.5q.45-.6 1.2-.9t1.5-.3c.4 0 .8.1 1.1.2s.6.3.8.5.4.4.5.6.2.3.3.5v-1.5h1.6v8.9h-1.6zm0-2.9c0-.4-.1-.9-.2-1.2-.1-.4-.3-.7-.5-1s-.4-.5-.7-.7-.6-.2-1-.2-.7.1-1 .2c-.3.2-.5.4-.7.7s-.3.6-.5 1c-.1.4-.2.8-.2 1.2s.1.9.2 1.2c.1.4.3.7.5 1s.4.5.7.7.6.2 1 .2.7-.1 1-.2c.3-.2.5-.4.7-.7s.4-.6.5-1 .2-.8.2-1.2M114.3 47.6h1.7v2.5h-1.7zm0 4.2h1.6v8.9h-1.6zM120.9 60.7h-1.6v-8.9h1.6v1.5c.1-.2.2-.4.4-.6.1-.2.3-.4.5-.5.2-.2.5-.3.8-.4s.6-.2 1-.2c1 0 1.9.3 2.5 1s.9 1.6.9 2.8v5.3h-1.7v-5c0-.9-.2-1.5-.6-1.9s-.9-.6-1.6-.6-1.3.2-1.7.7c-.4.4-.6 1.1-.6 1.9v4.9zM133.1 47.4c-.3.5-.5 1.2-.7 1.9s-.4 1.5-.5 2.3-.2 1.8-.2 2.9c0 1 .1 2 .2 2.9s.3 1.6.5 2.3.5 1.3.7 1.9l.7 1.4h-1.5c-.2-.4-.5-.9-.7-1.5s-.5-1.2-.7-1.9-.4-1.5-.5-2.3-.2-1.8-.2-2.8.1-2 .2-2.8c.1-.9.3-1.6.5-2.3s.4-1.3.7-1.9.5-1 .7-1.5h1.5c-.2.3-.4.8-.7 1.4M136.9 61.5c.3-.6.5-1.2.7-1.9s.4-1.5.5-2.3c.1-.9.2-1.8.2-2.9 0-1-.1-2-.2-2.9s-.3-1.6-.5-2.3-.5-1.3-.7-1.9c-.3-.5-.5-1-.7-1.4h1.5c.2.4.5.9.7 1.5s.5 1.2.7 1.9.4 1.5.5 2.3c.1.9.2 1.8.2 2.8s-.1 2-.2 2.8c-.1.9-.3 1.6-.5 2.3s-.4 1.3-.7 1.9-.5 1-.7 1.5h-1.5zM39.5 539l3.9-10.2H46v12.8h-1.7v-11.1L40 541.6h-1.2l-4.3-11.1v11h-1.6v-12.8h2.7zM53.2 532.5c.6 0 1.2.1 1.7.4.5.2 1 .6 1.3 1 .4.4.6.9.8 1.5q.3.9.3 1.8 0 1.05-.3 1.8c-.2.6-.5 1.1-.8 1.5-.4.4-.8.7-1.3 1s-1.1.4-1.7.4-1.2-.1-1.7-.4c-.5-.2-.9-.6-1.3-1s-.6-.9-.8-1.5q-.3-.9-.3-1.8 0-1.05.3-1.8c.2-.6.5-1.1.8-1.5.4-.4.8-.7 1.3-1s1.1-.4 1.7-.4m0 7.8c.4 0 .8-.1 1.1-.2.3-.2.6-.4.8-.7s.4-.6.5-1 .2-.8.2-1.2-.1-.8-.2-1.2-.3-.7-.5-1-.5-.5-.8-.7-.7-.2-1.1-.2-.8.1-1.1.2-.6.4-.8.7-.4.6-.5 1-.2.8-.2 1.2.1.8.2 1.2.3.7.5 1 .5.5.8.7.7.2 1.1.2M64.7 537.5l-4.1 4h-2.1l4.6-4.6-4.4-4.3h2.2l3.8 3.9v-3.9h1.6v3.9l3.8-3.9h2.2L68 537l4.7 4.6h-2.2l-4.1-4v4h-1.6v-4.1zM74.4 532.7H76v3.6h4.3v-3.6H82v8.9h-1.6v-3.8H76v3.8h-1.6zM88.9 532.5c.6 0 1.2.1 1.7.4.5.2 1 .6 1.3 1 .4.4.6.9.8 1.5q.3.9.3 1.8 0 1.05-.3 1.8c-.2.6-.5 1.1-.8 1.5-.4.4-.8.7-1.3 1s-1.1.4-1.7.4-1.2-.1-1.7-.4c-.5-.2-.9-.6-1.3-1s-.6-.9-.8-1.5q-.3-.9-.3-1.8 0-1.05.3-1.8c.2-.6.5-1.1.8-1.5.4-.4.8-.7 1.3-1s1.1-.4 1.7-.4m0 7.8c.4 0 .8-.1 1.1-.2.3-.2.6-.4.8-.7s.4-.6.5-1 .2-.8.2-1.2-.1-.8-.2-1.2-.3-.7-.5-1-.5-.5-.8-.7-.7-.2-1.1-.2-.8.1-1.1.2-.6.4-.8.7-.4.6-.5 1-.2.8-.2 1.2.1.8.2 1.2.3.7.5 1 .5.5.8.7.7.2 1.1.2M103.7 540.3c.7 0 1.2-.1 1.6-.3s.5-.6.5-1.1c0-.8-.5-1.1-1.6-1.1h-1.4v-1.4h1.4c.4 0 .8-.1 1-.3.3-.2.4-.5.4-.9s-.2-.7-.5-.9-.7-.3-1.3-.3-1.1.1-1.5.4-.6.6-.8.9H100c.1-.3.2-.7.4-1s.5-.6.8-.9.7-.5 1.2-.7 1-.3 1.6-.3c1 0 1.8.2 2.4.7s.9 1.1.9 2c0 .5-.1.9-.4 1.3q-.45.45-.9.6c.4.1.8.3 1.1.6s.5.7.5 1.3q0 .6-.3 1.2c-.3.6-.4.6-.8.9s-.7.4-1.2.6-1 .2-1.6.2-1.2-.1-1.6-.3c-.5-.2-.9-.4-1.2-.7s-.6-.6-.7-.9c-.2-.3-.3-.7-.3-1.1h1.6c.1.2.2.4.3.5.1.2.3.3.5.5s.4.3.7.3c.1.2.4.2.7.2M116.1 540.1c-.1.1-.1.3-.3.5-.1.2-.3.4-.5.5s-.5.3-.8.4-.7.2-1.1.2q-.75 0-1.5-.3t-1.2-.9c-.45-.6-.6-.9-.8-1.5s-.3-1.2-.3-2c0-.7.1-1.4.3-2s.5-1.1.8-1.5q.45-.6 1.2-.9t1.5-.3c.4 0 .8.1 1.1.2s.6.3.8.5.4.4.5.6.2.3.3.5v-1.5h1.6v8.9h-1.6zm0-3c0-.4-.1-.9-.2-1.2-.1-.4-.3-.7-.5-1s-.4-.5-.7-.7-.6-.2-1-.2-.7.1-1 .2c-.3.2-.5.4-.7.7s-.3.6-.5 1c-.1.4-.2.8-.2 1.2s.1.9.2 1.2c.1.4.3.7.5 1s.4.5.7.7.6.2 1 .2.7-.1 1-.2c.3-.2.5-.4.7-.7s.4-.6.5-1c.2-.3.2-.7.2-1.2M121 532.7h4.2c.4 0 .8 0 1.2.1s.7.2 1 .4.5.4.7.7.2.6.2 1.1c0 .6-.1 1-.4 1.3q-.45.45-.9.6c.4.1.8.3 1.1.6s.5.8.5 1.3c0 .8-.3 1.4-.9 1.9s-1.4.7-2.4.7H121zm1.7 1.4v2.2h2.6c.4 0 .8-.1 1-.3.3-.2.4-.5.4-.9 0-.3-.1-.6-.4-.8s-.6-.3-1.1-.3h-2.5zm0 3.7v2.4h2.5c1.1 0 1.6-.4 1.6-1.3 0-.3-.1-.6-.4-.8q-.45-.3-1.2-.3zM134.7 532.4c.6 0 1.1.1 1.6.3s.9.5 1.3.9.6.9.8 1.5.3 1.2.3 1.9v.3h-6.4c0 .4.1.8.2 1.1.1.4.3.7.5.9.2.3.5.5.8.6s.7.2 1.1.2.7 0 1-.1.5-.2.7-.3.3-.2.4-.4.2-.2.2-.3h1.6c0 .2-.1.4-.3.7-.1.3-.4.6-.6.9-.3.3-.7.5-1.1.7-.5.2-1.1.3-1.7.3s-1.2-.1-1.8-.4-1-.6-1.3-1c-.4-.4-.6-.9-.8-1.5q-.3-.9-.3-1.8c0-.7.1-1.3.3-1.9s.5-1.1.8-1.5.8-.7 1.3-1 .7-.1 1.4-.1m0 1.4c-.7 0-1.2.2-1.6.6s-.6.9-.8 1.6h4.6c-.1-.7-.4-1.3-.8-1.6-.3-.4-.8-.6-1.4-.6M143 545.4h-1.6v-12.7h1.6v1.5c0-.1.1-.3.3-.4.1-.2.3-.4.5-.6s.5-.3.8-.5c.3-.1.7-.2 1.2-.2q.75 0 1.5.3t1.2.9c.3.4.6.9.8 1.5s.3 1.2.3 2-.1 1.4-.3 2-.5 1.1-.8 1.5-.8.7-1.2.9q-.75.3-1.5.3c-.4 0-.8-.1-1.1-.2s-.6-.3-.8-.5l-.5-.5c-.1-.2-.2-.3-.3-.4v5.1zm0-8.3c0 .4.1.9.2 1.2.1.4.3.7.5 1s.5.5.8.7.7.2 1 .2c.4 0 .7-.1 1-.2.3-.2.6-.4.8-.7s.4-.6.5-1 .2-.8.2-1.2-.1-.9-.2-1.2c-.1-.4-.3-.7-.5-1s-.5-.5-.8-.7-.7-.2-1-.2c-.4 0-.7.1-1 .2s-.6.4-.8.7-.4.6-.5 1c-.2.4-.2.8-.2 1.2M154 532.7v7.4h3.6v-7.4h1.6v7.4h3.6v-7.4h1.6v8.9h-12.2v-8.9zM173.7 540.1c-.1.1-.1.3-.3.5-.1.2-.3.4-.5.5s-.5.3-.8.4-.7.2-1.1.2q-.75 0-1.5-.3t-1.2-.9c-.45-.6-.6-.9-.8-1.5s-.3-1.2-.3-2c0-.7.1-1.4.3-2s.5-1.1.8-1.5q.45-.6 1.2-.9t1.5-.3c.4 0 .8.1 1.1.2s.6.3.8.5.4.4.5.6.2.3.3.5v-1.5h1.6v8.9h-1.6zm0-3c0-.4-.1-.9-.2-1.2-.1-.4-.3-.7-.5-1s-.4-.5-.7-.7-.6-.2-1-.2-.7.1-1 .2c-.3.2-.5.4-.7.7s-.3.6-.5 1c-.1.4-.2.8-.2 1.2s.1.9.2 1.2c.1.4.3.7.5 1s.4.5.7.7.6.2 1 .2.7-.1 1-.2c.3-.2.5-.4.7-.7s.4-.6.5-1c.2-.3.2-.7.2-1.2M180.8 534.2h-3.1v-1.5h7.8v1.5h-3.1v7.4h-1.6zM191.5 535.5c.6 0 1.1.1 1.6.2.4.2.8.4 1.1.6s.5.6.6 1 .2.8.2 1.2-.1.8-.2 1.1c-.1.4-.4.7-.6 1-.3.3-.7.5-1.1.7s-1 .3-1.6.3h-3.6v-8.9h1.6v2.9h2zm-2 1.5v3.1h1.8c.6 0 1.1-.1 1.5-.4.3-.3.5-.6.5-1.2 0-.5-.2-.8-.5-1.1s-.8-.4-1.5-.4zM85.6 563.4H84v-12.7h1.6v1.5c0-.1.1-.3.3-.4.1-.2.3-.4.5-.6s.5-.3.8-.5c.3-.1.7-.2 1.2-.2q.75 0 1.5.3t1.2.9c.3.4.6.9.8 1.5s.3 1.2.3 2-.1 1.4-.3 2-.5 1.1-.8 1.5-.8.7-1.2.9q-.75.3-1.5.3c-.4 0-.8-.1-1.1-.2s-.6-.3-.8-.5l-.5-.5c-.1-.2-.2-.3-.3-.4v5.1zm0-8.3c0 .4.1.9.2 1.2.1.4.3.7.5 1s.5.5.8.7.7.2 1 .2c.4 0 .7-.1 1-.2.3-.2.6-.4.8-.7s.4-.6.5-1 .2-.8.2-1.2-.1-.9-.2-1.2c-.1-.4-.3-.7-.5-1s-.5-.5-.8-.7-.7-.2-1-.2c-.4 0-.7.1-1 .2s-.6.4-.8.7-.4.6-.5 1-.2.8-.2 1.2M100.9 558.1c-.1.1-.1.3-.3.5-.1.2-.3.4-.5.5s-.5.3-.8.4-.7.2-1.1.2q-.75 0-1.5-.3t-1.2-.9c-.45-.6-.6-.9-.8-1.5s-.3-1.2-.3-2c0-.7.1-1.4.3-2s.5-1.1.8-1.5q.45-.6 1.2-.9t1.5-.3c.4 0 .8.1 1.1.2s.6.3.8.5.4.4.5.6.2.3.3.5v-1.5h1.6v8.9h-1.6zm0-3c0-.4-.1-.9-.2-1.2-.1-.4-.3-.7-.5-1s-.4-.5-.7-.7-.6-.2-1-.2-.7.1-1 .2c-.3.2-.5.4-.7.7s-.3.6-.5 1c-.1.4-.2.8-.2 1.2s.1.9.2 1.2c.1.4.3.7.5 1s.4.5.7.7.6.2 1 .2.7-.1 1-.2c.3-.2.5-.4.7-.7s.4-.6.5-1c.2-.3.2-.7.2-1.2M105.4 554.9v-1.7999999999999998c0-.2 0-.5.1-.8.1-.7.2-1.4.4-2q.3-.9.9-1.5c.4-.4.9-.8 1.5-1.1s1.3-.5 2.2-.7l2.9-.6v1.5l-2.8.6c-.6.1-1.1.3-1.5.5s-.7.4-1 .7-.5.7-.6 1.1-.2 1-.3 1.6c.2-.4.6-.8 1-1.1s1-.4 1.7-.4c.6 0 1.1.1 1.6.3s.9.5 1.3.9c.3.4.6.9.8 1.4.2.6.3 1.2.3 1.9q0 .9-.3 1.8c-.2.5-.5 1-.8 1.4-.4.4-.8.7-1.3.9s-1.1.3-1.7.3-1.2-.1-1.7-.3-1-.6-1.3-1c-.4-.4-.6-.9-.8-1.5s-.6-1.3-.6-2.1m4.2 3.4c.4 0 .8-.1 1.1-.2.3-.2.6-.4.8-.6s.4-.6.5-.9c.1-.4.2-.7.2-1.2 0-.4-.1-.8-.2-1.2s-.3-.7-.5-.9-.5-.5-.8-.6c-.3-.2-.7-.2-1.1-.2s-.8.1-1.1.2c-.3.2-.6.4-.8.6s-.4.6-.5.9c-.1.4-.2.7-.2 1.2 0 .4.1.8.2 1.2s.3.7.5.9.5.5.8.6c.4.1.7.2 1.1.2M120.1 550.5c.6 0 1.2.1 1.7.4.5.2 1 .6 1.3 1 .4.4.6.9.8 1.5q.3.9.3 1.8 0 1.05-.3 1.8c-.2.6-.5 1.1-.8 1.5-.4.4-.8.7-1.3 1s-1.1.4-1.7.4-1.2-.1-1.7-.4c-.5-.2-.9-.6-1.3-1s-.6-.9-.8-1.5q-.3-.9-.3-1.8 0-1.05.3-1.8c.2-.6.5-1.1.8-1.5.4-.4.8-.7 1.3-1s1.1-.4 1.7-.4m0 7.8c.4 0 .8-.1 1.1-.2.3-.2.6-.4.8-.7s.4-.6.5-1 .2-.8.2-1.2-.1-.8-.2-1.2-.3-.7-.5-1-.5-.5-.8-.7-.7-.2-1.1-.2-.8.1-1.1.2-.6.4-.8.7-.4.6-.5 1-.2.8-.2 1.2.1.8.2 1.2.3.7.5 1 .5.5.8.7.7.2 1.1.2M129 552.2h-3.1v-1.5h7.8v1.5h-3.1v7.4H129zM138.5 563.4h-1.6l1.6-4-3.6-8.7h1.8l2.6 6.6 2.6-6.6h1.7z" class="st4"/><path d="m71.3 182.3 3.9-10.2h2.6v12.8h-1.7v-11.1L71.7 185h-1.2l-4.3-11.1v11h-1.6v-12.8h2.7zM81.5 171.7h1.7v2.5h-1.7zm0 4.3h1.6v8.9h-1.6zM91.9 178.3c-.1-.2-.2-.3-.4-.5-.2-.1-.4-.3-.6-.4s-.6-.2-.9-.2c-.4 0-.7.1-1 .2-.3.2-.5.4-.7.7s-.4.6-.5 1-.2.8-.2 1.2.1.9.2 1.2c.1.4.3.7.5 1s.5.5.7.7c.3.2.6.2 1 .2s.7-.1.9-.2c.3-.1.5-.2.6-.4.2-.1.3-.3.4-.4s.2-.3.2-.3h1.6c0 .1-.1.4-.2.7s-.3.6-.6 1c-.3.3-.7.6-1.1.8-.5.2-1.1.4-1.8.4-.6 0-1.1-.1-1.6-.4-.5-.2-.9-.6-1.3-1q-.6-.6-.9-1.5c-.2-.6-.3-1.2-.3-1.9s.1-1.3.3-1.9.5-1.1.8-1.5c.4-.4.8-.7 1.3-1 .5-.2 1-.4 1.6-.4.7 0 1.3.1 1.8.4.5.2.8.5 1.1.8s.5.6.6 1c.1.3.2.6.2.7H92c.1.2 0 .1-.1 0M97.9 184.9h-1.6V176h1.6v1.6c.1-.2.2-.3.3-.5s.3-.4.6-.5c.2-.2.5-.3.9-.4s.8-.2 1.3-.2h1.7v1.6h-1.9c-1 0-1.8.2-2.2.6s-.7 1-.7 1.7zM108.4 175.8c.6 0 1.2.1 1.7.4.5.2 1 .6 1.3 1 .4.4.6.9.8 1.5q.3.9.3 1.8 0 1.05-.3 1.8c-.2.6-.5 1.1-.8 1.5-.4.4-.8.7-1.3 1s-1.1.4-1.7.4-1.2-.1-1.7-.4c-.5-.2-.9-.6-1.3-1s-.6-.9-.8-1.5q-.3-.9-.3-1.8 0-1.05.3-1.8c.2-.6.5-1.1.8-1.5.4-.4.8-.7 1.3-1s1.1-.4 1.7-.4m0 7.8c.4 0 .8-.1 1.1-.2.3-.2.6-.4.8-.7s.4-.6.5-1 .2-.8.2-1.2-.1-.8-.2-1.2-.3-.7-.5-1-.5-.5-.8-.7-.7-.2-1.1-.2-.8.1-1.1.2-.6.4-.8.7-.4.6-.5 1-.2.8-.2 1.2.1.8.2 1.2.3.7.5 1 .5.5.8.7.7.2 1.1.2M121.3 184.9h-1.9c-2 0-3-1-3-2.9v-4.5h-2.3V176h2.3v-3.9h1.6v3.9h3.2v1.5H118v4.2c0 .6.1 1.1.4 1.3.2.3.7.4 1.4.4h1.5zM129.7 183.4c-.1.1-.1.3-.3.5-.1.2-.3.4-.5.5s-.5.3-.8.4-.7.2-1.1.2q-.75 0-1.5-.3t-1.2-.9c-.45-.6-.6-.9-.8-1.5s-.3-1.2-.3-2c0-.7.1-1.4.3-2s.5-1.1.8-1.5q.45-.6 1.2-.9t1.5-.3c.4 0 .8.1 1.1.2s.6.3.8.5.4.4.5.6.2.3.3.5V176h1.6v8.9h-1.6zm.1-3c0-.4-.1-.9-.2-1.2-.1-.4-.3-.7-.5-1s-.4-.5-.7-.7-.6-.2-1-.2-.7.1-1 .2c-.3.2-.5.4-.7.7s-.3.6-.5 1c-.1.4-.2.8-.2 1.2s.1.9.2 1.2c.1.4.3.7.5 1s.4.5.7.7.6.2 1 .2.7-.1 1-.2c.3-.2.5-.4.7-.7s.4-.6.5-1c.1-.3.2-.7.2-1.2M137.2 181c-.9-.1-1.6-.4-2.1-.8-.6-.4-.8-1.1-.8-1.9 0-.4.1-.8.3-1.1s.4-.6.7-.8.7-.4 1.1-.5.9-.2 1.4-.2q1.05 0 1.8.3c.5.2.9.4 1.2.7s.5.5.6.8.2.5.3.7h-1.6l-.2-.2c-.1-.1-.2-.2-.4-.3s-.4-.2-.7-.3-.6-.1-1-.1c-.6 0-1.1.1-1.4.3s-.5.5-.5.8c0 .7.5 1.1 1.6 1.2l1.2.1c1.1.1 1.8.4 2.3.9s.7 1.1.7 1.9c0 .4-.1.7-.2 1.1-.2.3-.4.6-.7.9-.3.2-.7.4-1.1.6-.4.1-.9.2-1.5.2-.8 0-1.4-.1-1.9-.3s-.9-.4-1.3-.7c-.3-.3-.6-.6-.7-.9-.2-.3-.3-.6-.3-.8h1.7c0 .1.1.2.2.3s.2.3.4.4.5.2.8.4c.3.1.7.2 1.1.2.6 0 1.1-.1 1.4-.3s.5-.5.5-.9-.1-.7-.4-.9c-.2-.2-.6-.3-1.2-.4zM146 180.7v4.2h-1.6v-13.2h1.6v8.2l4.2-3.8h2.2l-4.7 4.2 4.9 4.7h-2.2zM55.2 200.1c0 .7-.1 1.4-.2 2-.2.6-.4 1.2-.7 1.7s-.7 1-1.1 1.4-.9.7-1.4 1l3 3h-2.3l-2.6-2.5h-.4c-.9 0-1.7-.2-2.4-.5s-1.3-.8-1.8-1.4-.9-1.3-1.1-2.1-.4-1.7-.4-2.6.1-1.8.4-2.6q.45-1.2 1.2-2.1c.5-.6 1.1-1 1.8-1.4.7-.3 1.5-.5 2.4-.5s1.7.2 2.4.5 1.3.8 1.8 1.4q.75.9 1.2 2.1c.1.8.2 1.6.2 2.6m-5.7 4.9c.6 0 1.2-.1 1.7-.4s.9-.6 1.2-1.1.6-1 .8-1.6.3-1.3.3-1.9c0-.7-.1-1.3-.3-1.9s-.4-1.1-.8-1.6-.7-.8-1.2-1.1-1.1-.4-1.7-.4-1.2.1-1.7.4-.9.6-1.2 1.1-.6 1-.8 1.6-.3 1.3-.3 1.9c0 .7.1 1.4.3 2s.4 1.1.8 1.6.7.8 1.2 1c.5.3 1 .4 1.7.4M61.9 206.6c-.6 0-1.2-.1-1.7-.3s-.9-.4-1.2-.8c-.3-.3-.6-.7-.7-1.2-.2-.5-.2-1-.2-1.5v-5.4h1.7v5.3c0 .7.2 1.2.5 1.6.4.4.9.6 1.6.6s1.2-.2 1.6-.6.6-1 .6-1.6v-5.3h1.6v5.4c0 .5-.1 1-.2 1.4-.2.5-.4.8-.7 1.2s-.7.6-1.2.8c-.5.3-1.1.4-1.7.4M72.4 197.3c.6 0 1.1.1 1.6.3s.9.5 1.3.9.6.9.8 1.5.3 1.2.3 1.9v.3H70c0 .4.1.8.2 1.1.1.4.3.7.5.9.2.3.5.5.8.6s.7.2 1.1.2.7 0 1-.1.5-.2.7-.3.3-.2.4-.4.2-.2.2-.3h1.6c0 .2-.1.4-.3.7-.1.3-.4.6-.6.9-.3.3-.7.5-1.1.7-.5.2-1.1.3-1.7.3s-1.2-.1-1.8-.4-1-.6-1.3-1c-.4-.4-.6-.9-.8-1.5q-.3-.9-.3-1.8c0-.7.1-1.3.3-1.9s.5-1.1.8-1.5.8-.7 1.3-1 .8-.1 1.4-.1m0 1.4c-.7 0-1.2.2-1.6.6s-.6.9-.8 1.6h4.6c-.1-.7-.4-1.3-.8-1.6-.2-.4-.8-.6-1.4-.6M82.9 206.6c-.6 0-1.2-.1-1.7-.3s-.9-.4-1.2-.8c-.3-.3-.6-.7-.7-1.2-.2-.5-.2-1-.2-1.5v-5.4h1.7v5.3c0 .7.2 1.2.5 1.6.4.4.9.6 1.6.6s1.2-.2 1.6-.6.6-1 .6-1.6v-5.3h1.6v5.4c0 .5-.1 1-.2 1.4-.2.5-.4.8-.7 1.2s-.7.6-1.2.8c-.6.3-1.1.4-1.7.4M93.4 197.3c.6 0 1.1.1 1.6.3s.9.5 1.3.9.6.9.8 1.5.3 1.2.3 1.9v.3H91c0 .4.1.8.2 1.1.1.4.3.7.5.9.2.3.5.5.8.6s.7.2 1.1.2.7 0 1-.1.5-.2.7-.3.3-.2.4-.4.2-.2.2-.3h1.6c0 .2-.1.4-.3.7-.1.3-.4.6-.6.9-.3.3-.7.5-1.1.7-.5.2-1.1.3-1.7.3s-1.2-.1-1.8-.4-1-.6-1.3-1c-.4-.4-.6-.9-.8-1.5q-.3-.9-.3-1.8c0-.7.1-1.3.3-1.9s.5-1.1.8-1.5.8-.7 1.3-1 .7-.1 1.4-.1m0 1.4c-.7 0-1.2.2-1.6.6s-.6.9-.8 1.6h4.6c-.1-.7-.4-1.3-.8-1.6-.3-.4-.8-.6-1.4-.6M104.8 197.6h7.4v8.9h-1.6V199h-4.2v7.4h-1.6zM118 210.3h-1.6l1.6-4-3.6-8.7h1.8l2.6 6.6 2.6-6.6h1.7zM130.5 199.9c-.1-.2-.2-.3-.4-.5-.2-.1-.4-.3-.6-.4s-.6-.2-.9-.2c-.4 0-.7.1-1 .2-.3.2-.5.4-.7.7s-.4.6-.5 1-.2.8-.2 1.2.1.9.2 1.2c.1.4.3.7.5 1s.5.5.7.7c.3.2.6.2 1 .2s.7-.1.9-.2c.3-.1.5-.2.6-.4.2-.1.3-.3.4-.4s.2-.3.2-.3h1.6c0 .1-.1.4-.2.7s-.3.6-.6 1c-.3.3-.7.6-1.1.8-.5.2-1.1.4-1.8.4-.6 0-1.1-.1-1.6-.4-.5-.2-.9-.6-1.3-1q-.6-.6-.9-1.5c-.2-.6-.3-1.2-.3-1.9s.1-1.3.3-1.9.5-1.1.8-1.5c.4-.4.8-.7 1.3-1 .5-.2 1-.4 1.6-.4.7 0 1.3.1 1.8.4.5.2.8.5 1.1.8s.5.6.6 1c.1.3.2.6.2.7h-1.6c.1.2 0 .1-.1 0M137 199h-3.1v-1.5h7.8v1.5h-3.1v7.4H137zM149.9 205c-.1.1-.1.3-.3.5-.1.2-.3.4-.5.5s-.5.3-.8.4-.7.2-1.1.2q-.75 0-1.5-.3t-1.2-.9c-.45-.6-.6-.9-.8-1.5s-.3-1.2-.3-2c0-.7.1-1.4.3-2s.5-1.1.8-1.5q.45-.6 1.2-.9t1.5-.3c.4 0 .8.1 1.1.2s.6.3.8.5.4.4.5.6.2.3.3.5v-1.5h1.6v8.9h-1.6zm0-3c0-.4-.1-.9-.2-1.2-.1-.4-.3-.7-.5-1s-.4-.5-.7-.7-.6-.2-1-.2-.7.1-1 .2c-.3.2-.5.4-.7.7s-.3.6-.5 1c-.1.4-.2.8-.2 1.2s.1.9.2 1.2c.1.4.3.7.5 1s.4.5.7.7.6.2 1 .2.7-.1 1-.2c.3-.2.5-.4.7-.7s.4-.6.5-1c.1-.3.2-.7.2-1.2M159.9 206.5v-3.2H158l-2.2 3.2H154l2.4-3.4c-.7-.2-1.2-.5-1.6-1s-.5-1.1-.5-1.7c0-.4.1-.7.2-1s.3-.6.6-.9.6-.5 1-.6c.4-.2.9-.2 1.4-.2h4.2v8.9h-1.8zm0-4.7V199h-2.3c-1.1 0-1.6.4-1.6 1.3 0 .4.1.8.4 1 .3.3.7.4 1.2.4h2.3zM166.2 202.3v-.1c0-.3 0-.5.1-.7 0-.2.1-.4.2-.6s.2-.3.4-.5.4-.3.7-.5l1.3-.9c.4-.3.7-.6 1-.9s.4-.8.4-1.2c0-.6-.2-1-.5-1.4s-.8-.5-1.5-.5q-.9 0-1.5.6c-.4.4-.5.9-.5 1.5v.6h-1.6v-.7c0-1.1.3-2 1-2.6.6-.6 1.5-1 2.7-1q1.8 0 2.7.9c.6.6 1 1.4 1 2.4 0 .8-.2 1.4-.6 2-.4.5-.9 1-1.6 1.5l-1.3.9c-.2.2-.4.3-.5.5s-.1.4-.1.7zm-.2 1.6h2.1v2.6H166zM103.1 298.7v-4.2h1.1q.45-.6.6-1.5c.1-.6.3-1.5.4-2.6l.3-3.3h6.2v7.4h1.6v4.2h-1.5V296h-7.3v2.7zm7-10.1h-3.2l-.2 2c-.1 1-.2 1.9-.3 2.5s-.3 1.1-.5 1.5h4.3v-6zM121.3 294.5c-.1.1-.1.3-.3.5-.1.2-.3.4-.5.5s-.5.3-.8.5c-.3.1-.7.2-1.1.2q-.75 0-1.5-.3t-1.2-.9c-.3-.4-.6-.9-.8-1.5s-.3-1.2-.3-2c0-.7.1-1.4.3-2s.5-1.1.8-1.5.7-.7 1.2-.9q.75-.3 1.5-.3c.4 0 .8.1 1.1.2s.6.3.8.5.4.4.5.6.2.3.3.5v-1.5h1.6v8.9h-1.6zm0-2.9c0-.4-.1-.9-.2-1.2-.1-.4-.3-.7-.5-1s-.4-.5-.7-.7-.6-.2-1-.2-.7.1-1 .2c-.3.2-.5.4-.7.7s-.3.6-.5 1c-.1.4-.2.8-.2 1.2s.1.9.2 1.2.3.7.5 1 .4.5.7.7.6.2 1 .2.7-.1 1-.2.5-.4.7-.7.4-.6.5-1 .2-.8.2-1.2M251 192h1.6v3.6h4.3V192h1.6v8.9h-1.6v-3.8h-4.3v3.8H251zM265.4 191.7c.6 0 1.1.1 1.6.3s.9.5 1.3.9.6.9.8 1.5.3 1.2.3 1.9v.3H263c0 .4.1.8.2 1.1.1.4.3.7.5.9.2.3.5.5.8.6s.7.2 1.1.2.7 0 1-.1.5-.2.7-.3.3-.2.4-.4.2-.2.2-.3h1.6c0 .2-.1.4-.3.7-.1.3-.4.6-.6.9-.3.3-.7.5-1.1.7-.5.2-1.1.3-1.7.3s-1.2-.1-1.8-.4-1-.6-1.3-1c-.4-.4-.6-.9-.8-1.5q-.3-.9-.3-1.8c0-.7.1-1.3.3-1.9s.5-1.1.8-1.5.8-.7 1.3-1 .7-.1 1.4-.1m0 1.4c-.7 0-1.2.2-1.6.6s-.6.9-.8 1.6h4.6c-.1-.7-.4-1.3-.8-1.6-.3-.4-.8-.6-1.4-.6M274 193.4h-3V192h7.8v1.5h-3.1v7.4H274zM251 388.2h1.6v3.6h4.3v-3.6h1.6v8.9h-1.6v-3.8h-4.3v3.8H251zM265.4 388c.6 0 1.1.1 1.6.3s.9.5 1.3.9.6.9.8 1.5.3 1.2.3 1.9v.3H263c0 .4.1.8.2 1.1.1.4.3.7.5.9.2.3.5.5.8.6s.7.2 1.1.2.7 0 1-.1.5-.2.7-.3.3-.2.4-.4.2-.2.2-.3h1.6c0 .2-.1.4-.3.7-.1.3-.4.6-.6.9-.3.3-.7.5-1.1.7-.5.2-1.1.3-1.7.3s-1.2-.1-1.8-.4-1-.6-1.3-1c-.4-.4-.6-.9-.8-1.5q-.3-.9-.3-1.8c0-.7.1-1.3.3-1.9s.5-1.1.8-1.5.8-.7 1.3-1 .7-.1 1.4-.1m0 1.4c-.7 0-1.2.2-1.6.6s-.6.9-.8 1.6h4.6c-.1-.7-.4-1.3-.8-1.6-.3-.4-.8-.6-1.4-.6M274 389.7h-3v-1.5h7.8v1.5h-3.1v7.4H274zM103.1 494.8v-4.2h1.1q.45-.6.6-1.5c.1-.6.3-1.5.4-2.6l.3-3.3h6.2v7.4h1.6v4.2h-1.5v-2.7h-7.3v2.7zm7-10.1h-3.2l-.2 2c-.1 1-.2 1.9-.3 2.5s-.3 1.1-.5 1.5h4.3v-6zM121.3 490.6c-.1.1-.1.3-.3.5-.1.2-.3.4-.5.5s-.5.3-.8.4-.7.2-1.1.2q-.75 0-1.5-.3t-1.2-.9c-.45-.6-.6-.9-.8-1.5s-.3-1.2-.3-2c0-.7.1-1.4.3-2s.5-1.1.8-1.5q.45-.6 1.2-.9t1.5-.3c.4 0 .8.1 1.1.2s.6.3.8.5.4.4.5.6.2.3.3.5v-1.5h1.6v8.9h-1.6zm0-2.9c0-.4-.1-.9-.2-1.2-.1-.4-.3-.7-.5-1s-.4-.5-.7-.7-.6-.2-1-.2-.7.1-1 .2c-.3.2-.5.4-.7.7s-.3.6-.5 1c-.1.4-.2.8-.2 1.2s.1.9.2 1.2c.1.4.3.7.5 1s.4.5.7.7.6.2 1 .2.7-.1 1-.2c.3-.2.5-.4.7-.7s.4-.6.5-1c.2-.4.2-.8.2-1.2M82.2 376.1c-.9 0-1.7-.2-2.4-.5s-1.3-.8-1.8-1.4-.9-1.3-1.1-2.1-.4-1.7-.4-2.6.1-1.8.4-2.6q.45-1.2 1.2-2.1c.5-.6 1.1-1 1.8-1.4.7-.3 1.5-.5 2.4-.5s1.7.2 2.4.5 1.3.8 1.8 1.4q.75.9 1.2 2.1c.3.8.4 1.7.4 2.6s-.1 1.8-.4 2.6-.7 1.5-1.2 2.1-1.1 1-1.8 1.4-1.7.5-2.5.5m0-1.7c.6 0 1.2-.1 1.7-.4s.9-.6 1.2-1.1.6-1 .8-1.6.3-1.3.3-1.9c0-.7-.1-1.3-.3-1.9s-.4-1.1-.8-1.6-.7-.8-1.2-1.1-1.1-.4-1.7-.4-1.2.1-1.7.4-.9.6-1.2 1.1-.6 1-.8 1.6-.3 1.3-.3 1.9c0 .7.1 1.4.3 2s.4 1.1.8 1.6.7.8 1.2 1c.5.3 1 .4 1.7.4M96.4 372.5c-.2 0-.3.1-.5.1s-.4 0-.6.1h-.8c-1.2 0-2.1-.3-2.8-.8s-1-1.4-1-2.6V367h1.6v2.2c0 .7.1 1.2.4 1.6s.8.5 1.7.5h.8c.2 0 .4 0 .6-.1.2 0 .4-.1.5-.1V367H98v8.9h-1.6zM104.8 366.7c.6 0 1.1.1 1.6.3s.9.5 1.3.9.6.9.8 1.5.3 1.2.3 1.9v.3h-6.4c0 .4.1.8.2 1.1.1.4.3.7.5.9.2.3.5.5.8.6s.7.2 1.1.2.7 0 1-.1.5-.2.7-.3.3-.2.4-.4.2-.2.2-.3h1.6c0 .2-.1.4-.3.7-.1.3-.4.6-.6.9-.3.3-.7.5-1.1.7-.5.2-1.1.3-1.7.3s-1.2-.1-1.8-.4-1-.6-1.3-1c-.4-.4-.6-.9-.8-1.5q-.3-.9-.3-1.8c0-.7.1-1.3.3-1.9s.5-1.1.8-1.5.8-.7 1.3-1 .8-.1 1.4-.1m0 1.4c-.7 0-1.2.2-1.6.6s-.6.9-.8 1.6h4.6c-.1-.7-.4-1.3-.8-1.6-.3-.4-.8-.6-1.4-.6M113.1 379.7h-1.6V367h1.6v1.5c0-.1.1-.3.3-.4.1-.2.3-.4.5-.6s.5-.3.8-.5c.3-.1.7-.2 1.2-.2q.75 0 1.5.3t1.2.9c.3.4.6.9.8 1.5s.3 1.2.3 2-.1 1.4-.3 2-.5 1.1-.8 1.5-.8.7-1.2.9q-.75.3-1.5.3c-.4 0-.8-.1-1.1-.2s-.6-.3-.8-.5l-.5-.5c-.1-.2-.2-.3-.3-.4v5.1zm0-8.3c0 .4.1.9.2 1.2.1.4.3.7.5 1s.5.5.8.7.7.2 1 .2c.4 0 .7-.1 1-.2.3-.2.6-.4.8-.7s.4-.6.5-1 .2-.8.2-1.2-.1-.9-.2-1.2c-.1-.4-.3-.7-.5-1s-.5-.5-.8-.7-.7-.2-1-.2c-.4 0-.7.1-1 .2s-.6.4-.8.7-.4.6-.5 1c-.2.3-.2.7-.2 1.2M126 366.7c.6 0 1.1.1 1.6.3s.9.5 1.3.9.6.9.8 1.5.3 1.2.3 1.9v.3h-6.4c0 .4.1.8.2 1.1.1.4.3.7.5.9.2.3.5.5.8.6s.7.2 1.1.2.7 0 1-.1.5-.2.7-.3.3-.2.4-.4.2-.2.2-.3h1.6c0 .2-.1.4-.3.7-.1.3-.4.6-.6.9-.3.3-.7.5-1.1.7-.5.2-1.1.3-1.7.3s-1.2-.1-1.8-.4-1-.6-1.3-1c-.4-.4-.6-.9-.8-1.5q-.3-.9-.3-1.8c0-.7.1-1.3.3-1.9s.5-1.1.8-1.5.8-.7 1.3-1 .7-.1 1.4-.1m0 1.4c-.7 0-1.2.2-1.6.6s-.6.9-.8 1.6h4.6c-.1-.7-.4-1.3-.8-1.6-.3-.4-.8-.6-1.4-.6M131.2 378.5v-4.2h1.1q.45-.6.6-1.5c.1-.6.3-1.5.4-2.6l.3-3.3h6.2v7.4h1.6v4.2h-1.5v-2.7h-7.3v2.7zm6.9-10.1h-3.2l-.2 2c-.1 1-.2 1.9-.3 2.5s-.3 1.1-.5 1.5h4.3v-6zM147.2 369.8c.6 0 1.1.1 1.6.2.4.2.8.4 1.1.6s.5.6.6 1 .2.8.2 1.2-.1.8-.2 1.1c-.1.4-.4.7-.6 1-.3.3-.7.5-1.1.7s-1 .3-1.6.3h-3.6V367h1.6v2.9h2zm-2 1.5v3.1h1.8c.6 0 1.1-.1 1.5-.4.3-.3.5-.6.5-1.2 0-.5-.2-.8-.5-1.1s-.8-.4-1.5-.4zM82.3 390.8c-.1-.2-.2-.3-.4-.5-.2-.1-.4-.3-.6-.4s-.6-.2-.9-.2c-.4 0-.7.1-1 .2-.3.2-.5.4-.7.7s-.4.6-.5 1-.2.9-.2 1.4c0 .4.1.9.2 1.2.1.4.3.7.5 1s.5.5.7.7c.3.2.6.2 1 .2s.7-.1.9-.2c.3-.1.5-.2.6-.4.2-.1.3-.3.4-.4s.2-.3.2-.3h1.6c0 .1-.1.4-.2.7s-.3.6-.6 1c-.3.3-.7.6-1.1.8-.5.2-1.1.4-1.8.4-.6 0-1.1-.1-1.6-.4-.5-.2-.9-.6-1.3-1q-.6-.6-.9-1.5c-.2-.6-.3-1.2-.3-1.9s.1-1.3.3-1.9.5-1.1.8-1.5c.4-.4.8-.7 1.3-1 .5-.2 1-.4 1.6-.4.7 0 1.3.1 1.8.4.5.2.8.5 1.1.8s.5.6.6 1c.1.3.2.6.2.7h-1.6c.1.1 0 0-.1-.2M90.2 388.3c.6 0 1.2.1 1.7.4.5.2 1 .6 1.3 1 .4.4.6.9.8 1.5q.3.9.3 1.8 0 1.05-.3 1.8c-.2.6-.5 1.1-.8 1.5-.4.4-.8.7-1.3 1s-1.1.4-1.7.4-1.2-.1-1.7-.4c-.5-.2-.9-.6-1.3-1s-.6-.9-.8-1.5q-.3-.9-.3-1.8 0-1.05.3-1.8c.2-.6.5-1.1.8-1.5.4-.4.8-.7 1.3-1 .5-.2 1-.4 1.7-.4m0 7.8c.4 0 .8-.1 1.1-.2.3-.2.6-.4.8-.7s.4-.6.5-1 .2-.8.2-1.2-.1-.8-.2-1.2-.3-.7-.5-1-.5-.5-.8-.7-.7-.2-1.1-.2-.8.1-1.1.2-.6.4-.8.7-.4.6-.5 1-.2.8-.2 1.2.1.8.2 1.2.3.7.5 1 .5.5.8.7.7.2 1.1.2M96.7 392.8V391c0-.2 0-.5.1-.8.1-.7.2-1.4.4-2q.3-.9.9-1.5c.4-.4.9-.8 1.5-1.1s1.3-.5 2.2-.7l2.9-.6v1.5l-2.8.6c-.6.1-1.1.3-1.5.5s-.7.4-1 .7-.5.7-.6 1.1-.2 1-.3 1.6c.2-.4.6-.8 1-1.1s1-.4 1.7-.4c.6 0 1.1.1 1.6.3s.9.5 1.3.9c.3.4.6.9.8 1.4.2.6.3 1.2.3 1.9q0 .9-.3 1.8c-.2.5-.5 1-.8 1.4-.4.4-.8.7-1.3.9s-1.1.3-1.7.3-1.2-.1-1.7-.3-1-.6-1.3-1c-.4-.4-.6-.9-.8-1.5s-.6-1.4-.6-2.1m4.2 3.3c.4 0 .8-.1 1.1-.2.3-.2.6-.4.8-.6s.4-.6.5-.9c.1-.4.2-.7.2-1.2 0-.4-.1-.8-.2-1.2s-.3-.7-.5-.9-.5-.5-.8-.6c-.3-.2-.7-.2-1.1-.2s-.8.1-1.1.2c-.3.2-.6.4-.8.6s-.4.6-.5.9c-.1.4-.2.7-.2 1.2 0 .4.1.8.2 1.2s.3.7.5.9.5.5.8.6c.3.2.7.2 1.1.2M111.4 391.4c.6 0 1.1.1 1.6.2.4.2.8.4 1.1.6s.5.6.6 1 .2.8.2 1.2-.1.8-.2 1.1c-.1.4-.4.7-.6 1-.3.3-.7.5-1.1.7s-1 .3-1.6.3h-3.6v-8.9h1.6v2.9h2zm-2 1.5v3.1h1.8c.6 0 1.1-.1 1.5-.4.3-.3.5-.6.5-1.2 0-.5-.2-.8-.5-1.1s-.8-.4-1.5-.4zm7-4.4h1.6v8.9h-1.6zM123.5 390h-3.1v-1.5h7.8v1.5h-3.1v7.4h-1.6zM130.6 388.5h1.6v6.5l4.5-6.5h1.6v8.9h-1.6v-6.6l-4.5 6.6h-1.6zM141.7 388.5h1.6v6.5l4.5-6.5h1.6v8.9h-1.6v-6.6l-4.5 6.6h-1.6zm3.9-2.7c.4 0 .6-.1.8-.4q.3-.3.3-.9v-.3h1.4v.3c0 .3-.1.7-.2 1s-.3.6-.5.8-.4.4-.7.5-.7.2-1.1.2-.8-.1-1.1-.2-.5-.3-.7-.5-.3-.5-.4-.8-.2-.6-.2-1v-.3h1.4v.3c0 .3.1.6.3.8 0 .4.3.5.7.5M79.9 410.1h7.4v8.9h-1.6v-7.4h-4.2v7.4h-1.6zM93.1 422.9h-1.6l1.6-4-3.6-8.7h1.8l2.6 6.6 2.6-6.6h1.7zM105.6 412.4c-.1-.2-.2-.3-.4-.5-.2-.1-.4-.3-.6-.4s-.6-.2-.9-.2c-.4 0-.7.1-1 .2-.3.2-.5.4-.7.7s-.4.6-.5 1-.2.8-.2 1.2.1.9.2 1.2c.1.4.3.7.5 1s.5.5.7.7c.3.2.6.2 1 .2s.7-.1.9-.2c.3-.1.5-.2.6-.4.2-.1.3-.3.4-.4s.2-.3.2-.3h1.6c0 .1-.1.4-.2.7s-.3.6-.6 1c-.3.3-.7.6-1.1.8-.5.2-1.1.4-1.8.4-.6 0-1.1-.1-1.6-.4-.5-.2-.9-.6-1.3-1q-.6-.6-.9-1.5c-.2-.6-.3-1.2-.3-1.9s.1-1.3.3-1.9.5-1.1.8-1.5c.4-.4.8-.7 1.3-1 .5-.2 1-.4 1.6-.4.7 0 1.3.1 1.8.4.5.2.8.5 1.1.8s.5.6.6 1c.1.3.2.6.2.7h-1.6c.1.3 0 .2-.1 0M112.1 411.6H109v-1.5h7.8v1.5h-3.1v7.4h-1.6zM125 417.6c-.1.1-.1.3-.3.5-.1.2-.3.4-.5.5s-.5.3-.8.4-.7.2-1.1.2q-.75 0-1.5-.3t-1.2-.9c-.45-.6-.6-.9-.8-1.5s-.3-1.2-.3-2c0-.7.1-1.4.3-2s.5-1.1.8-1.5q.45-.6 1.2-.9t1.5-.3c.4 0 .8.1 1.1.2s.6.3.8.5.4.4.5.6.2.3.3.5v-1.5h1.6v8.9H125zm0-3c0-.4-.1-.9-.2-1.2-.1-.4-.3-.7-.5-1s-.4-.5-.7-.7-.6-.2-1-.2-.7.1-1 .2c-.3.2-.5.4-.7.7s-.3.6-.5 1c-.1.4-.2.8-.2 1.2s.1.9.2 1.2c.1.4.3.7.5 1s.4.5.7.7.6.2 1 .2.7-.1 1-.2c.3-.2.5-.4.7-.7s.4-.6.5-1c.1-.3.2-.8.2-1.2M135 419v-3.2h-1.9L131 419h-1.9l2.4-3.4c-.7-.2-1.2-.5-1.6-1s-.5-1.1-.5-1.7c0-.4.1-.7.2-1s.3-.6.6-.9.6-.5 1-.6c.4-.2.9-.2 1.4-.2h4.2v8.9H135zm0-4.7v-2.7h-2.3c-1.1 0-1.6.4-1.6 1.3 0 .4.1.8.4 1 .3.3.7.4 1.2.4zM141.3 414.9v-.1c0-.3 0-.5.1-.7 0-.2.1-.4.2-.6s.2-.3.4-.5.4-.3.7-.5l1.3-.9c.4-.3.7-.6 1-.9s.4-.8.4-1.2c0-.6-.2-1-.5-1.4s-.8-.5-1.5-.5q-.9 0-1.5.6c-.4.4-.5.9-.5 1.5v.6h-1.6v-.6c0-1.1.3-2 1-2.6.6-.6 1.5-1 2.7-1q1.8 0 2.7.9c.6.6 1 1.4 1 2.4 0 .8-.2 1.4-.6 2-.4.5-.9 1-1.6 1.5l-1.3.9c-.2.2-.4.3-.5.5s-.1.4-.1.7h-1.8zm-.2 1.6h2.1v2.6h-2.1zM354.7 393.1c-.9 0-1.7-.2-2.4-.5s-1.3-.8-1.8-1.4-.9-1.3-1.1-2.1-.4-1.7-.4-2.6.1-1.8.4-2.6q.45-1.2 1.2-2.1c.5-.6 1.1-1 1.8-1.4.7-.3 1.5-.5 2.4-.5s1.7.2 2.4.5 1.3.8 1.8 1.4q.75.9 1.2 2.1c.3.8.4 1.7.4 2.6s-.1 1.8-.4 2.6-.7 1.5-1.2 2.1-1.1 1-1.8 1.4-1.7.5-2.5.5m0-1.7c.6 0 1.2-.1 1.7-.4s.9-.6 1.2-1.1.6-1 .8-1.6.3-1.3.3-1.9c0-.7-.1-1.3-.3-1.9s-.4-1.1-.8-1.6-.7-.8-1.2-1.1-1.1-.4-1.7-.4-1.2.1-1.7.4-.9.6-1.2 1.1-.6 1-.8 1.6-.3 1.3-.3 1.9c0 .7.1 1.4.3 2s.4 1.1.8 1.6.7.8 1.2 1c.5.3 1 .4 1.7.4M363 388.2v-1.7999999999999998c0-.2 0-.5.1-.8.1-.7.2-1.4.4-2q.3-.9.9-1.5c.4-.4.9-.8 1.5-1.1s1.3-.5 2.2-.7l2.9-.6v1.5l-2.8.6c-.6.1-1.1.3-1.5.5s-.7.4-1 .7-.5.7-.6 1.1-.2 1-.3 1.6c.2-.4.6-.8 1-1.1s1-.4 1.7-.4c.6 0 1.1.1 1.6.3s.9.5 1.3.9c.3.4.6.9.8 1.4.2.6.3 1.2.3 1.9q0 .9-.3 1.8c-.2.5-.5 1-.8 1.4-.4.4-.8.7-1.3.9s-1.1.3-1.7.3-1.2-.1-1.7-.3-1-.6-1.3-1c-.4-.4-.6-.9-.8-1.5s-.6-1.3-.6-2.1m4.1 3.4c.4 0 .8-.1 1.1-.2.3-.2.6-.4.8-.6s.4-.6.5-.9c.1-.4.2-.7.2-1.2 0-.4-.1-.8-.2-1.2s-.3-.7-.5-.9-.5-.5-.8-.6c-.3-.2-.7-.2-1.1-.2s-.8.1-1.1.2c-.3.2-.6.4-.8.6s-.4.6-.5.9c-.1.4-.2.7-.2 1.2 0 .4.1.8.2 1.2s.3.7.5.9.5.5.8.6c.4.1.7.2 1.1.2M375.7 396.7H374V384h1.6v1.5c0-.1.1-.3.3-.4.1-.2.3-.4.5-.6s.5-.3.8-.5c.3-.1.7-.2 1.2-.2q.75 0 1.5.3t1.2.9c.3.4.6.9.8 1.5s.3 1.2.3 2-.1 1.4-.3 2-.5 1.1-.8 1.5-.8.7-1.2.9q-.75.3-1.5.3c-.4 0-.8-.1-1.1-.2s-.6-.3-.8-.5l-.5-.5c-.1-.2-.2-.3-.3-.4zm-.1-8.3c0 .4.1.9.2 1.2.1.4.3.7.5 1s.5.5.8.7.7.2 1 .2c.4 0 .7-.1 1-.2.3-.2.6-.4.8-.7s.4-.6.5-1 .2-.8.2-1.2-.1-.9-.2-1.2c-.1-.4-.3-.7-.5-1s-.5-.5-.8-.7-.7-.2-1-.2c-.4 0-.7.1-1 .2s-.6.4-.8.7-.4.6-.5 1c-.1.3-.2.8-.2 1.2M390.9 391.4c-.1.1-.1.3-.3.5-.1.2-.3.4-.5.5s-.5.3-.8.4-.7.2-1.1.2q-.75 0-1.5-.3t-1.2-.9c-.45-.6-.6-.9-.8-1.5s-.3-1.2-.3-2c0-.7.1-1.4.3-2s.5-1.1.8-1.5q.45-.6 1.2-.9t1.5-.3c.4 0 .8.1 1.1.2s.6.3.8.5.4.4.5.6.2.3.3.5V384h1.6v8.9h-1.6zm0-3c0-.4-.1-.9-.2-1.2-.1-.4-.3-.7-.5-1s-.4-.5-.7-.7-.6-.2-1-.2-.7.1-1 .2c-.3.2-.5.4-.7.7s-.3.6-.5 1c-.1.4-.2.8-.2 1.2s.1.9.2 1.2c.1.4.3.7.5 1s.4.5.7.7.6.2 1 .2.7-.1 1-.2c.3-.2.5-.4.7-.7s.4-.6.5-1c.2-.3.2-.7.2-1.2M395.5 388.2v-1.7999999999999998c0-.2 0-.5.1-.8.1-.7.2-1.4.4-2q.3-.9.9-1.5c.4-.4.9-.8 1.5-1.1s1.3-.5 2.2-.7l2.9-.6v1.5l-2.8.6c-.6.1-1.1.3-1.5.5s-.7.4-1 .7-.5.7-.6 1.1-.2 1-.3 1.6c.2-.4.6-.8 1-1.1s1-.4 1.7-.4c.6 0 1.1.1 1.6.3s.9.5 1.3.9c.3.4.6.9.8 1.4.2.6.3 1.2.3 1.9q0 .9-.3 1.8c-.2.5-.5 1-.8 1.4-.4.4-.8.7-1.3.9s-1.1.3-1.7.3-1.2-.1-1.7-.3-1-.6-1.3-1c-.4-.4-.6-.9-.8-1.5s-.6-1.3-.6-2.1m4.1 3.4c.4 0 .8-.1 1.1-.2.3-.2.6-.4.8-.6s.4-.6.5-.9c.1-.4.2-.7.2-1.2 0-.4-.1-.8-.2-1.2s-.3-.7-.5-.9-.5-.5-.8-.6c-.3-.2-.7-.2-1.1-.2s-.8.1-1.1.2c-.3.2-.6.4-.8.6s-.4.6-.5.9c-.1.4-.2.7-.2 1.2 0 .4.1.8.2 1.2s.3.7.5.9.5.5.8.6c.4.1.7.2 1.1.2M410.1 383.8c.6 0 1.2.1 1.7.4.5.2 1 .6 1.3 1 .4.4.6.9.8 1.5q.3.9.3 1.8 0 1.05-.3 1.8c-.2.6-.5 1.1-.8 1.5-.4.4-.8.7-1.3 1s-1.1.4-1.7.4-1.2-.1-1.7-.4c-.5-.2-.9-.6-1.3-1s-.6-.9-.8-1.5q-.3-.9-.3-1.8 0-1.05.3-1.8c.2-.6.5-1.1.8-1.5.4-.4.8-.7 1.3-1s1.1-.4 1.7-.4m0 7.8c.4 0 .8-.1 1.1-.2.3-.2.6-.4.8-.7s.4-.6.5-1 .2-.8.2-1.2-.1-.8-.2-1.2-.3-.7-.5-1-.5-.5-.8-.7-.7-.2-1.1-.2-.8.1-1.1.2-.6.4-.8.7-.4.6-.5 1-.2.8-.2 1.2.1.8.2 1.2.3.7.5 1 .5.5.8.7.7.2 1.1.2M419 385.4h-3.1V384h7.8v1.5h-3.1v7.4H419zM431.9 391.4c-.1.1-.1.3-.3.5-.1.2-.3.4-.5.5s-.5.3-.8.4-.7.2-1.1.2q-.75 0-1.5-.3t-1.2-.9c-.45-.6-.6-.9-.8-1.5s-.3-1.2-.3-2c0-.7.1-1.4.3-2s.5-1.1.8-1.5q.45-.6 1.2-.9t1.5-.3c.4 0 .8.1 1.1.2s.6.3.8.5.4.4.5.6.2.3.3.5V384h1.6v8.9h-1.6zm0-3c0-.4-.1-.9-.2-1.2-.1-.4-.3-.7-.5-1s-.4-.5-.7-.7-.6-.2-1-.2-.7.1-1 .2c-.3.2-.5.4-.7.7s-.3.6-.5 1c-.1.4-.2.8-.2 1.2s.1.9.2 1.2c.1.4.3.7.5 1s.4.5.7.7.6.2 1 .2.7-.1 1-.2c.3-.2.5-.4.7-.7s.4-.6.5-1c.1-.3.2-.7.2-1.2M438.9 385.4h-3.1V384h7.8v1.5h-3.1v7.4h-1.6zM449.6 386.8c.6 0 1.1.1 1.6.2.4.2.8.4 1.1.6s.5.6.6 1 .2.8.2 1.2-.1.8-.2 1.1c-.1.4-.4.7-.6 1-.3.3-.7.5-1.1.7s-1 .3-1.6.3H446V384h1.6v2.9h2zm-2 1.5v3.1h1.8c.6 0 1.1-.1 1.5-.4.3-.3.5-.6.5-1.2 0-.5-.2-.8-.5-1.1s-.8-.4-1.5-.4zM465.6 386.3c-.1-.2-.2-.3-.4-.5-.2-.1-.4-.3-.6-.4s-.6-.2-.9-.2c-.4 0-.7.1-1 .2-.3.2-.5.4-.7.7s-.4.6-.5 1-.2.8-.2 1.2.1.9.2 1.2c.1.4.3.7.5 1s.5.5.7.7c.3.2.6.2 1 .2s.7-.1.9-.2c.3-.1.5-.2.6-.4.2-.1.3-.3.4-.4s.2-.3.2-.3h1.6c0 .1-.1.4-.2.7s-.3.6-.6 1c-.3.3-.7.6-1.1.8-.5.2-1.1.4-1.8.4-.6 0-1.1-.1-1.6-.4-.5-.2-.9-.6-1.3-1q-.6-.6-.9-1.5c-.2-.6-.3-1.2-.3-1.9s.1-1.3.3-1.9.5-1.1.8-1.5c.4-.4.8-.7 1.3-1 .5-.2 1-.4 1.6-.4.7 0 1.3.1 1.8.4.5.2.8.5 1.1.8s.5.6.6 1c.1.3.2.6.2.7h-1.6c0 .2-.1.1-.1 0M471.1 384h6.1v8.9h-1.6v-7.4h-3.1l-.5 3.5c-.1 1.4-.4 2.4-.8 3s-1.1 1-2 1h-.5v-1.5h.2c.3 0 .5 0 .7-.1s.4-.2.5-.4.2-.5.3-.8.1-.8.2-1.3zM483.9 383.7c.6 0 1.1.1 1.6.3s.9.5 1.3.9.6.9.8 1.5.3 1.2.3 1.9v.3h-6.4c0 .4.1.8.2 1.1.1.4.3.7.5.9.2.3.5.5.8.6s.7.2 1.1.2.7 0 1-.1.5-.2.7-.3.3-.2.4-.4.2-.2.2-.3h1.6c0 .2-.1.4-.3.7-.1.3-.4.6-.6.9-.3.3-.7.5-1.1.7-.5.2-1.1.3-1.7.3s-1.2-.1-1.8-.4-1-.6-1.3-1c-.4-.4-.6-.9-.8-1.5q-.3-.9-.3-1.8c0-.7.1-1.3.3-1.9s.5-1.1.8-1.5.8-.7 1.3-1 .8-.1 1.4-.1m0 1.4c-.7 0-1.2.2-1.6.6s-.6.9-.8 1.6h4.6c-.1-.7-.4-1.3-.8-1.6-.2-.4-.7-.6-1.4-.6M489.2 395.5v-4.2h1.1q.45-.6.6-1.5c.1-.6.3-1.5.4-2.6l.3-3.3h6.2v7.4h1.6v4.2h-1.5v-2.7h-7.3v2.7zm6.9-10.1h-3.2l-.2 2c-.1 1-.2 1.9-.3 2.5s-.3 1.1-.5 1.5h4.3v-6zM503.8 396.7h-1.6l1.6-4-3.6-8.7h1.8l2.6 6.6 2.6-6.6h1.7zM512.6 384v7.4h3.6V384h1.6v7.4h3.6V384h1.6v7.4h1.6v4.2h-1.5v-2.7H511V384zM530.3 383.7c.6 0 1.1.1 1.6.3s.9.5 1.3.9.6.9.8 1.5.3 1.2.3 1.9v.3h-6.4c0 .4.1.8.2 1.1.1.4.3.7.5.9.2.3.5.5.8.6s.7.2 1.1.2.7 0 1-.1.5-.2.7-.3.3-.2.4-.4.2-.2.2-.3h1.6c0 .2-.1.4-.3.7-.1.3-.4.6-.6.9-.3.3-.7.5-1.1.7-.5.2-1.1.3-1.7.3s-1.2-.1-1.8-.4-1-.6-1.3-1c-.4-.4-.6-.9-.8-1.5q-.3-.9-.3-1.8c0-.7.1-1.3.3-1.9s.5-1.1.8-1.5.8-.7 1.3-1 .7-.1 1.4-.1m0 1.4c-.7 0-1.2.2-1.6.6s-.6.9-.8 1.6h4.6c-.1-.7-.4-1.3-.8-1.6-.3-.4-.8-.6-1.4-.6M540.4 383.7c.6 0 1.1.1 1.6.3s.9.5 1.3.9.6.9.8 1.5.3 1.2.3 1.9v.3H538c0 .4.1.8.2 1.1.1.4.3.7.5.9.2.3.5.5.8.6s.7.2 1.1.2.7 0 1-.1.5-.2.7-.3.3-.2.4-.4.2-.2.2-.3h1.6c0 .2-.1.4-.3.7-.1.3-.4.6-.6.9-.3.3-.7.5-1.1.7-.5.2-1.1.3-1.7.3s-1.2-.1-1.8-.4-1-.6-1.3-1c-.4-.4-.6-.9-.8-1.5q-.3-.9-.3-1.8c0-.7.1-1.3.3-1.9s.5-1.1.8-1.5.8-.7 1.3-1 .8-.1 1.4-.1m0 1.4c-.7 0-1.2.2-1.6.6s-.6.9-.8 1.6h4.6c-.1-.7-.4-1.3-.8-1.6-.2-.4-.7-.6-1.4-.6M416.2 404.3c-.1-.2-.2-.3-.4-.5-.2-.1-.4-.3-.6-.4s-.6-.2-.9-.2c-.4 0-.7.1-1 .2-.3.2-.5.4-.7.7s-.4.6-.5 1-.2.8-.2 1.2.1.9.2 1.2c.1.4.3.7.5 1s.5.5.7.7c.3.2.6.2 1 .2s.7-.1.9-.2c.3-.1.5-.2.6-.4.2-.1.3-.3.4-.4s.2-.3.2-.3h1.6c0 .1-.1.4-.2.7s-.3.6-.6 1c-.3.3-.7.6-1.1.8-.5.2-1.1.4-1.8.4-.6 0-1.1-.1-1.6-.4-.5-.2-.9-.6-1.3-1q-.6-.6-.9-1.5c-.2-.6-.3-1.2-.3-1.9s.1-1.3.3-1.9.5-1.1.8-1.5c.4-.4.8-.7 1.3-1 .5-.2 1-.4 1.6-.4.7 0 1.3.1 1.8.4.5.2.8.5 1.1.8s.5.6.6 1c.1.3.2.6.2.7h-1.6c0 .2-.1.1-.1 0M424 401.8c.6 0 1.2.1 1.7.4.5.2 1 .6 1.3 1 .4.4.6.9.8 1.5q.3.9.3 1.8 0 1.05-.3 1.8c-.2.6-.5 1.1-.8 1.5-.4.4-.8.7-1.3 1s-1.1.4-1.7.4-1.2-.1-1.7-.4c-.5-.2-.9-.6-1.3-1s-.6-.9-.8-1.5q-.3-.9-.3-1.8 0-1.05.3-1.8c.2-.6.5-1.1.8-1.5.4-.4.8-.7 1.3-1s1.1-.4 1.7-.4m0 7.8c.4 0 .8-.1 1.1-.2.3-.2.6-.4.8-.7s.4-.6.5-1 .2-.8.2-1.2-.1-.8-.2-1.2-.3-.7-.5-1-.5-.5-.8-.7-.7-.2-1.1-.2-.8.1-1.1.2-.6.4-.8.7-.4.6-.5 1-.2.8-.2 1.2.1.8.2 1.2.3.7.5 1 .5.5.8.7.7.2 1.1.2M430.5 406.2v-1.7999999999999998c0-.2 0-.5.1-.8.1-.7.2-1.4.4-2q.3-.9.9-1.5c.4-.4.9-.8 1.5-1.1s1.3-.5 2.2-.7l2.9-.6v1.5l-2.8.6c-.6.1-1.1.3-1.5.5s-.7.4-1 .7-.5.7-.6 1.1-.2 1-.3 1.6c.2-.4.6-.8 1-1.1s1-.4 1.7-.4c.6 0 1.1.1 1.6.3s.9.5 1.3.9c.3.4.6.9.8 1.4.2.6.3 1.2.3 1.9q0 .9-.3 1.8c-.2.5-.5 1-.8 1.4-.4.4-.8.7-1.3.9s-1.1.3-1.7.3-1.2-.1-1.7-.3-1-.6-1.3-1c-.4-.4-.6-.9-.8-1.5s-.6-1.3-.6-2.1m4.2 3.4c.4 0 .8-.1 1.1-.2.3-.2.6-.4.8-.6s.4-.6.5-.9c.1-.4.2-.7.2-1.2 0-.4-.1-.8-.2-1.2s-.3-.7-.5-.9-.5-.5-.8-.6c-.3-.2-.7-.2-1.1-.2s-.8.1-1.1.2c-.3.2-.6.4-.8.6s-.4.6-.5.9c-.1.4-.2.7-.2 1.2 0 .4.1.8.2 1.2s.3.7.5.9.5.5.8.6.7.2 1.1.2M445.2 404.8c.6 0 1.1.1 1.6.2.4.2.8.4 1.1.6s.5.6.6 1 .2.8.2 1.2-.1.8-.2 1.1c-.1.4-.4.7-.6 1-.3.3-.7.5-1.1.7s-1 .3-1.6.3h-3.6V402h1.6v2.9h2zm-2 1.5v3.1h1.8c.6 0 1.1-.1 1.5-.4.3-.3.5-.6.5-1.2 0-.5-.2-.8-.5-1.1s-.8-.4-1.5-.4zm7.1-4.3h1.6v8.9h-1.6zM457.3 403.4h-3.1V402h7.8v1.5h-3v7.4h-1.6v-7.5zM464.4 402h1.6v6.5l4.5-6.5h1.6v8.9h-1.6v-6.6l-4.5 6.6h-1.6zM479 401.7c.6 0 1.1.1 1.6.3s.9.5 1.3.9.6.9.8 1.5.3 1.2.3 1.9v.3h-6.4c0 .4.1.8.2 1.1.1.4.3.7.5.9.2.3.5.5.8.6s.7.2 1.1.2.7 0 1-.1.5-.2.7-.3.3-.2.4-.4.2-.2.2-.3h1.6c0 .2-.1.4-.3.7-.1.3-.4.6-.6.9-.3.3-.7.5-1.1.7-.5.2-1.1.3-1.7.3s-1.2-.1-1.8-.4-1-.6-1.3-1c-.4-.4-.6-.9-.8-1.5q-.3-.9-.3-1.8c0-.7.1-1.3.3-1.9s.5-1.1.8-1.5.8-.7 1.3-1 .8-.1 1.4-.1m0 1.4c-.7 0-1.2.2-1.6.6s-.6.9-.8 1.6h4.6c-.1-.7-.4-1.3-.8-1.6-.3-.4-.8-.6-1.4-.6"/><path d="M113.7 93.5V131" class="st8"/><path d="m105.5 124.3 1.5-1.3 6.7 7.2 6.7-7.2 1.5 1.3-8.2 8.8z" class="st1"/><path d="M113.7 304.6v21.2" class="st8"/><path d="m105.5 319.2 1.5-1.4 6.7 7.3 6.7-7.3 1.5 1.4-8.2 8.8z" class="st1"/><path d="M113.7 500v21.2" class="st8"/><path d="m105.5 514.6 1.5-1.4 6.7 7.3 6.7-7.3 1.5 1.4-8.2 8.8z" class="st1"/><path d="M113.7 260.6v20.7M225.6 392.9h20.7M225.6 196.9h20.7M113.7 456.2v20.6M283.7 196.9h37.4" class="st8"/><path d="m314.5 205-1.3-1.4 7.2-6.7-7.2-6.8 1.3-1.4 8.8 8.2z" class="st1"/><path d="M283.7 392.9h37.4" class="st8"/><path d="m314.5 401-1.3-1.4 7.2-6.7-7.2-6.8 1.3-1.4 8.8 8.2z" class="st1"/><path d="M569.8 392.9h42.6V105H113.7M569.8 196.9h42.6" class="st8"/></svg>